<svg width="70" height="70" viewBox="0 0 70 70" fill="none" xmlns="http://www.w3.org/2000/svg">
<path d="M22.3822 5.20622C21.9169 3.77211 22.7015 2.23293 24.1356 1.76763C25.5684 1.30233 27.1075 2.08692 27.5742 3.51967C28.0395 4.95378 27.2549 6.49296 25.8208 6.95826C25.5411 7.04968 25.2573 7.09198 24.9775 7.09198C23.8272 7.09212 22.7575 6.35924 22.3822 5.20622ZM7.27289 18.2715C7.75729 18.6249 8.31948 18.7941 8.87756 18.7941C9.71947 18.7941 10.5518 18.4051 11.0854 17.6711C11.9723 16.4526 11.7035 14.7457 10.485 13.8588C9.26645 12.9718 7.55944 13.2406 6.67387 14.459C5.78556 15.6775 6.05437 17.3846 7.27289 18.2715ZM16.0058 11.6713C16.5625 11.6713 17.1247 11.5007 17.6091 11.1487C18.829 10.2618 19.0978 8.55475 18.2109 7.33637C17.3239 6.11772 15.6169 5.84904 14.3984 6.73598C13.1799 7.62155 12.9097 9.32857 13.798 10.5483C14.3315 11.2811 15.1625 11.6713 16.0058 11.6713ZM3.45633 27.6307C3.73605 27.7222 4.02124 27.7658 4.2996 27.7658C5.44989 27.7658 6.51967 27.0331 6.89492 25.8801C7.36022 24.4459 6.57562 22.9068 5.14287 22.4401C3.71013 21.9748 2.16959 22.7594 1.70428 24.1921C1.23898 25.6263 2.02222 27.1654 3.45633 27.6307ZM0.0532163 35.5313C0.070955 35.6173 0.0927873 35.7046 0.118713 35.7904C0.144639 35.875 0.174659 35.9596 0.208771 36.0415C0.242884 36.1235 0.281091 36.2052 0.323391 36.2832C0.364327 36.3609 0.41072 36.4387 0.459843 36.5124C0.508966 36.5874 0.562182 36.6598 0.619492 36.728C0.675437 36.7976 0.736841 36.8644 0.799609 36.9272C0.862376 36.99 0.929238 37.0514 0.998828 37.1073C1.06705 37.1633 1.13937 37.2178 1.21442 37.267C1.28811 37.3161 1.36588 37.3625 1.44366 37.4034C1.52144 37.4457 1.60331 37.4839 1.68518 37.518C1.76705 37.5522 1.85165 37.5822 1.93625 37.6081C2.02222 37.6339 2.10955 37.6559 2.19551 37.6735C2.28284 37.6913 2.3729 37.7048 2.46023 37.713C2.55029 37.7226 2.64035 37.7268 2.72904 37.7268C2.81773 37.7268 2.90916 37.7227 2.99785 37.713C3.08654 37.7048 3.17524 37.6913 3.26257 37.6735C3.3499 37.6557 3.43586 37.6339 3.52183 37.6081C3.60643 37.5822 3.69103 37.5522 3.7729 37.518C3.85477 37.4839 3.93664 37.4457 4.01442 37.4034C4.09356 37.3625 4.16997 37.3161 4.24366 37.267C4.3187 37.2178 4.39102 37.1633 4.45925 37.1073C4.52884 37.0514 4.5957 36.99 4.65847 36.9272C4.72124 36.8644 4.78264 36.7976 4.83859 36.728C4.89453 36.6598 4.94911 36.5874 4.99824 36.5124C5.04736 36.4387 5.09375 36.3611 5.13469 36.2832C5.17699 36.2054 5.21519 36.1235 5.24931 36.0415C5.28342 35.9596 5.31344 35.875 5.33937 35.7904C5.36529 35.7045 5.38712 35.6171 5.40486 35.5313C5.4226 35.4438 5.43625 35.3538 5.44443 35.2666C5.45399 35.1765 5.45808 35.0865 5.45808 34.9978C5.45808 34.9091 5.45399 34.8189 5.44443 34.729C5.43625 34.6403 5.4226 34.5514 5.40486 34.4642C5.38712 34.3771 5.36529 34.2896 5.33937 34.205C5.31344 34.1204 5.28342 34.0359 5.24931 33.9539C5.21519 33.872 5.17699 33.7902 5.13469 33.7124C5.09375 33.6333 5.04736 33.5567 4.99824 33.483C4.94911 33.408 4.8959 33.3357 4.83859 33.2674C4.78264 33.1978 4.72124 33.131 4.65847 33.0682C4.5957 33.0054 4.52884 32.9442 4.45925 32.8882C4.39102 32.8309 4.3187 32.7776 4.24366 32.7286C4.16997 32.6795 4.09356 32.6331 4.01442 32.5921C3.93664 32.5497 3.85477 32.5116 3.7729 32.4775C3.69103 32.4434 3.60643 32.4132 3.52183 32.3874C3.43586 32.3615 3.3499 32.3396 3.26257 32.322C3.17524 32.3042 3.08654 32.2907 2.99785 32.2824C2.8191 32.2646 2.63898 32.2646 2.46023 32.2824C2.3729 32.2907 2.28284 32.3042 2.19551 32.322C2.10955 32.3397 2.02222 32.3615 1.93625 32.3874C1.85165 32.4132 1.76705 32.4434 1.68518 32.4775C1.60331 32.5116 1.52144 32.5497 1.44366 32.5921C1.36588 32.6331 1.28811 32.6795 1.21442 32.7286C1.13937 32.7776 1.06705 32.8309 0.998828 32.8882C0.929238 32.9442 0.862376 33.0054 0.799609 33.0682C0.736841 33.131 0.675437 33.1978 0.619492 33.2674C0.562182 33.3357 0.508966 33.408 0.459843 33.483C0.41072 33.5567 0.364327 33.6333 0.323391 33.7124C0.281091 33.79 0.242884 33.872 0.208771 33.9539C0.174659 34.0359 0.144639 34.1204 0.118713 34.205C0.0927873 34.2896 0.070955 34.3771 0.0532163 34.4642C0.0354775 34.5516 0.0218323 34.6403 0.0136452 34.729C0.00409356 34.819 0 34.9091 0 34.9978C0 35.0863 0.00409356 35.1765 0.0136452 35.2666C0.0218323 35.3539 0.0354775 35.444 0.0532163 35.5313ZM67.2708 6.34286C65.7636 6.34286 64.5418 7.56465 64.5418 9.0719V16.4546C61.8415 12.1467 58.2254 8.46633 53.9198 5.67302C48.2657 2.00492 41.6997 0.0660706 34.9317 0.0660706C34.8288 0.0660706 34.7276 0.0728932 34.6275 0.0839458C34.5547 0.0919964 34.4807 0.103049 34.4081 0.117376C34.1107 0.175232 33.8314 0.28221 33.5769 0.428078C33.5303 0.454413 33.4845 0.482113 33.44 0.511313C33.3468 0.572307 33.2577 0.63835 33.1728 0.709987C33.1174 0.756245 33.0637 0.805094 33.0128 0.855445C33.0058 0.862268 32.999 0.869227 32.9922 0.876049C32.9414 0.927355 32.8922 0.98139 32.8456 1.0372C32.8336 1.05139 32.8217 1.06558 32.8101 1.07991C32.7695 1.13012 32.7302 1.18279 32.6929 1.23669C32.6785 1.25743 32.6641 1.27831 32.6502 1.29946C32.6201 1.34544 32.5914 1.39293 32.5643 1.4411C32.4187 1.69517 32.312 1.97408 32.2541 2.271C32.2398 2.34318 32.2287 2.41632 32.2207 2.48959C32.2192 2.50283 32.2173 2.51593 32.216 2.52917C32.2068 2.61718 32.2027 2.70737 32.2027 2.79511C32.2027 2.88271 32.2068 2.97168 32.216 3.06065C32.2174 3.07415 32.2193 3.08753 32.2208 3.1009C32.2287 3.17322 32.2396 3.24649 32.254 3.31854C32.3121 3.61723 32.4196 3.89751 32.5666 4.15281C32.5921 4.19756 32.6187 4.24164 32.6467 4.28476C32.6622 4.3085 32.6781 4.33197 32.6943 4.35517C32.7306 4.40743 32.7685 4.45832 32.8078 4.50704C32.8209 4.52314 32.8342 4.5391 32.8475 4.55493C32.8927 4.60897 32.9403 4.66136 32.9894 4.71117C32.998 4.7199 33.0066 4.7285 33.0154 4.73709C33.0653 4.78649 33.118 4.83438 33.1723 4.87969C33.1874 4.89251 33.2026 4.9052 33.2181 4.91762C33.2673 4.95733 33.3186 4.99567 33.3712 5.0321C33.3948 5.04848 33.4184 5.06458 33.4426 5.08027C33.4853 5.10797 33.529 5.13431 33.5732 5.15955C33.83 5.30746 34.1123 5.4154 34.4132 5.47325C34.4829 5.48717 34.5539 5.49768 34.624 5.50546C34.6387 5.50709 34.6535 5.50914 34.6684 5.51064C34.7566 5.51978 34.8448 5.52388 34.9317 5.52388C45.2528 5.52388 54.8293 10.9993 60.1323 19.7055L53.8944 19.7152C52.3872 19.7175 51.1673 20.941 51.1695 22.4483C51.1718 23.954 52.393 25.1732 53.8984 25.1732C53.8997 25.1732 53.9013 25.1732 53.9026 25.1732L61.8874 25.1611C64.062 25.1668 66.0878 24.3336 67.6095 22.8118C69.1601 21.2613 70.009 19.1799 69.9999 16.962V9.0719C69.9999 7.56465 68.7781 6.34286 67.2708 6.34286ZM66.5435 42.3635C65.1108 41.8982 63.5702 42.6828 63.1049 44.1155C62.6396 45.5497 63.4229 47.0888 64.857 47.5541C65.1381 47.6455 65.4219 47.6892 65.7016 47.6892C66.8519 47.6892 67.9217 46.9564 68.2956 45.8034C68.7622 44.3693 67.9776 42.8301 66.5435 42.3635ZM62.727 51.7241C61.5084 50.8371 59.8014 51.1059 58.9145 52.3243C58.0276 53.543 58.2964 55.2498 59.5149 56.1368C59.9993 56.4888 60.5615 56.6594 61.1182 56.6594C61.9615 56.6594 62.7925 56.2691 63.3274 55.5364C64.2143 54.318 63.9455 52.611 62.727 51.7241ZM44.1791 63.0374C42.7449 63.5026 41.9603 65.0418 42.4256 66.4759C42.8009 67.6289 43.8707 68.363 45.021 68.363C45.3007 68.363 45.5845 68.3195 45.8642 68.2281C47.2983 67.7628 48.0829 66.2236 47.6176 64.7895C47.1523 63.3566 45.6132 62.572 44.1791 63.0374ZM52.3907 58.847C51.1709 59.7339 50.902 61.4409 51.789 62.6593C52.3239 63.3934 53.1549 63.7823 53.9981 63.7823C54.5549 63.7823 55.117 63.6131 55.6014 63.2597C56.82 62.3728 57.0888 60.6656 56.2018 59.4472C55.3163 58.2287 53.6092 57.9601 52.3907 58.847ZM69.9466 34.4642C69.9289 34.3769 69.9071 34.2896 69.8811 34.205C69.8552 34.1204 69.8252 34.0359 69.7911 33.9539C69.757 33.872 69.7188 33.7902 69.6765 33.7124C69.6355 33.6333 69.5891 33.5567 69.54 33.483C69.4909 33.408 69.4377 33.3357 69.3804 33.2674C69.3244 33.1978 69.263 33.131 69.2002 33.0682C69.1375 33.0054 69.0706 32.9442 69.001 32.8882C68.9328 32.8309 68.8605 32.7776 68.7854 32.7286C68.7117 32.6795 68.6353 32.6331 68.5562 32.5921C68.4784 32.5497 68.3965 32.5116 68.3147 32.4775C68.2328 32.4434 68.1482 32.4132 68.0636 32.3874C67.9776 32.3615 67.8917 32.3396 67.8043 32.322C67.717 32.3042 67.627 32.2907 67.5396 32.2824C67.3609 32.2646 67.1808 32.2646 67.002 32.2824C66.9147 32.2907 66.8246 32.3042 66.7373 32.322C66.6513 32.3397 66.564 32.3615 66.478 32.3874C66.3934 32.4132 66.3088 32.4434 66.227 32.4775C66.1451 32.5116 66.0632 32.5497 65.9854 32.5921C65.9077 32.6331 65.8299 32.6795 65.7562 32.7286C65.6812 32.7776 65.6088 32.8309 65.5406 32.8882C65.471 32.9442 65.4042 33.0054 65.3414 33.0682C65.2786 33.131 65.2172 33.1978 65.1613 33.2674C65.1053 33.3357 65.0507 33.408 65.0016 33.483C64.9525 33.5567 64.9061 33.6333 64.8652 33.7124C64.8229 33.79 64.7847 33.872 64.7505 33.9539C64.7164 34.0359 64.6864 34.1204 64.6605 34.205C64.6346 34.2896 64.6127 34.3771 64.595 34.4642C64.5773 34.5516 64.565 34.6403 64.5554 34.729C64.5472 34.8189 64.5418 34.9089 64.5418 34.9978C64.5418 35.0863 64.5472 35.1765 64.5554 35.2666C64.565 35.3539 64.5773 35.444 64.595 35.5313C64.6127 35.6173 64.6346 35.7046 64.6605 35.7904C64.6864 35.875 64.7164 35.9596 64.7505 36.0415C64.7847 36.1235 64.8229 36.2052 64.8652 36.2832C64.9061 36.3609 64.9525 36.4387 65.0016 36.5124C65.0507 36.5874 65.1053 36.6598 65.1613 36.728C65.2172 36.7976 65.2786 36.8644 65.3414 36.9272C65.4042 36.99 65.471 37.0514 65.5406 37.1073C65.6088 37.1633 65.6812 37.2178 65.7562 37.267C65.8299 37.3161 65.9077 37.3625 65.9854 37.4034C66.0632 37.4457 66.1451 37.4839 66.227 37.518C66.3088 37.5522 66.3934 37.5822 66.478 37.6081C66.564 37.6339 66.6513 37.6559 66.7373 37.6735C66.8246 37.6913 66.9147 37.7048 67.002 37.713C67.0921 37.7226 67.1821 37.7268 67.2708 37.7268C67.3595 37.7268 67.4496 37.7227 67.5396 37.713C67.627 37.7048 67.717 37.6913 67.8043 37.6735C67.8917 37.6557 67.9776 37.6339 68.0636 37.6081C68.1482 37.5822 68.2328 37.5522 68.3147 37.518C68.3965 37.4839 68.4784 37.4457 68.5562 37.4034C68.6353 37.3625 68.7117 37.3161 68.7854 37.267C68.8605 37.2178 68.9328 37.1633 69.001 37.1073C69.0706 37.0514 69.1375 36.99 69.2002 36.9272C69.263 36.8644 69.3244 36.7976 69.3804 36.728C69.4377 36.6598 69.4909 36.5874 69.54 36.5124C69.5891 36.4387 69.6355 36.3611 69.6765 36.2832C69.7188 36.2054 69.757 36.1235 69.7911 36.0415C69.8252 35.9596 69.8552 35.875 69.8811 35.7904C69.9071 35.7045 69.9289 35.6171 69.9466 35.5313C69.9644 35.4438 69.978 35.3538 69.9862 35.2666C69.9958 35.1765 69.9999 35.0865 69.9999 34.9978C69.9999 34.9091 69.9958 34.8189 69.9862 34.729C69.978 34.6416 69.9644 34.5516 69.9466 34.4642ZM37.1935 68.9105C37.2317 68.8631 37.2684 68.8139 37.3036 68.7632C37.321 68.7384 37.3379 68.7134 37.3545 68.688C37.3824 68.6453 37.4087 68.6017 37.434 68.5573C37.5815 68.3008 37.689 68.0189 37.7467 67.7187C37.7604 67.6494 37.7709 67.579 37.7786 67.5094C37.7804 67.4941 37.7825 67.4791 37.784 67.4638C37.793 67.3765 37.7971 67.2891 37.7971 67.2033C37.7971 67.2025 37.7972 67.2017 37.7972 67.2007C37.7972 67.1998 37.7972 67.1988 37.7972 67.198C37.7971 67.1119 37.7931 67.0246 37.7841 66.9375C37.7826 66.9222 37.7805 66.9072 37.7788 66.8921C37.771 66.8223 37.7605 66.7519 37.7468 66.6826C37.6891 66.3825 37.5817 66.1009 37.4344 65.8445C37.4084 65.7989 37.3814 65.7541 37.3529 65.7104C37.3373 65.6866 37.3215 65.6633 37.3053 65.6401C37.269 65.5877 37.2309 65.5367 37.1915 65.4878C37.1789 65.4721 37.1661 65.4569 37.1531 65.4416C37.1078 65.3873 37.0599 65.3347 37.0105 65.2847C37.0019 65.2759 36.9932 65.2673 36.9845 65.2587C36.935 65.2099 36.883 65.1625 36.8292 65.1176C36.7434 65.045 36.6529 64.9779 36.5583 64.9161C36.5145 64.8874 36.4695 64.8603 36.4238 64.8344C36.1689 64.6881 35.8892 64.581 35.5912 64.5231C35.519 64.5088 35.4457 64.4977 35.3724 64.4897C35.2724 64.4786 35.1713 64.4718 35.0683 64.4718C24.7473 64.4718 15.1707 58.9964 9.86752 50.2902L16.1056 50.2808C17.6128 50.2785 18.8328 49.0549 18.8305 47.5477C18.8282 46.0419 17.6069 44.8227 16.1015 44.8227C16.1001 44.8227 16.0986 44.8227 16.0972 44.8227L8.11412 44.8347C5.94576 44.8291 3.91235 45.662 2.39023 47.1842C0.839862 48.7343 -0.00900583 50.8158 0.000136452 53.0336V60.9237C0.000136452 62.4309 1.22193 63.6527 2.72918 63.6527C4.23642 63.6527 5.45821 62.4309 5.45821 60.9237V53.5411C8.15846 57.8488 11.7746 61.5294 16.0802 64.3225C21.7343 67.9906 28.3003 69.9295 35.0682 69.9295C35.1549 69.9295 35.2443 69.9254 35.3311 69.9162C35.3462 69.9149 35.3611 69.9127 35.3763 69.9111C35.4459 69.9034 35.5163 69.8928 35.5856 69.8791C35.8871 69.8211 36.17 69.7131 36.4275 69.5647C36.4707 69.54 36.5133 69.5143 36.5551 69.4872C36.5802 69.4709 36.605 69.4542 36.6296 69.437C36.6809 69.4014 36.7307 69.3642 36.7786 69.3255C36.7956 69.3118 36.8126 69.2977 36.8293 69.2835C36.882 69.2394 36.9329 69.1931 36.9815 69.1452C36.992 69.1348 37.0024 69.1244 37.0127 69.1139C37.0606 69.0655 37.1069 69.0144 37.1508 68.9619C37.1653 68.9448 37.1795 68.9278 37.1935 68.9105ZM42.1208 50.1439H28.0155C25.3585 50.1439 23.1968 47.9757 23.1968 45.3103V43.6793C23.1968 40.1933 26.5859 37.3241 29.0604 35.2292C29.1534 35.1505 29.2447 35.0731 29.3335 34.9978C29.2447 34.9223 29.1532 34.8451 29.0604 34.7664C26.5859 32.6714 23.1968 29.8022 23.1968 26.3163V24.6853C23.1968 22.02 25.3585 19.8516 28.0155 19.8516H42.1207C44.7778 19.8516 46.9393 22.02 46.9393 24.6853V26.3163C46.9393 29.8022 43.5503 32.6714 41.0757 34.7664C40.9855 34.8428 40.8968 34.9178 40.8105 34.9911C40.9017 35.0686 40.9958 35.1481 41.0914 35.2292C43.566 37.3241 46.955 40.1933 46.955 43.6793V45.3103C46.955 45.4606 46.9429 45.608 46.9196 45.7516C46.6965 48.2108 44.6293 50.1439 42.1208 50.1439ZM29.7213 27.9519C30.5538 28.8794 31.6341 29.7939 32.587 30.6007C32.901 30.8666 33.1977 31.1178 33.4708 31.357C34.3261 32.1065 34.886 33.1192 35.0682 34.2145C35.2502 33.1192 35.81 32.1065 36.6653 31.3571C36.9385 31.1178 37.2351 30.8666 37.5493 30.6007C38.5024 29.7939 39.5825 28.8794 40.415 27.9519C41.4368 26.8137 41.4813 26.3162 41.4815 26.3112V25.3098H28.655V26.3164C28.6552 26.3163 28.6998 26.8139 29.7213 27.9519ZM41.497 43.6793C41.4967 43.6793 41.4521 43.1818 40.4306 42.0437C39.5981 41.1163 38.5178 40.2018 37.5648 39.3949C37.3174 39.1855 37.0807 38.985 36.8579 38.7925C36.7915 38.7442 36.7273 38.6929 36.6652 38.6385C35.81 37.8891 35.2503 36.8763 35.0683 35.7811C34.8863 36.8763 34.3264 37.8891 33.4713 38.6385C33.1979 38.8779 32.9013 39.1291 32.5872 39.3949C31.6341 40.2018 30.5539 41.1163 29.7214 42.0437C28.6997 43.182 28.6552 43.6795 28.6549 43.6844V44.6859H41.4971V43.6793H41.497Z" fill="#1E5DC5"/>
</svg>
