<svg width="70" height="70" viewBox="0 0 70 70" fill="none" xmlns="http://www.w3.org/2000/svg">
<g clip-path="url(#clip0)">
<path d="M63.5551 -0.136719C63.4792 -0.136719 63.4039 -0.133514 63.3281 -0.127106C62.8811 -0.0902556 52.8857 0.827257 49.1296 8.11609L35.5656 6.73769C32.2785 6.4039 29.057 7.55266 26.728 9.88543L3.32605 33.2099C-0.927727 37.4712 -0.926125 44.4022 3.32926 48.6613L21.2784 66.6254C23.4344 68.783 26.2628 69.8634 29.0816 69.8634C31.8614 69.8629 34.632 68.8124 36.7389 66.7077C37.8065 65.6406 37.8076 63.9103 36.7405 62.8427C35.674 61.7746 33.9431 61.774 32.8755 62.8406C30.7644 64.9501 27.2962 64.9143 25.1456 62.7615L7.19584 44.7974C5.06815 42.6681 5.06762 39.2026 7.18943 37.077L30.5919 13.752C31.7588 12.5835 33.3701 12.0088 35.0128 12.1755L55.8091 14.2893L56.0799 16.9468C52.2918 18.3588 48.6869 18.5842 48.6046 18.589C47.0991 18.6702 45.9434 19.9556 46.0225 21.4617C46.0994 22.9202 47.3058 24.0513 48.7494 24.0513C48.798 24.0513 48.8466 24.0503 48.8952 24.0476C49.0703 24.0385 52.5679 23.8382 56.6486 22.5325L57.9208 35.0257C58.0879 36.6653 57.5165 38.2739 56.3522 39.4408L43.0189 52.5786C41.9439 53.6377 41.931 55.3685 42.9901 56.4436C44.0496 57.5187 45.78 57.5315 46.8551 56.4719L60.1964 43.3266C60.2007 43.3223 60.2049 43.318 60.2097 43.3132C62.5457 40.9794 63.6939 37.7569 63.3591 34.4719L61.908 20.2275C63.7463 19.1513 65.2961 17.8835 66.5351 16.4383C68.901 13.6767 70.1 10.3378 70.0973 6.51498V6.40603C70.0973 2.79847 67.1626 -0.136719 63.5551 -0.136719V-0.136719ZM64.6312 6.51658C64.6333 9.5714 63.5273 12.05 61.2746 14.01L61.021 11.5186C60.8896 10.2283 59.869 9.20771 58.5782 9.07633L55.408 8.75429C58.2054 6.084 62.8277 5.43084 63.6533 5.33364C64.2008 5.38385 64.6312 5.84581 64.6312 6.40603V6.51658ZM42.4811 39.9059C41.4141 40.9735 39.6837 40.9735 38.6161 39.9059C37.5485 38.8384 37.5485 37.108 38.6161 36.041C38.9077 35.7494 38.9606 35.4113 38.9537 35.179C38.943 34.8057 38.7801 34.4431 38.4954 34.1589L36.8212 32.4841C36.387 32.0499 35.8283 31.8075 35.2484 31.8011C34.8414 31.7973 34.2609 31.9025 33.7327 32.4313L33.3012 32.8628C32.4104 33.753 32.3778 35.2244 33.2291 36.0762L35 37.8466C36.4511 39.2976 37.2612 41.2122 37.2826 43.2385C37.3034 45.293 36.5114 47.229 35.0508 48.6891L34.8494 48.8904C33.3722 50.3681 31.4694 51.1046 29.5542 51.1046C27.9275 51.1051 26.2927 50.5716 24.9004 49.5115L23.7559 50.616C23.2256 51.1276 22.5415 51.3818 21.8584 51.3818C21.1428 51.3818 20.4277 51.1025 19.8915 50.5465C18.8431 49.4602 18.8746 47.7299 19.9609 46.6821L20.9852 45.6935C19.8327 44.4449 19.1817 42.8555 19.1459 41.1855C19.1075 39.3655 19.8012 37.6474 21.1001 36.3486C22.1677 35.2815 23.898 35.2815 24.9656 36.3486C26.0326 37.4162 26.0326 39.1465 24.9656 40.2141C24.7231 40.456 24.604 40.7439 24.611 41.0691C24.6184 41.4184 24.7744 41.7629 25.051 42.039L27.9296 44.9175C28.8311 45.819 30.1444 45.865 30.9844 45.0254L31.1858 44.8235C31.5986 44.4113 31.8224 43.8687 31.8165 43.2951C31.8101 42.7076 31.5682 42.1452 31.135 41.7121L29.3636 39.9412C26.3664 36.9435 26.399 32.0344 29.4357 28.9973L29.8677 28.5657C31.3081 27.1254 33.2072 26.335 35.2233 26.335H35.3076C36.7015 26.3505 38.0436 26.7425 39.2191 27.4618L40.3929 26.2495C41.4434 25.1648 43.1733 25.1371 44.2579 26.187C45.3421 27.237 45.3698 28.9673 44.3199 30.052L43.161 31.2488C43.938 32.357 44.3776 33.6596 44.4176 35.0188C44.4715 36.8677 43.7842 38.6034 42.4811 39.9059Z" fill="#1E5DC5"/>
</g>
<defs>
<clipPath id="clip0">
<rect width="70" height="70" fill="white"/>
</clipPath>
</defs>
</svg>
