<svg width="129" height="128" viewBox="0 0 129 128" fill="none" xmlns="http://www.w3.org/2000/svg">
<path d="M80.8328 61.2H78.8328V63.2H80.8328V61.2Z" fill="#1890FF"/>
<path d="M101.933 61.2H98.4328V63.2H101.933V61.2Z" fill="#1890FF"/>
<path d="M94.9328 61.2H91.4328V63.2H94.9328V61.2Z" fill="#1890FF"/>
<path d="M109.033 61.2H105.533V63.2H109.033V61.2Z" fill="#1890FF"/>
<path d="M87.8328 61.2H84.3328V63.2H87.8328V61.2Z" fill="#1890FF"/>
<path d="M112.533 61.2V63.2H113.533V64.2H115.533V61.2H112.533Z" fill="#1890FF"/>
<path d="M115.533 75.7H113.533V79.5H115.533V75.7Z" fill="#1890FF"/>
<path d="M115.533 68H113.533V71.8H115.533V68Z" fill="#1890FF"/>
<path d="M115.533 91H113.533V94.8H115.533V91Z" fill="#1890FF"/>
<path d="M115.533 83.3H113.533V87.1H115.533V83.3Z" fill="#1890FF"/>
<path d="M75.1328 91.6C75.1328 87.6 74.2328 83.7 72.3328 80.1L71.8328 79.3C74.0328 76.6 75.2328 73.2 75.1328 69.7C75.1328 69.4 75.1328 69.2 75.1328 68.9V56.8C78.0328 56.3 80.8328 55.6 83.6328 54.6C89.1328 52.5 92.1328 49.6 92.1328 46.5C92.1328 43.8 89.8328 41.2 85.6328 39.2L90.8328 36.6L89.9328 34.8L82.0328 38.8L85.1328 46.7L86.9328 46L85.0328 41.2C88.2328 42.8 90.0328 44.7 90.0328 46.5C90.0328 48.7 87.4328 51 82.8328 52.7C80.3328 53.6 77.7328 54.3 75.0328 54.7V43.2C75.1328 39.2 74.1328 35.2 72.2328 31.7L71.7328 30.9C73.9328 28.2 75.1328 24.8 75.0328 21.3C75.0328 21 75.0328 20.8 75.0328 20.5V0H72.9328V13.1L65.8328 0H63.5328L71.4328 14.1C72.6328 16.3 73.2328 18.8 73.2328 21.3C73.3328 24 72.4328 26.7 70.9328 29L57.3328 4.8C56.5328 3.3 55.9328 1.7 55.7328 0H53.5328V24C53.5328 26.4 53.8328 28.7 54.5328 31C51.3328 31.4 48.1328 32.2 45.1328 33.3C39.6328 35.4 36.6328 38.3 36.6328 41.4C36.6328 44.2 38.9328 46.7 43.1328 48.7L37.9328 51.3L38.8328 53.1L46.7328 49.1L43.6328 41.2L41.7328 42L43.6328 46.8C40.4328 45.2 38.6328 43.3 38.6328 41.5C38.6328 39.3 41.2328 37 45.8328 35.3C48.8328 34.2 51.9328 33.4 55.1328 33C55.4328 33.9 55.8328 34.7 56.3328 35.5L56.8328 36.4C54.6328 39.1 53.4328 42.5 53.5328 46C53.5328 46.2 53.5328 46.3 53.5328 46.5V61.2H13.1328V121.1H115.633V98.6H75.1328V91.6ZM55.5328 24V5.8L70.3328 32.4L70.5328 32.7C72.2328 35.9 73.1328 39.6 73.1328 43.2V55C72.0328 55.2 70.9328 55.3 69.7328 55.4L58.3328 34.9L58.1328 34.5C56.4328 31.3 55.5328 27.7 55.5328 24ZM73.1328 57.1V61.6L70.7328 57.4C71.5328 57.2 72.3328 57.2 73.1328 57.1ZM57.8328 38.3L67.4328 55.6C66.4328 55.6 65.3328 55.7 64.2328 55.7V57.7C65.6328 57.7 67.0328 57.6 68.4328 57.6L71.2328 62.7C72.4328 64.9 73.0328 67.4 73.0328 69.9C73.1328 72.7 72.2328 75.4 70.7328 77.6L57.3328 53.2C56.1328 51 55.5328 48.5 55.5328 46C55.4328 43.2 56.3328 40.5 57.8328 38.3ZM55.5328 54.2L70.3328 80.8L70.5328 81.1C72.2328 84.3 73.1328 88 73.1328 91.6V98.6H66.8328L58.3328 83.4L58.1328 83C56.4328 79.8 55.5328 76.1 55.5328 72.5V54.2ZM57.8328 86.7L64.4328 98.6H56.0328C55.6328 97.2 55.4328 95.8 55.4328 94.4C55.4328 91.7 56.3328 89 57.8328 86.7ZM56.3328 84L56.8328 84.9C56.3328 85.5 55.9328 86.1 55.5328 86.7V82.3C55.8328 82.9 56.0328 83.4 56.3328 84ZM113.533 100.6V119.1H15.1328V63.1H53.5328V100.6H113.533Z" fill="#1890FF"/>
</svg>
