<svg width="44" height="51" viewBox="0 0 44 51" fill="none" xmlns="http://www.w3.org/2000/svg">
<path d="M38.0859 18.2842H36.4258V16.917C36.4258 15.8382 35.5515 14.9639 34.4727 14.9639H1.95312C0.874329 14.9639 0 15.8382 0 16.917V42.5029C0 46.8109 3.50456 50.3154 7.8125 50.3154H28.6133C32.9212 50.3154 36.4258 46.8109 36.4258 42.5029C36.4258 41.4241 35.5515 40.5498 34.4727 40.5498C33.3939 40.5498 32.5195 41.4241 32.5195 42.5029C32.5195 44.6567 30.7671 46.4092 28.6133 46.4092H7.8125C5.65872 46.4092 3.90625 44.6567 3.90625 42.5029V18.8701H11.7188V23.8349L8.92181 26.7036C8.20656 27.4372 7.8125 28.4057 7.8125 29.4303V35.4717C7.8125 37.6255 9.56497 39.3779 11.7188 39.3779H15.625C17.7788 39.3779 19.5312 37.6255 19.5312 35.4717V29.459C19.5312 28.413 19.1017 27.3937 18.3529 26.6628L15.625 24.0016V18.8701H32.5195V32.7373C32.5195 33.8161 33.3939 34.6904 34.4727 34.6904C34.5055 34.6904 34.5379 34.687 34.5703 34.6855C34.6027 34.687 34.6352 34.6904 34.668 34.6904H38.0859C41.317 34.6904 43.9453 32.0621 43.9453 28.8311V24.1436C43.9453 20.9125 41.317 18.2842 38.0859 18.2842ZM15.625 35.4717H11.7188V29.4303C11.7188 29.4303 11.7188 29.4303 11.7184 29.4303L10.3203 28.067L11.7188 29.4303L13.6089 27.4917L15.625 29.459V35.4717ZM40.0391 28.8311C40.0391 29.9079 39.1628 30.7842 38.0859 30.7842H36.4258V22.1904H38.0859C39.1628 22.1904 40.0391 23.0667 40.0391 24.1436V28.8311ZM3.51562 9.10449C3.51562 7.06096 4.95949 5.81088 6.11954 4.80609C7.22961 3.84479 7.91016 3.20773 7.91016 2.26855C7.91016 1.18976 8.78448 0.31543 9.86328 0.31543C10.9421 0.31543 11.8164 1.18976 11.8164 2.26855C11.8164 5.03993 10.0018 6.61159 8.67653 7.75905C8.20732 8.16531 7.42188 8.84586 7.42188 9.10449C7.42188 10.1833 6.54755 11.0576 5.46875 11.0576C4.38995 11.0576 3.51562 10.1833 3.51562 9.10449ZM14.1602 9.10449C14.1602 7.07317 15.5731 5.82347 16.7084 4.81944C17.7963 3.85738 18.4631 3.21918 18.4631 2.26855C18.4631 1.18976 19.3375 0.31543 20.4163 0.31543C21.4951 0.31543 22.3694 1.18976 22.3694 2.26855C22.3694 5.02773 20.5933 6.59862 19.2963 7.7457C18.8065 8.17867 18.0664 8.83327 18.0664 9.10449C18.0664 10.1833 17.1921 11.0576 16.1133 11.0576C15.0345 11.0576 14.1602 10.1833 14.1602 9.10449ZM24.6094 9.10449C24.6094 7.07431 26.0201 5.82462 27.1542 4.82059C28.2406 3.85814 28.9062 3.21994 28.9062 2.26855C28.9062 1.18976 29.7806 0.31543 30.8594 0.31543C31.9382 0.31543 32.8125 1.18976 32.8125 2.26855C32.8125 5.02658 31.039 6.59747 29.744 7.74455C29.2549 8.1779 28.5156 8.8325 28.5156 9.10449C28.5156 10.1833 27.6413 11.0576 26.5625 11.0576C25.4837 11.0576 24.6094 10.1833 24.6094 9.10449Z" fill="#1E5DC5"/>
</svg>
