<svg width="39" height="51" viewBox="0 0 39 51" fill="none" xmlns="http://www.w3.org/2000/svg">
<path d="M36.3001 25.0034C37.378 25.0034 38.2518 24.1297 38.2518 23.0518V8.12188C38.2519 3.81738 34.7498 0.31543 30.4453 0.31543H7.80654C3.50205 0.31543 0 3.81738 0 8.12188V34.7615C0 37.9899 2.62647 40.6164 5.85488 40.6164H6.56484L1.48291 47.1674C0.822168 48.019 0.977051 49.245 1.82871 49.9057C2.18447 50.1817 2.60566 50.3153 3.02363 50.3153C3.60605 50.3153 4.18242 50.0557 4.56699 49.5599L6.20605 47.447H24.2001C25.278 47.447 26.1518 46.5732 26.1518 45.4953C26.1518 44.4175 25.278 43.5437 24.2001 43.5437H9.23408L11.5049 40.6163H26.747L33.6848 49.5598C34.0694 50.0557 34.6457 50.3152 35.2281 50.3152C35.6461 50.3152 36.0673 50.1815 36.423 49.9056C37.2747 49.2448 37.4295 48.0189 36.7688 47.1673L31.6729 40.5982C31.8017 40.5816 31.9264 40.5527 32.046 40.5123C32.1301 40.5159 32.2145 40.5187 32.2994 40.5187C35.5278 40.5187 38.1543 37.8923 38.1543 34.6639C38.1543 31.4354 35.5278 28.809 32.2994 28.809C29.071 28.809 26.4445 31.4354 26.4445 34.6639C26.4445 35.3846 26.5762 36.0749 26.8154 36.7131H11.374C11.5906 36.1022 11.7097 35.4456 11.7097 34.7614C11.7097 31.533 9.0832 28.9065 5.85478 28.9065C5.17061 28.9065 4.51406 29.0256 3.90313 29.2422V25.0033H36.3001V25.0034ZM7.80654 4.21865H30.4454C32.5648 4.21865 34.294 5.91719 34.3462 8.02432H3.90576C3.95781 5.91719 5.68701 4.21865 7.80654 4.21865ZM3.90322 11.9276H34.3485V21.1003H21.0775V16.8066C21.0775 15.7287 20.2038 14.855 19.1259 14.855C18.048 14.855 17.1742 15.7287 17.1742 16.8066V21.1002H3.90322V11.9276ZM32.2994 32.7124C33.3756 32.7124 34.2511 33.5879 34.2511 34.6641C34.2511 35.7402 33.3756 36.6157 32.2994 36.6157C31.2233 36.6157 30.3478 35.7402 30.3478 34.6641C30.3478 33.5879 31.2231 32.7124 32.2994 32.7124ZM5.85488 32.81C6.93106 32.81 7.80654 33.6854 7.80654 34.7616C7.80654 35.8378 6.93106 36.7133 5.85488 36.7133C4.77871 36.7133 3.90322 35.8378 3.90322 34.7616C3.90322 33.6854 4.77871 32.81 5.85488 32.81Z" fill="#1E5DC5"/>
</svg>
