<svg width="50" height="51" viewBox="0 0 50 51" fill="none" xmlns="http://www.w3.org/2000/svg">
<g clip-path="url(#clip0)">
<path d="M49.8732 43.1594C49.6534 42.1034 48.6189 41.4257 47.5631 41.6454C46.5069 41.8653 45.8291 42.8996 46.049 43.9557C46.1757 44.5639 46.0249 45.1874 45.6354 45.6664C45.4097 45.9438 44.9067 46.4092 44.073 46.4092H35.2539C34.1752 46.4092 33.3008 47.2836 33.3008 48.3623C33.3008 49.441 34.1752 50.3154 35.2539 50.3154H44.073C45.8629 50.3154 47.5369 49.5193 48.6659 48.131C49.8005 46.7358 50.2406 44.9237 49.8732 43.1594Z" fill="#1E5DC5"/>
<path d="M26.9835 26.953C33.4002 27.544 39.2371 30.9832 42.8724 36.405C43.473 37.3009 44.6865 37.5403 45.5823 36.9396C46.4783 36.3388 46.7175 35.1255 46.1169 34.2296C42.912 29.4497 38.258 25.9747 32.9516 24.2284C36.1855 21.8037 38.2817 17.9404 38.2817 13.5967C38.2817 6.27334 32.3237 0.31543 25.0005 0.31543C17.6772 0.31543 11.7192 6.27334 11.7192 13.5967C11.7192 17.9433 13.818 21.8088 17.0554 24.2331C14.0895 25.2095 11.3063 26.7279 8.87057 28.7313C4.40455 32.4049 1.29938 37.5289 0.127208 43.1594C-0.240174 44.9237 0.199962 46.7357 1.33453 48.131C2.46344 49.5192 4.13756 50.3154 5.9275 50.3154H14.4536C15.5323 50.3154 16.4067 49.441 16.4067 48.3623C16.4067 47.2836 15.5323 46.4092 14.4536 46.4092H5.92731C5.09352 46.4092 4.59059 45.9438 4.3649 45.6664C3.97535 45.1873 3.82457 44.5639 3.95123 43.9556C5.86373 34.7692 13.6172 27.9202 22.8172 26.9746L19.0885 43.9384C18.9457 44.5891 19.1441 45.2677 19.6151 45.7387L23.5215 49.6456C23.8878 50.012 24.3846 50.2178 24.9028 50.2178C25.4209 50.2178 25.9176 50.0119 26.2839 49.6456L30.19 45.7387C30.661 45.2676 30.8594 44.5891 30.7165 43.9385L26.9835 26.953ZM15.6255 13.5967C15.6255 8.42725 19.831 4.22168 25.0005 4.22168C30.1699 4.22168 34.3755 8.42725 34.3755 13.5967C34.3755 18.6101 30.4199 22.7167 25.4658 22.9602C25.3109 22.9573 25.1558 22.9555 25.0005 22.9555C24.848 22.9555 24.6958 22.9577 24.5435 22.9604C19.5855 22.7213 15.6255 18.6129 15.6255 13.5967ZM24.9027 45.5022L23.1335 43.7327L24.9027 35.6834L26.6717 43.7328L24.9027 45.5022Z" fill="#1E5DC5"/>
</g>
<defs>
<clipPath id="clip0">
<rect y="0.31543" width="50" height="50" fill="white"/>
</clipPath>
</defs>
</svg>
