<svg width="60" height="53" viewBox="0 0 60 53" fill="none" xmlns="http://www.w3.org/2000/svg">
<path fill-rule="evenodd" clip-rule="evenodd" d="M32.8676 2.94834C21.6178 2.94834 12.2126 10.8192 9.91716 21.3291C9.76198 22.0396 9.0573 22.4904 8.34321 22.336C7.62911 22.1817 7.17601 21.4805 7.33119 20.7701C9.88538 9.07522 20.3468 0.31543 32.8676 0.31543C47.3001 0.31543 59 11.956 59 26.3154C59 40.6748 47.3001 52.3154 32.8676 52.3154C19.7359 52.3154 8.86857 42.6799 7.01424 30.1271C6.90798 29.4078 7.40794 28.7389 8.13093 28.6332C8.85392 28.5275 9.52617 29.0249 9.63243 29.7443C11.2986 41.0236 21.0679 49.6825 32.8676 49.6825C45.8386 49.6825 56.3537 39.2207 56.3537 26.3154C56.3537 13.4101 45.8386 2.94834 32.8676 2.94834Z" fill="#00D2A0" stroke="#00D2A0" stroke-width="0.6" stroke-linecap="round"/>
<path d="M1.40032 26.6658C1.99419 27.4473 3.09905 27.4013 3.80488 26.8734C4.31412 26.4925 4.8211 26.2877 5.30409 26.2877C6.11042 26.2877 6.78522 26.638 7.59136 27.0565C7.64567 27.0847 7.70058 27.1132 7.75616 27.1419C8.62164 27.5892 9.61193 28.0631 10.9449 28.0631C12.0793 28.0631 13.3728 27.4934 14.4396 26.5538C14.9488 26.1053 14.9812 25.3715 14.6441 24.837C14.372 24.4053 13.9274 24.1922 13.4724 24.1447C13.0207 24.0976 12.5393 24.2096 12.1438 24.448C11.6858 24.724 11.2142 24.8662 10.7845 24.8662C10.014 24.8662 9.29204 24.5026 8.44363 24.0737C7.61763 23.6561 6.69002 23.1887 5.59095 23.1179C3.86639 23.0054 2.61712 23.7905 1.57644 24.6978C0.993894 25.2056 0.947556 26.07 1.40032 26.6658ZM17.8226 21.5186C18.7582 21.9328 19.7666 21.5016 20.4009 20.8306C21.102 20.0889 22.0629 19.6364 23.5982 19.6364C24.621 19.6364 25.492 19.8362 26.0961 20.1912C26.6905 20.5406 27.0141 21.0286 27.0141 21.6418C27.0141 22.2309 26.6877 22.7744 26.0437 23.184C25.3958 23.5959 24.4402 23.8592 23.2506 23.8592H22.7833C21.8127 23.8592 21.0258 24.6461 21.0258 25.6167C21.0258 26.5873 21.8127 27.3741 22.7833 27.3741H23.1437C24.4448 27.3741 25.5248 27.5077 26.2707 27.859C26.6382 28.0321 26.9133 28.253 27.0978 28.5272C27.2811 28.7998 27.3884 29.1452 27.3884 29.5916C27.3884 30.3178 27.0173 30.8924 26.3723 31.2987C25.7184 31.7106 24.7896 31.9415 23.7318 31.9415C22.5325 31.9415 21.209 31.4331 20.2861 30.5642C19.5925 29.9111 18.5188 29.4157 17.5261 29.8272C16.5926 30.2141 16.0057 31.3388 16.6396 32.273C18.2681 34.6733 21.397 35.6154 23.9992 35.6154C25.9773 35.6154 27.8034 35.0575 29.1421 34.0188C30.487 32.9754 31.3301 31.4526 31.3301 29.5651C31.3301 28.0886 30.8426 27.0191 30.1275 26.2707C29.6484 25.7693 29.0761 25.4211 28.4999 25.1878C29.9601 24.4357 30.9291 22.8908 30.9291 20.9793C30.9291 19.4466 30.1509 18.1936 28.8787 17.3354C27.6136 16.4819 25.8597 16.0154 23.8655 16.0154C20.9572 16.0154 18.3914 17.12 17.0032 19.127C16.381 20.0264 16.9283 21.1227 17.8226 21.5186ZM33.2548 24.7664C33.1517 25.9898 34.0506 27.0692 35.2725 27.1891C35.864 27.2471 36.4234 27.0489 36.8963 26.7878C37.5919 26.4038 38.4611 26.1817 39.6216 26.1817C40.8476 26.1817 41.7884 26.4763 42.4167 26.9858C43.0366 27.4886 43.385 28.2266 43.385 29.1941C43.385 29.9998 43.0784 30.6759 42.5149 31.1551C41.9472 31.6379 41.0932 31.9415 39.9691 31.9415C38.6487 31.9415 37.3904 31.5348 36.5558 30.7866C35.8779 30.1789 34.8504 29.6229 33.8574 29.9833C32.8963 30.332 32.2814 31.4594 32.9028 32.4092C34.4849 34.8271 37.3467 35.6154 39.8087 35.6154C41.9506 35.6154 43.8216 34.9892 45.1624 33.8515C46.5076 32.7101 47.3 31.0689 47.3 29.0881C47.3 27.217 46.6734 25.6072 45.4244 24.4676C44.1783 23.3307 42.3474 22.6933 39.9958 22.6933C38.6647 22.6933 37.7504 22.8897 37.0294 23.173L37.354 19.8483H44.9681C45.9607 19.8483 46.7653 19.0437 46.7653 18.0511C46.7653 17.0586 45.9607 16.2539 44.9681 16.2539H37.0059C35.2908 16.2539 33.8616 17.5677 33.7176 19.2768L33.2548 24.7664Z" fill="#00D2A0" stroke="#00D2A0" stroke-width="0.6"/>
</svg>
