<svg width="34" height="34" viewBox="0 0 34 34" fill="none" xmlns="http://www.w3.org/2000/svg">
<path d="M24.875 7.125H8.33203C7.60156 7.125 7 7.76953 7 8.54297V25C7 25.7734 7.60156 26.375 8.33203 26.375H24.875C25.6055 26.375 26.25 25.7734 26.25 25V8.54297C26.25 7.76953 25.6055 7.125 24.875 7.125ZM12.8008 23.625H9.96484V14.4727H12.8008V23.625ZM11.3828 13.1836C10.4375 13.1836 9.70703 12.4531 9.70703 11.5508C9.70703 10.6484 10.4375 9.875 11.3828 9.875C12.2852 9.875 13.0156 10.6484 13.0156 11.5508C13.0156 12.4531 12.2852 13.1836 11.3828 13.1836ZM23.5 23.625H20.6211V19.1562C20.6211 18.125 20.6211 16.75 19.1602 16.75C17.6562 16.75 17.4414 17.9102 17.4414 19.1133V23.625H14.6055V14.4727H17.3125V15.7188H17.3555C17.7422 14.9883 18.6875 14.2148 20.0625 14.2148C22.9414 14.2148 23.5 16.1484 23.5 18.5977V23.625Z" fill="#828282"/>
</svg>
