<svg width="38" height="38" viewBox="0 0 38 38" fill="none" xmlns="http://www.w3.org/2000/svg">
<g clip-path="url(#clip0)">
<path d="M34.2143 15.1972C34.2111 18.5234 33.2114 21.5301 31.0678 24.6627C30.6048 25.339 29.6811 25.5121 29.0045 25.0494C28.3281 24.5864 28.155 23.6624 28.6177 22.9858C30.4079 20.3699 31.2429 17.8948 31.2455 15.1974C31.238 8.45601 25.7443 2.96875 18.9997 2.96875C12.2551 2.96875 6.76173 8.45601 6.75391 15.2003C6.75912 20.5705 10.0485 24.173 13.8575 28.344C15.6094 30.2627 17.4118 32.2367 18.9997 34.5071C20.5876 32.2365 22.3903 30.2624 24.1423 28.344L24.3713 28.0932C24.9239 27.4876 25.8626 27.4447 26.4683 27.9973C27.0736 28.5502 27.1165 29.4889 26.5639 30.0945L26.3343 30.3459C24.364 32.5035 22.3268 34.7347 20.6998 37.3088C20.4278 37.7391 19.9541 38 19.445 38H18.5544C18.0453 38 17.5719 37.7391 17.2996 37.3088C15.6726 34.7347 13.6354 32.5035 11.6651 30.3459C9.65569 28.1454 7.75789 26.067 6.29671 23.6845C4.60968 20.9335 3.78806 18.1581 3.78516 15.2003C3.78979 11.1369 5.37448 7.3204 8.24727 4.45052C11.1201 1.58063 14.9388 0 18.9997 0C23.0606 0 26.8794 1.58063 29.7524 4.45052C32.6249 7.32011 34.2099 11.1366 34.2143 15.1972ZM28.2028 15.2148C28.2028 20.3304 24.0411 24.4922 18.9255 24.4922C13.8099 24.4922 9.64815 20.3304 9.64815 15.2148C9.64815 10.0993 13.8099 5.9375 18.9255 5.9375C24.0411 5.9375 28.2028 10.0993 28.2028 15.2148ZM25.2341 15.2148C25.2341 11.7364 22.4042 8.90625 18.9255 8.90625C15.4471 8.90625 12.6169 11.7364 12.6169 15.2148C12.6169 18.6933 15.4471 21.5234 18.9255 21.5234C22.4042 21.5234 25.2341 18.6933 25.2341 15.2148Z" fill="#1E5DC5"/>
</g>
<defs>
<clipPath id="clip0">
<rect width="38" height="38" fill="white"/>
</clipPath>
</defs>
</svg>
