<svg width="259" height="233" viewBox="0 0 259 233" fill="none" xmlns="http://www.w3.org/2000/svg">
<path d="M232.359 187.861C232.359 136.567 259 101.343 259 76.6261C259 51.9097 244.754 0 130.745 0C16.7373 0 0 69.8334 0 97.0192C0 224.324 232.359 278.703 232.359 187.861Z" fill="#F4F8FF"/>
<path d="M51.5 35C45.1597 35 40 29.8403 40 23.5C40 17.1597 45.1597 12 51.5 12C57.8403 12 63 17.1597 63 23.5C63 29.8403 57.8403 35 51.5 35ZM51.5 19.6667C49.3917 19.6667 47.6667 21.384 47.6667 23.5C47.6667 25.616 49.3917 27.3333 51.5 27.3333C53.6083 27.3333 55.3333 25.616 55.3333 23.5C55.3333 21.384 53.6083 19.6667 51.5 19.6667Z" fill="#D2DFF4"/>
<path d="M163.521 183.063H190.146V135.729C190.146 134.096 188.82 132.771 187.187 132.771H166.479C164.846 132.771 163.521 134.096 163.521 135.729V183.063Z" fill="#D0DFF9"/>
<path d="M119.146 109.104C117.513 109.104 116.188 110.429 116.188 112.062V183.062H142.812V112.062C142.812 110.429 141.487 109.104 139.854 109.104H119.146Z" fill="#D0DFF9"/>
<path d="M68.854 183.062H95.479V88.3958C95.479 86.7628 94.1537 85.4375 92.5207 85.4375H71.8123C70.1793 85.4375 68.854 86.7628 68.854 88.3958V183.062Z" fill="#D0DFF9"/>
<path d="M196.063 55.8542V82.4792C196.063 85.7333 193.4 88.3958 190.146 88.3958H170.917L151.688 106.146V88.3958H139.854C136.6 88.3958 133.938 85.7333 133.938 82.4792V55.8542C133.938 52.6 136.6 49.9375 139.854 49.9375H190.146C193.4 49.9375 196.063 52.6 196.063 55.8542Z" fill="#00D2A0"/>
<path d="M147.25 82.4792V55.8542C147.25 52.6 149.912 49.9375 153.167 49.9375H139.854C136.6 49.9375 133.938 52.6 133.938 55.8542V82.4792C133.938 85.7333 136.6 88.3958 139.854 88.3958H151.687C151.687 88.3958 147.25 85.7333 147.25 82.4792Z" fill="#00B58A"/>
<path d="M179.792 132.771H166.479C164.846 132.771 163.521 134.096 163.521 135.729V183.063H176.833V135.729C176.833 134.096 178.159 132.771 179.792 132.771Z" fill="#BCCFEE"/>
<path d="M132.458 109.104H119.146C117.513 109.104 116.188 110.43 116.188 112.063V183.063H129.5V112.063C129.5 110.43 130.825 109.104 132.458 109.104Z" fill="#BCCFEE"/>
<path d="M85.1248 85.4375H71.8123C70.1793 85.4375 68.854 86.7628 68.854 88.3958V183.062H82.1665V88.3958C82.1665 86.7628 83.4918 85.4375 85.1248 85.4375Z" fill="#BCCFEE"/>
<path d="M58.5 178.625H200.5V187.5H58.5V178.625Z" fill="#1E5DC5"/>
<path d="M190.146 187.5H163.521C161.071 187.5 159.083 185.512 159.083 183.063V135.729C159.083 131.653 162.402 128.333 166.479 128.333H187.187C191.264 128.333 194.583 131.653 194.583 135.729V183.063C194.583 185.512 192.595 187.5 190.146 187.5ZM167.958 178.625H185.708V137.208H167.958V178.625Z" fill="#1E5DC5"/>
<path d="M142.812 187.5H116.187C113.738 187.5 111.75 185.512 111.75 183.063V112.063C111.75 107.986 115.069 104.667 119.146 104.667H134.174V113.542H120.625V178.625H138.375V121.47H147.25V183.063C147.25 185.512 145.262 187.5 142.812 187.5Z" fill="#1E5DC5"/>
<path d="M95.479 187.5H68.854C66.4045 187.5 64.4165 185.512 64.4165 183.063V88.3958C64.4165 84.3193 67.7358 81 71.8123 81H92.5207C96.5973 81 99.9165 84.3193 99.9165 88.3958V183.063C99.9165 185.512 97.9285 187.5 95.479 187.5ZM73.2915 178.625H91.0415V89.875H73.2915V178.625Z" fill="#1E5DC5"/>
<path d="M151.688 110.583C151.084 110.583 150.48 110.459 149.907 110.211C148.297 109.501 147.25 107.909 147.25 106.146V92.8333H139.854C134.145 92.8333 129.5 88.1887 129.5 82.4792V55.8542C129.5 50.1446 134.145 45.5 139.854 45.5H190.146C195.855 45.5 200.5 50.1446 200.5 55.8542V82.4792C200.5 88.1887 195.855 92.8333 190.146 92.8333H172.65L154.699 109.406C153.859 110.181 152.782 110.583 151.688 110.583ZM139.854 54.375C139.049 54.375 138.375 55.0495 138.375 55.8542V82.4792C138.375 83.2838 139.049 83.9583 139.854 83.9583H151.688C154.137 83.9583 156.125 85.9463 156.125 88.3958V96.0106L167.905 85.1357C168.727 84.3784 169.804 83.9583 170.917 83.9583H190.146C190.95 83.9583 191.625 83.2838 191.625 82.4792V55.8542C191.625 55.0495 190.95 54.375 190.146 54.375H139.854Z" fill="#1E5DC5"/>
</svg>
