<svg width="129" height="128" viewBox="0 0 129 128" fill="none" xmlns="http://www.w3.org/2000/svg">
<path d="M19.4229 128H21.4229V100.35H44.9729L59.9729 115.35C60.4096 115.792 60.9122 116.163 61.4629 116.45C62.6459 117.078 63.9993 117.31 65.324 117.112C66.6488 116.914 67.8752 116.297 68.8228 115.35L83.8228 100.35H107.333V128H109.333V98.35H85.8029L110.803 73.35L101.803 64.35L84.5629 81.52V0H82.5629V83.52L64.3928 101.7L60.0829 97.39C64.6252 93.4377 68.2626 88.5531 70.7474 83.0687C73.2322 77.5842 74.5061 71.6288 74.4824 65.6078C74.4587 59.5868 73.1379 53.6415 70.6099 48.1769C68.0819 42.7122 64.4062 37.8564 59.8329 33.94V0H57.8329V34.87L58.1929 35.17C62.6342 38.8812 66.2148 43.5145 68.6861 48.7483C71.1573 53.982 72.46 59.6908 72.5038 65.4785C72.5476 71.2662 71.3313 76.9941 68.9395 82.2646C66.5477 87.5351 63.0376 92.222 58.6529 96L43.5429 80.85L60.7629 63.62L51.7629 54.62L29.9029 76.42C29.3196 76.9999 28.8568 77.6894 28.5409 78.4488C28.2251 79.2082 28.0625 80.0225 28.0625 80.845C28.0625 81.6675 28.2251 82.4818 28.5409 83.2412C28.8568 84.0006 29.3196 84.6901 29.9029 85.27L42.9729 98.35H19.4229V128ZM31.3329 83.86C30.5414 83.0621 30.0974 81.9838 30.0974 80.86C30.0974 79.7362 30.5414 78.6579 31.3329 77.86L51.7329 57.42L57.9328 63.62L42.0529 79.5C41.6981 79.8577 41.499 80.3412 41.499 80.845C41.499 81.3488 41.6981 81.8323 42.0529 82.19L56.6828 96.82L63.0429 103.18C63.1353 103.269 63.2357 103.349 63.3428 103.42C63.6537 103.628 64.019 103.739 64.3928 103.74C64.8923 103.72 65.368 103.522 65.7329 103.18L84.5629 84.35L101.753 67.17L107.953 73.37L67.4029 113.92C66.6062 114.714 65.5275 115.16 64.4029 115.16C63.2782 115.16 62.1995 114.714 61.4029 113.92L45.8029 98.35L31.3329 83.86Z" fill="#00D2A0"/>
</svg>
