<svg width="600" height="512" viewBox="0 0 600 512" fill="none" xmlns="http://www.w3.org/2000/svg">
<path d="M228.424 456.666L272.885 482.302L405.67 405.618" stroke="#1890FF" stroke-width="2" stroke-linecap="round" stroke-linejoin="round"/>
<path d="M361.208 379.905L405.67 405.617V420.654L272.886 497.413L215.431 464.183" stroke="#1890FF" stroke-width="2" stroke-linecap="round" stroke-linejoin="round"/>
<path d="M197.331 410.579V387.573V364.568V341.563V318.557V295.477V272.471V249.466V226.46" stroke="#1890FF" stroke-width="2" stroke-linecap="round" stroke-linejoin="round"/>
<path d="M177.428 399.076L197.33 387.574L217.233 376.071" stroke="#1890FF" stroke-width="2" stroke-linecap="round" stroke-linejoin="round"/>
<path d="M177.428 376.071L197.33 364.568L217.233 353.065" stroke="#1890FF" stroke-width="2" stroke-linecap="round" stroke-linejoin="round"/>
<path d="M177.428 353.065L197.33 341.563L217.233 330.06" stroke="#1890FF" stroke-width="2" stroke-linecap="round" stroke-linejoin="round"/>
<path d="M177.428 330.06L197.33 318.557L217.233 306.979" stroke="#1890FF" stroke-width="2" stroke-linecap="round" stroke-linejoin="round"/>
<path d="M177.428 306.979L197.33 295.477L217.233 283.974" stroke="#1890FF" stroke-width="2" stroke-linecap="round" stroke-linejoin="round"/>
<path d="M177.428 283.974L197.33 272.471L217.233 260.969" stroke="#1890FF" stroke-width="2" stroke-linecap="round" stroke-linejoin="round"/>
<path d="M177.428 260.969L197.33 249.467L217.233 237.964" stroke="#1890FF" stroke-width="2" stroke-linecap="round" stroke-linejoin="round"/>
<path d="M139.125 466.514L103 487.414" stroke="#1890FF" stroke-width="2" stroke-linecap="round" stroke-linejoin="round"/>
<path d="M461.472 45.7255V4" stroke="#1890FF" stroke-width="2" stroke-linecap="round" stroke-linejoin="round"/>
<path d="M103 487.414V211.199L461.472 4" stroke="#1890FF" stroke-width="2" stroke-linecap="round" stroke-linejoin="round"/>
<path d="M461.473 45.7251L139.125 232.024V508.239L215.431 464.108L228.499 456.589L361.208 379.905L497.523 301.115V24.8999L461.473 45.7251ZM217.234 445.162L212.878 447.643L209.273 449.748L197.331 456.665L177.429 468.167V237.963L197.331 226.46L217.234 214.958V445.162V445.162ZM357.003 138.047L461.473 77.677L469.884 72.7902V103.464L461.473 108.426L356.852 169.623L357.003 138.047ZM370.972 321.564L304.58 359.907L238.188 321.564V244.804L304.58 206.462L370.972 244.804V321.564V321.564ZM422.719 331.413L411.829 308.934L404.994 294.875L394.63 309.61L388.997 233.527L443.523 281.342L426.474 282.395L433.308 296.454L444.199 318.933L422.719 331.413Z" stroke="#1890FF" stroke-width="2" stroke-linecap="round" stroke-linejoin="round"/>
<path d="M217.233 399.077V422.082L197.331 433.585V410.579L217.233 399.077Z" stroke="#1890FF" stroke-width="2" stroke-linecap="round" stroke-linejoin="round"/>
<path d="M197.33 410.579V433.585L177.428 445.162V422.082L197.33 410.579Z" stroke="#1890FF" stroke-width="2" stroke-linecap="round" stroke-linejoin="round"/>
<path d="M217.233 422.082V445.162L197.331 456.665V433.584L217.233 422.082Z" stroke="#1890FF" stroke-width="2" stroke-linecap="round" stroke-linejoin="round"/>
<path d="M469.884 72.7903V103.464L356.852 169.623L357.002 138.047L469.884 72.7903Z" stroke="#1890FF" stroke-width="2" stroke-linecap="round" stroke-linejoin="round"/>
<path d="M469.884 121.207V174.285L434.284 195.335L434.509 141.355L469.884 121.207Z" stroke="#1890FF" stroke-width="2" stroke-linecap="round" stroke-linejoin="round"/>
<path d="M444.197 319.008L422.717 331.413L404.993 294.95L394.628 309.686L388.996 233.603L443.521 281.418L426.473 282.47L444.197 319.008Z" stroke="#1890FF" stroke-width="2" stroke-linecap="round" stroke-linejoin="round"/>
<path d="M304.58 359.907V283.147L238.188 244.805" stroke="#1890FF" stroke-width="2" stroke-linecap="round" stroke-linejoin="round"/>
<path d="M370.972 244.805L304.58 283.147" stroke="#1890FF" stroke-width="2" stroke-linecap="round" stroke-linejoin="round"/>
<path d="M287.231 293.898C284.527 289.537 281.673 285.402 277.918 281.869C274.238 278.411 269.732 275.328 264.7 274.276C259.818 273.223 254.335 274.802 251.782 279.463C249.228 284.2 249.003 289.462 249.754 294.65C250.505 299.837 252.382 304.724 254.711 309.385C256.889 313.821 260.043 318.031 263.573 321.564C267.103 325.098 271.309 328.556 276.19 329.834C278.819 330.586 281.222 330.812 283.926 330.361C286.405 329.91 288.432 328.331 290.01 326.376C293.164 322.542 293.615 316.678 293.164 311.866C292.638 306.904 291.136 301.867 289.033 297.431C288.508 296.304 287.907 295.101 287.231 293.898Z" stroke="#1890FF" stroke-width="2" stroke-linecap="round" stroke-linejoin="round"/>
<path d="M329.965 283.147C333.42 286.605 337.25 289.537 341.757 291.267C346.038 292.921 351.22 292.996 354.825 289.838C356.928 288.034 358.054 285.778 358.88 283.147" stroke="#1890FF" stroke-width="2" stroke-linecap="round" stroke-linejoin="round"/>
<path d="M279.194 283.147C275.74 286.605 271.909 289.537 267.403 291.267C263.122 292.921 257.94 292.996 254.335 289.838C252.232 288.034 251.105 285.778 250.279 283.147" stroke="#1890FF" stroke-width="2" stroke-linecap="round" stroke-linejoin="round"/>
<path d="M331.542 253.826C327.787 257.359 323.205 259.615 318.249 260.968C313.217 262.397 307.959 262.923 302.777 262.772C297.745 262.622 292.713 261.72 287.982 259.991C283.325 258.337 278.443 255.555 275.664 251.345C272.585 246.759 273.111 241.346 276.566 237.136C279.72 233.302 284.452 230.821 289.108 229.242C294.065 227.588 299.322 226.836 304.58 226.836C309.762 226.836 314.869 227.588 319.751 229.091C324.482 230.595 329.289 233.001 332.518 236.835C335.973 240.82 336.799 246.233 333.945 250.819C333.194 251.946 332.443 252.849 331.542 253.826Z" stroke="#1890FF" stroke-width="2" stroke-linecap="round" stroke-linejoin="round"/>
<path d="M317.272 305.1C321.853 306.303 326.284 308.183 330.04 311.19C333.72 314.122 336.348 318.557 335.522 323.369C335.072 326 333.645 328.256 331.842 330.211" stroke="#1890FF" stroke-width="2" stroke-linecap="round" stroke-linejoin="round"/>
<path d="M291.887 305.1C287.305 306.303 282.874 308.183 279.119 311.19C275.439 314.122 272.81 318.557 273.636 323.369C274.087 326 275.514 328.256 277.317 330.211" stroke="#1890FF" stroke-width="2" stroke-linecap="round" stroke-linejoin="round"/>
<path d="M328.914 284.274C325.384 288.184 322.605 292.544 320.277 297.281C318.023 301.791 316.521 306.904 315.996 311.941C315.695 314.422 315.77 316.903 316.221 319.309C316.672 321.714 317.348 324.346 318.925 326.225C320.502 328.18 322.455 329.909 325.008 330.435C327.637 330.962 330.04 330.811 332.594 330.06C337.476 328.706 341.756 325.474 345.286 321.94C348.891 318.406 351.971 314.196 354.299 309.685C356.627 305.099 358.58 300.213 359.331 295.1C360.082 289.763 359.932 284.65 357.528 279.763C355.125 274.952 349.567 273.298 344.61 274.275C339.503 275.253 335.147 278.335 331.392 281.793C330.491 282.62 329.665 283.447 328.914 284.274Z" stroke="#1890FF" stroke-width="2" stroke-linecap="round" stroke-linejoin="round"/>
<path d="M317.272 261.27C315.92 256.834 315.319 251.797 316.146 247.211C316.972 242.399 319.3 238.114 324.032 236.234C326.435 235.257 329.364 235.483 331.842 236.159" stroke="#1890FF" stroke-width="2" stroke-linecap="round" stroke-linejoin="round"/>
<path d="M291.887 261.27C293.239 256.834 293.84 251.797 293.014 247.211C292.188 242.399 289.859 238.114 285.128 236.234C282.724 235.257 279.795 235.483 277.317 236.159" stroke="#1890FF" stroke-width="2" stroke-linecap="round" stroke-linejoin="round"/>
<path d="M471.236 284.5C471.086 287.583 469.96 290.515 468.007 292.921C466.355 295.026 463.05 297.958 460.121 296.605C456.966 295.101 457.868 290.365 458.844 287.808C459.896 285.027 461.848 282.32 464.402 280.741C465.754 279.914 467.556 279.313 469.133 280.065C470.786 280.967 471.161 282.846 471.236 284.5Z" stroke="#1890FF" stroke-width="2" stroke-linecap="round" stroke-linejoin="round"/>
<path d="M471.236 246.158C471.085 249.241 469.959 252.173 468.006 254.578C466.354 256.683 463.199 259.465 460.345 258.337C457.041 257.059 457.792 252.248 458.768 249.616C459.82 246.76 461.772 243.978 464.401 242.399C465.753 241.572 467.555 240.971 469.133 241.722C470.785 242.625 471.16 244.504 471.236 246.158Z" stroke="#1890FF" stroke-width="2" stroke-linecap="round" stroke-linejoin="round"/>
<path d="M471.237 207.816C471.086 210.898 469.96 213.83 468.007 216.236C466.355 218.341 463.2 221.198 460.271 219.995C457.042 218.642 457.793 213.981 458.769 211.424C459.821 208.568 461.773 205.786 464.327 204.207C465.679 203.38 467.556 202.703 469.134 203.53C470.786 204.282 471.161 206.087 471.237 207.816Z" stroke="#1890FF" stroke-width="2" stroke-linecap="round" stroke-linejoin="round"/>
<path d="M272.886 482.302V497.413" stroke="#1890FF" stroke-width="2" stroke-linecap="round" stroke-linejoin="round"/>
</svg>
