<svg width="128" height="128" viewBox="0 0 128 128" fill="none" xmlns="http://www.w3.org/2000/svg">
<path fill-rule="evenodd" clip-rule="evenodd" d="M60.2801 72.48H22.1001L22.3901 73.7C24.5402 82.9216 29.6925 91.1678 37.0376 97.1435C44.3828 103.119 53.5048 106.486 62.971 106.715C72.4371 106.944 81.7112 104.022 89.3366 98.4081C96.962 92.7944 102.507 84.8069 105.1 75.7L105.18 75.46C105.425 74.8177 105.58 74.1447 105.64 73.46H103.64C103.557 73.9234 103.433 74.3785 103.27 74.82L103.18 75.12C100.743 83.7005 95.5571 91.2438 88.4181 96.5914C81.279 101.939 72.5819 104.795 63.6624 104.721C54.7429 104.648 46.0943 101.648 39.0447 96.1828C31.9952 90.7178 26.9346 83.0897 24.6401 74.47H59.9201V74.92C59.9205 76.4714 60.3687 77.9896 61.2107 79.2926C62.0528 80.5955 63.2529 81.6278 64.6672 82.2654C66.0814 82.9031 67.6497 83.119 69.1836 82.8874C70.7176 82.6558 72.1521 81.9863 73.315 80.9595C74.4779 79.9327 75.3197 78.592 75.7395 77.0986C76.1592 75.6051 76.139 74.0222 75.6814 72.5399C75.2237 71.0576 74.3479 69.7389 73.1593 68.742C71.9706 67.7451 70.5195 67.1125 68.9801 66.92V0.0900269H67.0001V66.94C65.4674 67.124 64.0197 67.7438 62.8286 68.7257C61.6375 69.7076 60.753 71.0106 60.2801 72.48ZM68.0001 68.87C69.1987 68.87 70.3703 69.2254 71.3669 69.8913C72.3634 70.5572 73.1401 71.5036 73.5988 72.611C74.0575 73.7183 74.1775 74.9368 73.9437 76.1123C73.7098 77.2878 73.1327 78.3676 72.2852 79.2151C71.4377 80.0626 70.3579 80.6398 69.1824 80.8736C68.0068 81.1074 66.7884 80.9874 65.681 80.5287C64.5737 80.0701 63.6273 79.2933 62.9614 78.2968C62.2955 77.3002 61.9401 76.1286 61.9401 74.93C61.9427 73.3236 62.5821 71.7838 63.7179 70.6479C64.8538 69.512 66.3937 68.8727 68.0001 68.87ZM61 23.3801L60.85 21.3801C59.5 21.4801 58.13 21.6501 56.79 21.8801L57.13 23.8801C58.4108 23.6482 59.7024 23.4813 61 23.3801ZM79.3302 24.1C78.3302 23.71 77.2702 23.35 76.2302 23.04L75.6602 25C76.6602 25.29 77.6602 25.63 78.6602 26L79.3302 24.1ZM90.01 30.09C91.13 30.92 92.13 31.81 93.13 32.73L91.79 34.2C90.79 33.32 89.79 32.47 88.79 31.68L90.01 30.09ZM98.55 38.8501C97.76 37.7601 96.89 36.6901 95.99 35.6601L94.49 37.0001C95.35 38.0001 96.18 39.0001 96.94 40.0001L98.55 38.8501ZM102.72 45.89C102.14 44.66 101.5 43.44 100.8 42.27L99.0801 43.27C99.7401 44.39 100.36 45.55 100.91 46.72L102.72 45.89ZM105.46 53.6001L103.52 54.0901C103.2 52.8301 102.82 51.5701 102.39 50.3501L104.27 49.6801C104.73 50.9601 105.13 52.2801 105.46 53.6001ZM11.04 72.4799H13.04V74.4799H11.04V72.4799ZM11.04 81.9601H13.04V83.9601H11.04V81.9601ZM11.04 91.4301H13.04V93.4301H11.04V91.4301ZM11.04 100.91H13.04V102.91H11.04V100.91ZM13.04 110.39H11.04V112.39H13.04V110.39ZM19.1501 110.39H17.1501V112.39H19.1501V110.39ZM23.26 110.39H25.26V112.39H23.26V110.39ZM31.3801 110.39H29.3801V112.39H31.3801V110.39ZM35.49 110.39H37.49V112.39H35.49V110.39ZM43.6001 110.39H41.6001V112.39H43.6001V110.39ZM47.72 110.39H49.72V112.39H47.72V110.39ZM55.8301 110.39H53.8301V112.39H55.8301V110.39ZM59.9399 110.39H61.9399V112.39H59.9399V110.39ZM68.0601 110.39H66.0601V112.39H68.0601V110.39ZM72.1699 110.39H74.1699V112.39H72.1699V110.39ZM80.28 110.39H78.28V112.39H80.28V110.39ZM84.4001 110.39H86.4001V112.39H84.4001V110.39ZM92.51 110.39H90.51V112.39H92.51V110.39ZM96.6201 110.39H98.6201V112.39H96.6201V110.39ZM104.74 110.39H102.74V112.39H104.74V110.39ZM108.85 110.39H110.85V112.39H108.85V110.39ZM116.96 110.39H114.96V112.39H116.96V110.39ZM19.1501 100.91H17.1501V102.91H19.1501V100.91ZM23.26 100.91H25.26V102.91H23.26V100.91ZM31.3801 100.91H29.3801V102.91H31.3801V100.91ZM35.49 100.91H37.49V102.91H35.49V100.91ZM92.51 100.91H90.51V102.91H92.51V100.91ZM96.6201 100.91H98.6201V102.91H96.6201V100.91ZM104.74 100.91H102.74V102.91H104.74V100.91ZM108.85 100.91H110.85V102.91H108.85V100.91ZM116.96 100.91H114.96V102.91H116.96V100.91ZM19.1501 91.4301H17.1501V93.4301H19.1501V91.4301ZM23.26 91.4301H25.26V93.4301H23.26V91.4301ZM104.74 91.4301H102.74V93.4301H104.74V91.4301ZM108.85 91.4301H110.85V93.4301H108.85V91.4301ZM116.96 91.4301H114.96V93.4301H116.96V91.4301ZM19.1501 81.9601H17.1501V83.9601H19.1501V81.9601ZM108.85 81.9601H110.85V83.9601H108.85V81.9601ZM116.96 81.9601H114.96V83.9601H116.96V81.9601ZM116.96 72.4799H114.96V74.4799H116.96V72.4799ZM106.34 69.8601L104.34 69.5901C104.52 68.3001 104.64 67.0001 104.7 65.7001L106.7 65.7801C106.65 67.1401 106.52 68.5101 106.34 69.8601ZM83.0799 25.7499C84.2899 26.3599 85.4899 27.0299 86.6399 27.7499L85.5799 29.4499C84.4799 28.7599 83.3399 28.1199 82.1799 27.5399L83.0799 25.7499ZM104.67 61.8001L106.67 61.6901C106.6 60.3301 106.46 58.9601 106.26 57.6201L104.26 57.9201C104.462 59.2056 104.599 60.5006 104.67 61.8001ZM27.2801 42.1201L29.0001 43.1201C28.3501 44.2301 27.7401 45.3901 27.1601 46.5901L25.3501 45.7301C25.9401 44.5001 26.5901 43.2901 27.2801 42.1201ZM38.16 29.9999L39.37 31.5499C38.34 32.3399 37.33 33.1799 36.38 34.0999L35.02 32.6299C36.02 31.7099 37.08 30.8199 38.16 29.9999ZM53.2901 24.6899L52.7601 22.7599C51.4501 23.1199 50.1401 23.5399 48.8701 24.0199L49.5801 25.8899C50.7901 25.4399 52.0001 24.9999 53.2901 24.6899ZM23.8001 49.4799L25.6801 50.1599C25.2401 51.3799 24.8501 52.6299 24.5301 53.8899L22.5901 53.3899C22.9301 52.0699 23.3401 50.7599 23.8001 49.4799ZM33.6401 36.84L32.1501 35.5099C31.2355 36.5245 30.3743 37.5859 29.5701 38.6899L31.1801 39.8699C31.3147 39.6992 31.4483 39.529 31.5813 39.3594L31.5837 39.3564L31.588 39.3509L31.5894 39.349L31.5921 39.3456L31.5938 39.3434C32.2666 38.4859 32.9257 37.6457 33.6401 36.84ZM21.7501 57.4001L23.7501 57.7101C23.5415 58.9953 23.398 60.2903 23.3201 61.5901L21.3201 61.4701C21.4001 60.1101 21.5501 58.7401 21.7501 57.4001ZM23.63 69.3799C23.4506 68.0901 23.3405 66.7916 23.3 65.4899L21.3 65.5699C21.3476 66.935 21.4644 68.2967 21.65 69.6499L23.63 69.3799ZM45.11 25.6601L46 27.4501C44.84 28.0001 43.69 28.6601 42.59 29.3601L41.53 27.6601C42.69 26.9301 43.9 26.2601 45.11 25.6601ZM54.7153 95.853L60.0287 86.6462L61.761 87.6459L56.4476 96.8527L54.7153 95.853ZM56.4535 52.989L54.7214 53.989L60.0364 63.1948L61.7685 62.1948L56.4535 52.989ZM74.1504 62.1857L79.4638 52.979L81.196 53.9787L75.8826 63.1854L74.1504 62.1857ZM55.2265 81.139L50.4282 83.9081L51.4279 85.6404L56.2262 82.8712L55.2265 81.139ZM50.4272 65.9516L51.4269 64.2194L56.2252 66.9885L55.2255 68.7208L50.4272 65.9516ZM68.96 89.05H66.96V94.59H68.96V89.05ZM79.6863 66.9975L84.4841 64.2275L85.4841 65.9595L80.6863 68.7295L79.6863 66.9975ZM75.8839 86.6679L74.1519 87.6679L79.4669 96.8738L81.1989 95.8738L75.8839 86.6679ZM79.6953 82.8659L80.6953 81.1339L85.4931 83.9039L84.4931 85.6359L79.6953 82.8659Z" fill="#00D2A0"/>
</svg>
