<svg width="65" height="64" viewBox="0 0 65 64" fill="none" xmlns="http://www.w3.org/2000/svg">
<g clip-path="url(#clip0_119221:170980)">
<path d="M8.64868 38.1496L13.11 36.029L16.1852 37.3027L17.8401 41.9569H24.4507L26.1058 37.3026L29.1809 36.029L33.6422 38.1496L38.3166 33.4753L36.1959 29.0138L37.4695 25.9388L42.1239 24.2838V17.6733L37.4696 16.0182L36.196 12.9432L38.3168 8.48169L33.6424 3.80731L29.181 5.92795L26.1059 4.65434L24.4508 0H17.8403L16.1852 4.65434L13.11 5.92795L8.64868 3.80731L3.97418 8.48169L6.09495 12.9432L4.82133 16.0182L0.166992 17.6731V24.2837L4.82133 25.9388L6.09495 29.0138L3.97418 33.4753L8.64868 38.1496ZM2.04566 22.958V18.9991L6.23747 17.5084L8.15021 12.8907L6.2401 8.87258L9.03957 6.07324L13.0577 7.98322L17.6753 6.07048L19.166 1.87867H23.1248L24.6155 6.07036L29.2331 7.98309L33.2512 6.07311L36.0507 8.87245L34.1406 12.8906L36.0533 17.5083L40.2453 18.999V22.9578L36.0535 24.4485L34.1407 29.0663L36.0508 33.0844L33.2514 35.8837L29.2333 33.9737L24.6156 35.8865L23.125 40.0783H19.1661L17.6754 35.8866L13.0578 33.9739L9.0397 35.8838L6.2401 33.0844L8.15021 29.0663L6.23747 24.4485L2.04566 22.958Z" fill="#1890FF"/>
<path d="M21.1454 31.9373C27.1882 31.9373 32.1043 27.0212 32.1043 20.9784C32.1043 14.9356 27.1882 10.0195 21.1454 10.0195C15.1026 10.0195 10.1865 14.9356 10.1865 20.9784C10.1865 27.0212 15.1026 31.9373 21.1454 31.9373ZM12.1137 20.0391C12.2995 18.2388 13.0144 16.5936 14.0985 15.2601L15.5217 16.6832L16.8502 15.3548L15.427 13.9317C16.7605 12.8474 18.4057 12.1327 20.206 11.9468V13.9647H22.0846V11.9467C23.8849 12.1325 25.5301 12.8474 26.8636 13.9315L25.4404 15.3547L26.7689 16.683L28.1921 15.26C29.2763 16.5935 29.9911 18.2387 30.1769 20.039H28.1591V21.9176H30.1772C29.9913 23.7179 29.2764 25.3631 28.1923 26.6966L26.7692 25.2736L25.4407 26.6019L26.8638 28.0251C25.5304 29.1093 23.8852 29.8241 22.0849 30.0099V27.9921H20.2062V30.0102C18.406 29.8243 16.7607 29.1094 15.4273 28.0253L16.8504 26.6022L15.5219 25.2738L14.0988 26.6969C13.0144 25.3632 12.2997 23.718 12.1137 21.9178H14.1317V20.0391H12.1137Z" fill="#1890FF"/>
<path d="M24.5651 23.0696L22.0847 20.5894V16.2191H20.2061V21.3674L23.2365 24.398L24.5651 23.0696Z" fill="#1890FF"/>
<path d="M64.1668 34.2544V28.3053H54.7734V64H64.1668V36.1331H62.2881V62.1213H56.6521V30.184H62.2881V34.2544H64.1668Z" fill="#1890FF"/>
<path d="M42.249 64H51.6424V48.6575H49.7637V62.1213H44.1277V43.9608H49.7637V46.7788H51.6424V42.0822H42.249V64Z" fill="#1890FF"/>
<path d="M29.7246 63.9999H39.118V56.1721H37.2393V62.1213H31.6033V51.4755H37.2393V54.2935H39.118V49.5968H29.7246V63.9999Z" fill="#1890FF"/>
<path d="M17.2002 64.0002H26.5935V59.1782H24.7149V62.1215H19.0789V55.233H24.7149V57.2996H26.5935V53.3544H17.2002V64.0002Z" fill="#1890FF"/>
<path d="M4.67578 63.9999H14.0691V55.859H4.67578V63.9999ZM6.55445 57.7377H12.1905V62.1212H6.55445V57.7377Z" fill="#1890FF"/>
<path d="M4.98926 51.2251C5.62412 51.2251 6.266 51.2148 6.89723 51.1946L6.83712 49.3169C6.2258 49.3366 5.60408 49.3465 4.98926 49.3465V51.2251Z" fill="#1890FF"/>
<path d="M8.80323 51.1027C9.43559 51.0621 10.0756 51.0105 10.7057 50.9494L10.5246 49.0795C9.91452 49.1386 9.29494 49.1884 8.68262 49.2279L8.80323 51.1027Z" fill="#1890FF"/>
<path d="M12.3604 48.8715L12.6023 50.7345C23.6748 49.2967 34.0612 44.7262 42.6385 37.5171C50.4806 30.9261 56.4237 22.466 59.9368 12.9341L61.8589 17.5801L63.5949 16.8619L60.3631 9.05017L52.5512 12.2821L53.2694 14.018L58.3036 11.9352C51.1441 31.7458 33.3219 46.1495 12.3604 48.8715V48.8715Z" fill="#1890FF"/>
<path d="M20.2061 7.51465H22.0847V9.39332H20.2061V7.51465Z" fill="#1890FF"/>
<path d="M10.0723 12.4899L11.4005 11.1616L12.7287 12.4899L11.4005 13.8181L10.0723 12.4899Z" fill="#1890FF"/>
<path d="M6.42969 21.2916H8.30836V23.1703H6.42969V21.2916Z" fill="#1890FF"/>
<path d="M10.0703 31.9706L11.3985 30.6424L12.7268 31.9706L11.3985 33.2988L10.0703 31.9706Z" fill="#1890FF"/>
<path d="M20.2061 35.0685H22.0847V36.9472H20.2061V35.0685Z" fill="#1890FF"/>
<path d="M29.5527 31.9745L30.881 30.6463L32.2092 31.9745L30.881 33.3027L29.5527 31.9745Z" fill="#1890FF"/>
<path d="M33.9834 21.2916H35.8621V23.1703H33.9834V21.2916Z" fill="#1890FF"/>
<path d="M29.5547 12.4911L30.8829 11.1629L32.2111 12.4911L30.8829 13.8193L29.5547 12.4911Z" fill="#1890FF"/>
</g>
<defs>
<clipPath id="clip0_119221:170980">
<rect width="64" height="64" fill="white" transform="translate(0.166992)"/>
</clipPath>
</defs>
</svg>
