<svg width="263" height="263" viewBox="0 0 263 263" fill="none" xmlns="http://www.w3.org/2000/svg">
<path d="M64.0079 34.3048C112.88 34.3048 146.442 9 169.991 9C193.541 9 243 22.5317 243 130.821C243 239.109 176.464 255 150.561 255C29.2664 255.007 -22.5454 34.3048 64.0079 34.3048Z" fill="#F4F8FF"/>
<path d="M223 67.7812C223 49.1542 207.846 34 189.219 34C170.592 34 155.438 49.1542 155.438 67.7812C155.438 85.1676 168.641 99.5261 185.547 101.362V136.078H170.492C168.465 136.078 166.82 137.722 166.82 139.75C166.82 141.778 168.465 143.422 170.492 143.422H189.219C191.246 143.422 192.891 141.778 192.891 139.75V101.362C209.797 99.5261 223 85.1676 223 67.7812ZM189.219 94.2188C174.641 94.2188 162.781 82.359 162.781 67.7812C162.781 53.2035 174.641 41.3438 189.219 41.3438C203.796 41.3438 215.656 53.2035 215.656 67.7812C215.656 82.359 203.796 94.2188 189.219 94.2188Z" fill="#00D2A0"/>
<path d="M197.176 58.5017L186.406 69.2717L181.261 64.127C179.827 62.6931 177.503 62.6931 176.068 64.127C174.634 65.5609 174.634 67.8859 176.068 69.3202L183.809 77.0612C184.498 77.7497 185.432 78.1367 186.405 78.1367C187.379 78.1367 188.313 77.7497 189.002 77.0612L202.368 63.6945C203.802 62.2606 203.802 59.9356 202.368 58.5017C200.934 57.0675 198.61 57.0675 197.176 58.5017Z" fill="#00D2A0"/>
<path d="M80.8692 55.6927C79.435 54.2588 77.1107 54.2588 75.6761 55.6927L68.7806 62.5885L61.8852 55.6927C60.4514 54.2588 58.1271 54.2588 56.6921 55.6927C55.2582 57.1266 55.2582 59.4516 56.6921 60.8855L63.5879 67.7813L56.6921 74.677C55.2582 76.1109 55.2582 78.4359 56.6921 79.8698C57.4092 80.5869 58.3489 80.9453 59.2885 80.9453C60.2281 80.9453 61.1677 80.5866 61.8849 79.8698L68.7806 72.974L75.6761 79.8694C76.3932 80.5866 77.3328 80.9449 78.2724 80.9449C79.2121 80.9449 80.1517 80.5862 80.8688 79.8694C82.3027 78.4356 82.3027 76.1105 80.8688 74.6767L73.9734 67.7813L80.8692 60.8855C82.3031 59.4512 82.3031 57.1266 80.8692 55.6927Z" fill="#1E5DC5"/>
<path d="M152.03 158.844H147.257C152.292 154.027 155.438 147.251 155.438 139.75V122.841C155.438 108.263 143.578 96.4036 129 96.4036C114.422 96.4036 102.562 108.263 102.562 122.841V139.75C102.562 147.251 105.708 154.027 110.743 158.844H105.97C85.059 158.844 68.0469 175.856 68.0469 196.767V218.328C68.0469 220.356 69.6911 222 71.7188 222H186.281C188.309 222 189.953 220.356 189.953 218.328V196.767C189.953 175.856 172.941 158.844 152.03 158.844Z" fill="#D0DFF9"/>
<path d="M152.03 158.844H147.257C152.292 154.027 155.438 147.251 155.438 139.75V122.841C155.438 108.263 143.578 96.4036 129 96.4036C114.422 96.4036 102.562 108.263 102.562 122.841V139.75C102.562 147.251 105.708 154.027 110.743 158.844H105.97C85.059 158.844 68.0469 175.856 68.0469 196.767V218.328C68.0469 220.356 69.6911 222 71.7188 222H186.281C188.309 222 189.953 220.356 189.953 218.328V196.767C189.953 175.856 172.941 158.844 152.03 158.844ZM129 178.672C131.028 178.672 132.672 177.028 132.672 175V166.188H146.542L129 208.702L111.458 166.188H125.328V175C125.328 177.028 126.972 178.672 129 178.672ZM129 103.747C139.528 103.747 148.094 112.313 148.094 122.841V122.878H148.078C142.001 122.878 136.099 121.117 131.011 117.787C129.789 116.988 128.211 116.988 126.99 117.787C121.901 121.117 115.999 122.878 109.922 122.878H109.906V122.841C109.906 112.313 118.472 103.747 129 103.747ZM109.906 139.75V130.222H109.922C116.643 130.222 123.191 128.479 129 125.163C134.809 128.479 141.357 130.222 148.078 130.222H148.094V139.75C148.094 150.278 139.528 158.844 129 158.844C118.472 158.844 109.906 150.278 109.906 139.75ZM75.3906 196.767C75.3906 180.719 87.8199 167.528 103.556 166.291L123.513 214.656H75.3906V196.767ZM182.609 214.656H134.487L154.444 166.292C170.18 167.528 182.609 180.719 182.609 196.767V214.656Z" fill="#1E5DC5"/>
<path d="M87.5078 143.422C89.6107 143.422 91.3009 141.654 91.1727 139.523C91.0548 137.561 89.3298 136.078 87.3642 136.078H72.4726C72.4619 136.078 72.4531 136.069 72.4531 136.059V101.363C82.7388 100.259 91.9133 94.5496 97.4766 85.6148C98.5484 83.8934 98.0215 81.629 96.3005 80.5572C94.5784 79.485 92.3147 80.0123 91.2425 81.7333C86.3743 89.5511 77.9778 94.2188 68.7812 94.2188C54.2035 94.2188 42.3438 82.359 42.3438 67.7812C42.3438 53.2035 54.2035 41.3438 68.7812 41.3438C77.9775 41.3438 86.3739 46.0111 91.2421 53.8289C92.3143 55.5502 94.5787 56.0768 96.3001 55.005C98.0215 53.9331 98.548 51.6687 97.4759 49.947C91.2583 39.9617 80.5312 34 68.7812 34C50.1542 34 35 49.1542 35 67.7812C35 85.1676 48.2033 99.5261 65.1094 101.362V139.731C65.1094 141.769 66.7621 143.422 68.8007 143.422H87.5078Z" fill="#1E5DC5"/>
<path d="M95.2188 67.7812C95.2188 68.747 95.6113 69.6943 96.2946 70.3773C96.9779 71.0602 97.9249 71.4531 98.8906 71.4531C99.8563 71.4531 100.804 71.0602 101.486 70.3773C102.17 69.6943 102.562 68.747 102.562 67.7812C102.562 66.8155 102.17 65.8682 101.486 65.1852C100.804 64.5023 99.8563 64.1094 98.8906 64.1094C97.9249 64.1094 96.9776 64.5023 96.2946 65.1852C95.6113 65.8682 95.2188 66.8155 95.2188 67.7812Z" fill="#1E5DC5"/>
</svg>
