<svg width="65" height="64" viewBox="0 0 65 64" fill="none" xmlns="http://www.w3.org/2000/svg">
<g clip-path="url(#clip0_119221:171236)">
<path fill-rule="evenodd" clip-rule="evenodd" d="M29.7367 5.02796C35.0654 3.96803 40.5886 4.51202 45.6081 6.59115C50.6276 8.67028 54.9178 12.1912 57.9362 16.7085C60.9546 21.2259 62.5657 26.537 62.5657 31.97C62.5657 37.403 60.9546 42.714 57.9362 47.2314C54.9178 51.7488 50.6276 55.2697 45.6081 57.3488C40.5887 59.4279 35.0654 59.9719 29.7367 58.912C24.4081 57.8521 19.5135 55.2358 15.6717 51.3941C15.3056 51.028 14.712 51.028 14.3459 51.3941C13.9798 51.7602 13.9798 52.3538 14.3459 52.7199C18.4499 56.8239 23.6786 59.6187 29.371 60.751C35.0633 61.8833 40.9636 61.3021 46.3256 59.0811C51.6877 56.86 56.2707 53.0988 59.4952 48.2731C62.7197 43.4474 64.4407 37.7738 64.4407 31.97C64.4407 26.1661 62.7196 20.4926 59.4952 15.6669C56.2707 10.8411 51.6877 7.07992 46.3256 4.85888C40.9636 2.63784 35.0633 2.05671 29.3709 3.18899C23.6786 4.32127 18.4498 7.11609 14.3459 11.22C13.9798 11.5862 13.9798 12.1798 14.3459 12.5459C14.712 12.912 15.3056 12.912 15.6717 12.5459C19.5135 8.70414 24.4081 6.08789 29.7367 5.02796ZM43.9361 22.5177C43.6665 22.2537 43.2648 22.1772 42.9169 22.3234C42.569 22.4697 42.3428 22.8103 42.3428 23.1876V26.0001H1.53027C1.01251 26.0001 0.592773 26.4199 0.592773 26.9376V36.9376C0.592773 37.4554 1.01251 37.8751 1.53027 37.8751H42.3428V40.6876C42.3428 41.065 42.569 41.4056 42.9169 41.5519C43.2648 41.6981 43.6665 41.6215 43.9361 41.3575L52.8736 32.6075C53.0538 32.4312 53.1553 32.1897 53.1553 31.9376C53.1553 31.6855 53.0538 31.4441 52.8736 31.2677L43.9361 22.5177ZM44.2178 26.9376V25.4175L50.8777 31.9376L44.2178 38.4578V36.9376C44.2178 36.4199 43.798 36.0001 43.2803 36.0001H2.46777V27.8751H43.2803C43.798 27.8751 44.2178 27.4554 44.2178 26.9376Z" fill="#1890FF"/>
</g>
<defs>
<clipPath id="clip0_119221:171236">
<rect width="64" height="64" fill="white" transform="translate(0.166992)"/>
</clipPath>
</defs>
</svg>
