<svg width="65" height="64" viewBox="0 0 65 64" fill="none" xmlns="http://www.w3.org/2000/svg">
<g clip-path="url(#clip0_119221:170892)">
<path fill-rule="evenodd" clip-rule="evenodd" d="M8.09865 39.8065C11.5165 37.8604 18.409 35.7823 26.2475 39.8641H36.3283C37.4324 39.8641 38.8085 40.1057 40.041 40.7032C40.9901 41.1633 41.8989 41.8591 42.4979 42.8561C42.8907 42.6511 43.4046 42.3835 44.0167 42.0658C45.5009 41.2956 47.5623 40.2315 49.8714 39.0557C52.4617 37.7368 54.6104 38.056 56.1687 38.8253C57.4919 39.4786 58.3749 40.4634 58.6613 40.7827C58.6982 40.8239 58.7253 40.854 58.742 40.871C59.0142 41.1458 59.2332 41.47 59.3326 41.8525C59.4352 42.2474 59.3884 42.6199 59.2661 42.9429C59.0497 43.5144 58.5661 43.9854 58.2253 44.3114C58.1608 44.3732 58.0254 44.4778 57.9156 44.5626C57.7762 44.6704 57.5822 44.8183 57.3411 45.0003C56.8586 45.3648 56.1819 45.8701 55.3644 46.4723C53.7295 47.6764 51.527 49.2708 49.182 50.9034C46.8386 52.5348 44.3447 54.2099 42.1287 55.5729C39.9442 56.9165 37.9373 58.0158 36.6036 58.4255C34.3991 59.1027 32.6798 59.3291 31.2206 59.3349C29.9231 59.3401 28.85 59.1689 27.9048 59.0182C27.7951 59.0007 27.6871 58.9834 27.5807 58.9668C25.8959 58.7033 17.5454 56.995 11.4142 55.7407C10.2773 55.5081 9.21666 55.2911 8.28902 55.1019V55.9383C8.28902 56.7101 7.66331 57.3358 6.89146 57.3358H2.03134C1.2595 57.3358 0.633789 56.7101 0.633789 55.9383V40.5111C0.633789 39.7393 1.25949 39.1136 2.03134 39.1136H6.89146C7.40634 39.1136 7.85619 39.392 8.09865 39.8065ZM6.41401 40.9886H2.50879V55.4608H6.41401V40.9886ZM8.38751 53.2083C9.3992 53.4146 10.5804 53.6562 11.8531 53.9166C17.9834 55.1706 26.2345 56.8585 27.8704 57.1143C27.9799 57.1314 28.0888 57.1487 28.1974 57.166C29.148 57.317 30.0756 57.4645 31.2131 57.4599C32.4696 57.4549 34.0058 57.2621 36.053 56.6332C37.1264 56.3034 38.942 55.3316 41.1464 53.9758C43.3195 52.6392 45.7809 50.9865 48.1107 49.3645C50.4389 47.7437 52.6275 46.1594 54.2524 44.9626C55.0648 44.3642 55.7354 43.8634 56.2111 43.5041C56.4492 43.3243 56.6372 43.1809 56.7692 43.0789C56.8377 43.026 56.8818 42.9912 56.9078 42.9708C56.9431 42.9429 56.945 42.9414 56.9293 42.9565C57.1076 42.7859 57.2464 42.6456 57.3519 42.519C57.4405 42.4127 57.4834 42.3418 57.5031 42.3008C57.4877 42.2775 57.4596 42.2406 57.4097 42.1903C57.365 42.1451 57.3114 42.0866 57.2485 42.0181C56.9081 41.647 56.2956 40.9791 55.3386 40.5066C54.2689 39.9784 52.7448 39.6967 50.7222 40.7266C48.4184 41.8997 46.3614 42.9615 44.8804 43.7301C44.1399 44.1143 43.5435 44.4252 43.1324 44.64C43.1267 44.6429 43.1211 44.6459 43.1155 44.6488C43.1458 44.9066 43.1594 45.1661 43.1658 45.41C43.1759 45.7899 43.1688 46.1958 43.1625 46.5614C43.1603 46.687 43.1582 46.8078 43.1569 46.9213C43.1494 47.5673 42.625 48.0978 41.9678 48.0978H27.7256C27.2078 48.0978 26.7881 47.6781 26.7881 47.1603C26.7881 46.6426 27.2078 46.2228 27.7256 46.2228H41.2927C41.2965 45.9635 41.2981 45.7095 41.2915 45.4597C41.279 44.9891 41.2376 44.6462 41.1683 44.4324C40.8698 43.5126 40.158 42.8436 39.2231 42.3904C38.2821 41.9342 37.1927 41.7391 36.3283 41.7391H25.781L25.5741 41.6287C17.7798 37.4693 11.0567 40.0573 8.38751 41.8268V53.2083Z" fill="#00D2A0"/>
<path fill-rule="evenodd" clip-rule="evenodd" d="M14.9479 2.71592C14.9046 7.0774 15.6617 10.3895 17.371 12.3591C18.9284 14.1535 21.4784 15.0394 25.6323 14.2294C24.0714 12.0098 22.1345 10.2049 19.7813 8.97089C19.3228 8.73043 19.146 8.16378 19.3865 7.70523C19.6269 7.24669 20.1936 7.06989 20.6521 7.31035C23.2877 8.69242 25.4219 10.6881 27.1205 13.0867C28.4986 10.2339 28.144 7.73481 26.4922 5.93775C24.5983 3.87721 20.7726 2.46706 14.9479 2.71592ZM28.2766 14.8931C30.4694 11.1717 30.394 7.41203 27.8727 4.6689C25.3388 1.91214 20.5672 0.463312 14.0833 0.884989C13.5448 0.920009 13.1051 1.35917 13.0886 1.91453C12.9454 6.74277 13.662 10.946 15.955 13.5881C18.2208 16.1988 21.7827 17.0396 26.7039 15.9185C27.571 17.4334 28.2935 19.0969 28.8815 20.8704C30.6286 26.14 31.1555 32.2943 30.7794 38.1434C30.5889 39.4273 30.4919 40.5721 30.4671 41.4903L32.3346 41.6308C32.4682 40.5519 32.5725 39.4535 32.6454 38.3432C33.0449 35.6924 33.8663 32.4078 35.3224 29.3419C38.603 30.5791 41.6302 30.2511 43.8106 28.0088C46.078 25.6769 47.1747 21.5036 46.9701 15.7757C46.9514 15.254 46.5565 14.8294 46.0518 14.7595C39.4696 13.8485 35.3237 16.3361 33.4198 19.678C32.4857 21.3175 32.113 23.133 32.2559 24.7705C32.3737 26.1203 32.8509 27.4085 33.7182 28.3509C33.3164 29.1808 32.9595 30.0246 32.6436 30.8675C32.3933 27.2102 31.7597 23.5937 30.6612 20.2803C30.0297 18.3756 29.2408 16.5609 28.2766 14.8931ZM36.1977 27.667C37.5293 25.3497 39.2582 23.2936 41.4744 21.8663C41.9097 21.5859 42.0353 21.0058 41.7549 20.5705C41.4745 20.1352 40.8944 20.0096 40.4591 20.2899C37.9988 21.8746 36.1181 24.1007 34.6927 26.5253C34.3907 26.0058 34.1891 25.3551 34.1238 24.6074C34.0148 23.3585 34.2989 21.9226 35.0489 20.6062C36.4564 18.1357 39.5888 15.9676 45.1145 16.5347C45.2011 21.7025 44.1181 25.0029 42.4663 26.7017C41.0043 28.2052 38.901 28.6308 36.1977 27.667Z" fill="#00D2A0"/>
</g>
<defs>
<clipPath id="clip0_119221:170892">
<rect width="64" height="64" fill="white" transform="translate(0.333008)"/>
</clipPath>
</defs>
</svg>
