<svg width="64" height="52" viewBox="0 0 64 52" fill="none" xmlns="http://www.w3.org/2000/svg">
<path d="M21.5 22.1158C22.8807 22.1158 24 20.9965 24 19.6158C24 18.235 22.8807 17.1158 21.5 17.1158C20.1193 17.1158 19 18.235 19 19.6158C19 20.9965 20.1193 22.1158 21.5 22.1158Z" fill="#00D2A0"/>
<path d="M64 19.1157C64 12.0124 55.4654 6.75211 52.4141 3.70161C49.3994 0.686863 43.7566 0.844738 41.4785 1.05124C38.4225 0.463738 34.9053 1.02074 32 1.99199C29.0741 1.01386 25.5665 0.466738 22.5233 1.05124C20.2463 0.844488 14.6014 0.685863 11.5859 3.70149C8.53037 6.75624 0 12.0099 0 19.1157C0 25.5307 4 29.8315 4 33.1157C4 35.9747 2.60725 37.3804 3.877 39.013C4.73475 40.1157 6.20837 40.1157 7 40.1157C8.78075 40.1157 10.3861 39.1321 11.7428 37.6809C11.8521 38.0684 11.9839 38.4606 12.143 38.8586C14.0959 43.7411 14.2882 49.7932 20.5793 51.0706C21.2729 51.22 22.0199 51.231 22.7533 51.0876C27.7016 50.9266 30.4746 50.1157 32 50.1157C33.528 50.1157 36.3001 50.9265 41.246 51.0876C41.948 51.2249 42.6524 51.2247 43.3923 51.077C49.567 50.089 50.0382 43.4057 51.857 38.8586C52.0161 38.4606 52.1479 38.0684 52.2573 37.6809C53.614 39.1321 55.2194 40.1157 57 40.1157C57.7916 40.1157 59.2653 40.1157 60.123 39.013C61.3783 37.399 60 35.9057 60 33.1157C60 29.8317 64 25.5326 64 19.1157ZM7.71588 35.8817C8.48038 32.1756 7.668 30.15 6.12625 26.7201C2.412 18.4566 3.125 16.1109 11.698 8.92424C12.7657 8.02924 13.6879 7.25611 14.4141 6.52986C14.8026 6.14124 15.3264 5.84199 15.9279 5.61299C12.124 11.2316 8.88162 14.9819 11.0767 22.6651C11.9215 25.6215 11.7704 27.9927 11.5504 30.2544C10.4984 33.084 8.89112 35.2004 7.71588 35.8817ZM28.616 46.502C29.7414 45.0114 31.2131 42.759 32 42.187C32.7884 42.7601 34.255 45.0067 35.384 46.502C32.018 45.9865 31.9665 45.9874 28.616 46.502ZM32 30.1157C33.1037 30.1186 34.451 30.3194 34.913 30.541C34.985 30.7301 35.0596 31.1804 34.9261 31.655C34.6954 32.4764 34.5241 32.1156 32 33.707C29.4859 32.1219 29.304 32.4739 29.0739 31.655C28.9405 31.1804 29.015 30.7301 29.087 30.541C29.549 30.3192 30.8962 30.1186 32 30.1157ZM48.1431 37.3729C46.1715 42.3022 46.2255 46.308 42.7894 47.1142C42.4577 47.1129 42.1351 47.1086 41.8223 47.1011C39.2136 46.2969 36.7335 40.4107 34 38.7129V37.1756C34.537 36.8319 35.3126 36.367 36.2375 35.9045C39.3805 34.3332 39.7884 29.7326 37.7573 27.7015C35.636 25.5802 28.3645 25.5796 26.2426 27.7015C24.2374 29.7067 24.5854 34.3162 27.7624 35.9045C28.6875 36.3671 29.4631 36.832 29.9999 37.1755V38.7129C27.2689 40.4092 24.7864 46.2972 22.1769 47.1012C21.8642 47.1086 21.5419 47.113 21.2106 47.1142C17.774 46.3079 17.8256 42.295 15.8569 37.3729C14.1461 33.0959 17.0188 28.9015 14.923 21.5662C13.2025 15.5446 15.5979 13.3241 19.664 7.22511C20.4362 6.06674 21.5569 5.41374 22.8005 5.08386C23.0639 5.07961 23.3168 5.02436 23.5486 4.92524C27.1481 4.33836 31.2448 5.98536 31.5123 6.05324C31.9136 6.15461 32.3162 6.12611 32.6792 5.99436C36.49 4.61761 42.0781 3.83849 44.3359 7.22511C48.3786 13.2894 50.8009 15.5322 49.0769 21.5662C46.9802 28.9046 49.8569 33.0882 48.1431 37.3729ZM57.8737 26.7202C56.3332 30.1475 55.519 32.1729 56.2841 35.8819C55.1089 35.2004 53.5016 33.084 52.4495 30.2544C52.2295 27.9927 52.0784 25.6215 52.9231 22.6651C55.1125 15.0025 51.8901 11.2536 48.0721 5.61299C48.6736 5.84199 49.1973 6.14124 49.5859 6.52974C50.3123 7.25611 51.2344 8.02911 52.302 8.92411C60.8744 16.1104 61.5885 18.4557 57.8737 26.7202Z" fill="#00D2A0"/>
<path d="M42.5 22.1158C43.8807 22.1158 45 20.9965 45 19.6158C45 18.235 43.8807 17.1158 42.5 17.1158C41.1193 17.1158 40 18.235 40 19.6158C40 20.9965 41.1193 22.1158 42.5 22.1158Z" fill="#00D2A0"/>
</svg>
