<svg width="50" height="51" viewBox="0 0 50 51" fill="none" xmlns="http://www.w3.org/2000/svg">
<path d="M32.7106 24.0387C31.5273 23.9452 30.5687 22.9866 30.4756 21.8033C30.357 20.2992 31.6029 19.0529 33.107 19.1715C34.2903 19.265 35.2493 20.2236 35.3424 21.4073C35.461 22.9115 34.2152 24.1573 32.7106 24.0387ZM17.3851 24.0387C18.5684 23.9452 19.5271 22.9866 19.6201 21.8033C19.7388 20.2992 18.4929 19.0529 16.9888 19.1715C15.8054 19.265 14.8468 20.2236 14.7533 21.4073C14.6347 22.9115 15.8806 24.1573 17.3851 24.0387ZM47.4838 0.938044C45.9099 0.0644786 44.0582 0.112162 42.5308 1.06507C42.514 1.07537 42.498 1.08605 42.4816 1.09674L34.2709 6.56663H15.1638L7.60574 1.29701C7.5901 1.28671 7.57484 1.27603 7.5592 1.26573C6.05698 0.281153 4.14238 0.1999 2.56195 1.05363C0.981522 1.90736 0 3.5534 0 5.34936V25.3162C0 31.9935 2.60048 38.2713 7.32231 42.9932C12.0438 47.715 18.3216 50.3151 24.9992 50.3151C29.4338 50.3151 33.7906 49.1383 37.5988 46.912C38.53 46.3677 38.8435 45.1714 38.2992 44.2402C37.7548 43.309 36.5589 42.9955 35.6274 43.5398C32.4169 45.417 28.7415 46.4092 24.9992 46.4092C19.2509 46.4092 14.0331 44.0968 10.2249 40.3545H10.6441C11.7229 40.3545 12.5973 39.4802 12.5973 38.4014C12.5973 37.323 11.7229 36.4487 10.6441 36.4487H7.09114C6.32706 35.2242 5.68428 33.9169 5.1815 32.5424H11.816C12.8944 32.5424 13.7688 31.6681 13.7688 30.5893C13.7688 29.5105 12.8944 28.6362 11.816 28.6362H4.16832C3.99666 27.5543 3.90625 26.4454 3.90625 25.3162C3.90625 20.9442 5.15594 17.5236 8.22029 13.5086C8.87451 12.6511 8.7101 11.4254 7.85255 10.7712C6.99501 10.117 5.76935 10.2814 5.11513 11.1389C4.68216 11.7062 4.28009 12.2666 3.90587 12.8227V5.34936C3.90587 4.82369 4.26445 4.57345 4.41856 4.49029C4.57039 4.40827 4.9675 4.24882 5.40009 4.52119L13.4331 10.1219C13.7608 10.3504 14.1506 10.4729 14.55 10.4729H34.8618C35.247 10.4729 35.6239 10.3588 35.9447 10.1452L44.6175 4.36784C45.05 4.1092 45.4403 4.27133 45.5891 4.35372C45.7401 4.43765 46.0918 4.68865 46.0918 5.20745V12.8227C45.718 12.2662 45.3159 11.7058 44.883 11.1389C44.2287 10.2814 43.0031 10.1166 42.1455 10.7712C41.288 11.4254 41.1236 12.6511 41.7778 13.5086C44.8418 17.5236 46.0918 20.9442 46.0918 25.3159C46.0918 26.4366 46.0045 27.5459 45.8324 28.6362H38.1821C37.1037 28.6362 36.2293 29.5105 36.2293 30.5893C36.2293 31.6681 37.1037 32.5424 38.1821 32.5424H44.8231C44.3279 33.9001 43.6916 35.2081 42.9188 36.4483H39.3539C38.2755 36.4483 37.4008 37.3226 37.4008 38.4014C37.4008 39.4802 38.2755 40.3545 39.3539 40.3545H43.9724C44.614 40.3545 45.2145 40.0395 45.5791 39.5115C48.4699 35.3279 49.9981 30.4192 49.9981 25.3159V5.20745C49.9981 3.4073 49.0582 1.81123 47.4838 0.938044ZM21.093 40.8428C22.5925 40.8428 23.9616 40.276 24.9992 39.3463C26.0365 40.276 27.4059 40.8428 28.9051 40.8428C32.1358 40.8428 34.7645 38.2145 34.7645 34.9838C34.7645 33.905 33.8902 33.0307 32.8114 33.0307C31.7326 33.0307 30.8582 33.905 30.8582 34.9838C30.8582 36.0607 29.982 36.9366 28.9051 36.9366C27.8282 36.9366 26.952 36.0607 26.952 34.9838C26.952 34.8248 26.931 34.6714 26.8955 34.5234C28.2406 33.6804 29.961 32.2903 30.6732 30.415C30.999 29.5574 30.3726 28.6362 29.4613 28.6362H20.7325C19.8212 28.6362 19.1944 29.5574 19.5202 30.415C20.2007 32.2064 21.8006 33.6075 23.1152 34.4761C23.0713 34.6382 23.0461 34.808 23.0461 34.9838C23.0461 36.0607 22.1699 36.9366 21.093 36.9366C20.0161 36.9366 19.1399 36.0607 19.1399 34.9838C19.1399 33.905 18.2655 33.0307 17.1867 33.0307C16.1083 33.0307 15.234 33.905 15.234 34.9838C15.234 38.2145 17.8623 40.8428 21.093 40.8428Z" fill="#1E5DC5"/>
</svg>
