<svg width="65" height="64" fill="none" xmlns="http://www.w3.org/2000/svg"><g clip-path="url(#clip0_119204:171411)" fill="#1890FF"><path d="M43.01 27.45a5.366 5.366 0 001.834-4.04v-3.418a2.147 2.147 0 002.146-2.146V15.7a2.147 2.147 0 00-2.146-2.147H21.232a2.147 2.147 0 00-2.146 2.146v2.147c0 1.185.96 2.146 2.146 2.146v3.419c0 1.547.668 3.02 1.833 4.039l6.753 5.909v1.172l-6.753 5.91a5.364 5.364 0 00-1.833 4.038v3.418a2.147 2.147 0 00-2.146 2.147v2.146c0 1.185.96 2.147 2.146 2.147h23.612a2.147 2.147 0 002.146-2.147v-2.146a2.147 2.147 0 00-2.146-2.147v-3.418c0-1.548-.669-3.02-1.834-4.039l-6.752-5.91v-1.17l6.752-5.91zM21.233 15.7h23.612v2.146H21.232V15.7zm2.147 4.293h19.318v3.418a3.212 3.212 0 01-.662 1.948H24.041a3.21 3.21 0 01-.662-1.948v-3.419zM44.844 52.19H21.232v-2.146h23.612v2.146zm-10-16.043l6.753 5.91a3.22 3.22 0 011.1 2.422v3.418H23.38v-3.418a3.22 3.22 0 011.1-2.422l6.753-5.91c.466-.408.733-.997.733-1.616v-1.172c0-.62-.267-1.209-.733-1.616l-4.843-4.238h13.303l-4.843 4.238a2.147 2.147 0 00-.738 1.616v1.172c0 .62.267 1.208.733 1.616z"/><path d="M31.965 37.164h2.146v2.147h-2.146v-2.147zm0 4.294h2.146v2.146h-2.146v-2.146z"/><path d="M60.942 33.945c.003 15.1-12.008 27.463-27.102 27.897-15.095.434-27.796-11.218-28.66-26.295-.866-15.075 10.42-28.104 25.465-29.4L28.076 9.21l1.645 1.379 4.14-4.937a1.073 1.073 0 00-.133-1.512L28.791 0l-1.376 1.65 2.832 2.378C14.083 5.536 2.038 19.608 3.045 35.813c1.006 16.203 14.7 28.677 30.927 28.173C50.2 63.48 63.092 50.179 63.09 33.945h-2.147zM59.21 24.24l2.013-.743a28 28 0 00-.85-2.056l-1.953.893c.288.627.553 1.268.79 1.907zM46.791 7.221a30.21 30.21 0 00-2.013-.944l-.84 1.974c.625.266 1.256.561 1.872.88l.981-1.91z"/><path d="M60.895 32.302l2.147-.126a28.976 28.976 0 00-.215-2.214l-2.128.284a29.5 29.5 0 01.196 2.056zm-.544-4.092l2.102-.44a30.354 30.354 0 00-.537-2.16l-2.063.593c.19.658.357 1.332.498 2.007zm-5.114-11.177l1.705-1.302a29.348 29.348 0 00-1.413-1.717l-1.61 1.425c.46.511.906 1.048 1.318 1.594zm2.255 3.457l1.88-1.037a31.61 31.61 0 00-1.146-1.906l-1.798 1.173c.374.573.732 1.165 1.064 1.77zM42.697 5.48c-.71-.24-1.428-.454-2.133-.636l-.537 2.079c.655.168 1.321.367 1.981.59l.69-2.033zM38.39 4.367a31.321 31.321 0 00-2.203-.312l-.222 2.137c.682.07 1.37.167 2.044.288l.38-2.113zm12.195 5.179a30.59 30.59 0 00-1.853-1.232l-1.121 1.83c.576.352 1.156.739 1.717 1.146l1.257-1.744zm3.405 2.858a29.454 29.454 0 00-1.648-1.49l-1.38 1.643c.524.44 1.04.907 1.535 1.387l1.494-1.54z"/></g><defs><clipPath id="clip0_119204:171411"><path fill="#fff" transform="translate(.667)" d="M0 0h64v64H0z"/></clipPath></defs></svg>