<svg width="600" height="512" viewBox="0 0 600 512" fill="none" xmlns="http://www.w3.org/2000/svg">
<path d="M227.281 213.968L163.986 250.513" stroke="#00D2A0" stroke-width="2" stroke-linecap="round" stroke-linejoin="round"/>
<path d="M256.336 197.177L255.842 197.506" stroke="#00D2A0" stroke-width="2" stroke-linecap="round" stroke-linejoin="round"/>
<path d="M275.76 185.983L275.267 186.312" stroke="#00D2A0" stroke-width="2" stroke-linecap="round" stroke-linejoin="round"/>
<path d="M42.5814 320.639L41.7583 321.133" stroke="#00D2A0" stroke-width="2" stroke-linecap="round" stroke-linejoin="round"/>
<path d="M267.858 274.547L244.318 288.128" stroke="#00D2A0" stroke-width="2" stroke-linecap="round" stroke-linejoin="round"/>
<path d="M186.127 405.746L154.521 424.018" stroke="#00D2A0" stroke-width="2" stroke-linecap="round" stroke-linejoin="round"/>
<path d="M445.479 256.027L432.557 263.517" stroke="#00D2A0" stroke-width="2" stroke-linecap="round" stroke-linejoin="round"/>
<path d="M258.887 447.805L227.281 465.995" stroke="#00D2A0" stroke-width="2" stroke-linecap="round" stroke-linejoin="round"/>
<path d="M518.239 298.004L500.625 308.21" stroke="#00D2A0" stroke-width="2" stroke-linecap="round" stroke-linejoin="round"/>
<path d="M300.041 508.055L372.719 465.995L445.479 424.018L518.24 382.041L591 339.982" stroke="#00D2A0" stroke-width="2" stroke-linecap="round" stroke-linejoin="round"/>
<path d="M324.733 186.312L324.239 185.983" stroke="#00D2A0" stroke-width="2" stroke-linecap="round" stroke-linejoin="round"/>
<path d="M344.158 197.506L343.665 197.177" stroke="#00D2A0" stroke-width="2" stroke-linecap="round" stroke-linejoin="round"/>
<path d="M372.719 213.968L445.479 256.027L518.239 298.004L591 339.982" stroke="#00D2A0" stroke-width="2" stroke-linecap="round" stroke-linejoin="round"/>
<path d="M518.239 382.041L484.493 362.534" stroke="#00D2A0" stroke-width="2" stroke-linecap="round" stroke-linejoin="round"/>
<path d="M275.76 242.035L251.479 228.042" stroke="#00D2A0" stroke-width="2" stroke-linecap="round" stroke-linejoin="round"/>
<path d="M286.213 248.044L277.9 243.27" stroke="#00D2A0" stroke-width="2" stroke-linecap="round" stroke-linejoin="round"/>
<path d="M205.552 285.493L172.711 266.562" stroke="#00D2A0" stroke-width="2" stroke-linecap="round" stroke-linejoin="round"/>
<path d="M445.479 424.018L385.23 389.202" stroke="#00D2A0" stroke-width="2" stroke-linecap="round" stroke-linejoin="round"/>
<path d="M372.719 465.995L339.055 446.57" stroke="#00D2A0" stroke-width="2" stroke-linecap="round" stroke-linejoin="round"/>
<path d="M300.041 508.054L227.281 465.995L154.521 424.018L81.7603 382.041" stroke="#00D2A0" stroke-width="2" stroke-linecap="round" stroke-linejoin="round"/>
<path d="M275.76 35.4419L300.041 49.4343L324.24 35.4419" stroke="#00D2A0" stroke-width="2" stroke-linecap="round" stroke-linejoin="round"/>
<path d="M275.76 242.035L251.479 228.042" stroke="#00D2A0" stroke-width="2" stroke-linecap="round" stroke-linejoin="round"/>
<path d="M300.041 59.9696L324.24 45.9772V35.4418L300.041 21.4495L275.76 35.4418V45.9772L300.041 59.9696Z" stroke="#00D2A0" stroke-width="2" stroke-linecap="round" stroke-linejoin="round"/>
<path d="M275.76 152.978L255.842 141.455V129.685" stroke="#00D2A0" stroke-width="2" stroke-linecap="round" stroke-linejoin="round"/>
<path d="M255.842 96.1025V107.873L275.76 119.396" stroke="#00D2A0" stroke-width="2" stroke-linecap="round" stroke-linejoin="round"/>
<path d="M348.521 59.9693L324.24 73.9617L299.959 87.954V232.075L311.482 218.824H324.24V208.453L343.665 197.259L344.158 197.012L348.521 194.461V218.906H355.188L359.797 221.54L372.802 214.05V45.9769L348.521 59.9693ZM348.521 177.587L329.096 188.781L324.24 191.58V174.789L344.158 163.266L348.521 160.714V177.587ZM348.521 144.006L324.24 157.998V141.207L344.158 129.684L348.521 127.133V144.006ZM348.521 110.424L324.24 124.416V107.626L344.158 96.1848L348.521 93.6333V110.424Z" stroke="#00D2A0" stroke-width="2" stroke-linecap="round" stroke-linejoin="round"/>
<path d="M348.52 160.797V177.588L329.095 188.782L324.239 191.58V186.56L324.733 186.313L344.158 175.119V163.349L348.52 160.797Z" stroke="#00D2A0" stroke-width="2" stroke-linecap="round" stroke-linejoin="round"/>
<path d="M275.76 74.0443L251.48 60.0519L227.199 46.0596V214.05L251.48 228.043V194.461L255.842 197.012L256.336 197.259L275.76 208.453V242.035L277.9 243.27L286.214 248.043L300.041 232.076V88.0367L275.76 74.0443ZM275.76 191.58L270.904 188.782L251.48 177.588V160.797L255.842 163.348L275.76 174.872V191.58ZM275.76 157.998L251.48 144.006V127.215L255.842 129.767L275.76 141.29V157.998ZM275.76 124.417L251.48 110.424V93.6336L255.842 96.1851L275.76 107.626V124.417Z" stroke="#00D2A0" stroke-width="2" stroke-linecap="round" stroke-linejoin="round"/>
<path d="M275.76 186.56V191.58L270.904 188.782L251.479 177.588V160.797L255.842 163.349V175.119L275.267 186.313L275.76 186.56Z" stroke="#00D2A0" stroke-width="2" stroke-linecap="round" stroke-linejoin="round"/>
<path d="M255.842 196.93V225.491L251.479 228.042V194.378L255.842 196.93Z" stroke="#00D2A0" stroke-width="2" stroke-linecap="round" stroke-linejoin="round"/>
<path d="M275.76 236.932L255.842 225.491" stroke="#00D2A0" stroke-width="2" stroke-linecap="round" stroke-linejoin="round"/>
<path d="M227.281 45.9772L251.479 31.9848L275.76 17.9925L300.041 4.00012L324.24 17.9925L348.52 31.9848L372.719 45.9772" stroke="#00D2A0" stroke-width="2" stroke-linecap="round" stroke-linejoin="round"/>
<path d="M344.158 129.685V141.455L324.239 152.978" stroke="#00D2A0" stroke-width="2" stroke-linecap="round" stroke-linejoin="round"/>
<path d="M344.158 96.1025V107.873L324.239 119.396" stroke="#00D2A0" stroke-width="2" stroke-linecap="round" stroke-linejoin="round"/>
<path d="M170.653 314.795L152.381 335.866V341.216L81.7603 382.041L9 339.981L41.7586 321.133V338.747L85.3818 364.015L140.693 332.08L170.653 314.795Z" stroke="#00D2A0" stroke-width="2" stroke-miterlimit="10"/>
<path d="M591 339.982L518.24 382.041L445.479 424.018L372.719 465.995L300.041 508.055L227.281 465.995L154.521 424.018L81.7603 382.041" stroke="#00D2A0" stroke-width="2" stroke-linecap="round" stroke-linejoin="round"/>
<path d="M41.7583 170.756L85.3816 196.025L140.363 164.254L172.71 145.57" stroke="#00D2A0" stroke-width="2" stroke-linecap="round" stroke-linejoin="round"/>
<path d="M50.4829 194.461L85.3815 214.626L156.496 173.554L163.986 169.274" stroke="#00D2A0" stroke-width="2" stroke-linecap="round" stroke-linejoin="round"/>
<path d="M85.3818 228.289V214.626V196.024" stroke="#00D2A0" stroke-width="2" stroke-linecap="round" stroke-linejoin="round"/>
<path d="M85.3818 265.575V251.994V233.31" stroke="#00D2A0" stroke-width="2" stroke-linecap="round" stroke-linejoin="round"/>
<path d="M85.3818 289.28V270.678" stroke="#00D2A0" stroke-width="2" stroke-linecap="round" stroke-linejoin="round"/>
<path d="M163.986 206.642L156.496 210.922L85.3815 251.994L50.4829 231.829" stroke="#00D2A0" stroke-width="2" stroke-linecap="round" stroke-linejoin="round"/>
<path d="M163.986 243.928V257.591L160.611 259.567L136.001 273.723L87.8511 301.544L85.3818 302.943V289.28L156.496 248.208L163.986 243.928Z" stroke="#00D2A0" stroke-width="2" stroke-linecap="round" stroke-linejoin="round"/>
<path d="M163.986 177.917L172.71 182.938V201.622L163.986 206.642V215.202L172.71 220.223V238.907L163.986 243.928" stroke="#00D2A0" stroke-width="2" stroke-linecap="round" stroke-linejoin="round"/>
<path d="M172.711 294.959V312.408L170.653 314.795L140.693 332.08L85.3818 364.015V345.331L124.56 322.697L172.711 294.959Z" stroke="#00D2A0" stroke-width="2" stroke-linecap="round" stroke-linejoin="round"/>
<path d="M163.986 281.296V294.959L120.198 320.227L85.3818 340.31V326.647L108.346 313.396L156.496 285.576L163.986 281.296Z" stroke="#00D2A0" stroke-width="2" stroke-linecap="round" stroke-linejoin="round"/>
<path d="M172.71 294.959L124.56 322.696L85.3816 345.331L50.483 325.166L42.5814 320.639L41.7583 320.145L50.483 315.042V320.145L85.3816 340.31L120.198 320.227L163.986 294.959V289.855L168.348 292.407L172.71 294.959Z" stroke="#00D2A0" stroke-width="2" stroke-linecap="round" stroke-linejoin="round"/>
<path d="M85.3815 326.648V340.311L50.4829 320.145V306.482L58.796 311.256L85.3815 326.648Z" stroke="#00D2A0" stroke-width="2" stroke-linecap="round" stroke-linejoin="round"/>
<path d="M85.3816 307.964V326.648L58.7961 311.256L50.483 306.482L41.7583 301.461V282.777L50.483 287.798L74.9284 301.955L85.3816 307.964Z" stroke="#00D2A0" stroke-width="2" stroke-linecap="round" stroke-linejoin="round"/>
<path d="M172.71 257.591L164.973 262.036L163.986 262.612L140.363 276.275L92.2131 304.095L85.3816 307.964L74.9284 301.955L50.483 287.798L41.7583 282.778L50.483 277.757V282.778L79.2908 299.404L85.3816 302.943L87.8508 301.544L136.001 273.724L160.611 259.567L163.986 257.591V252.571L172.71 257.591Z" stroke="#00D2A0" stroke-width="2" stroke-linecap="round" stroke-linejoin="round"/>
<path d="M85.3815 289.28V302.943L79.2907 299.404L50.4829 282.777V269.197L85.3815 289.28Z" stroke="#00D2A0" stroke-width="2" stroke-linecap="round" stroke-linejoin="round"/>
<path d="M50.483 203.103L41.7583 208.124V226.808L50.483 231.828V240.388L41.7583 245.492V264.093L50.483 269.196" stroke="#00D2A0" stroke-width="2" stroke-linecap="round" stroke-linejoin="round"/>
<path d="M41.7583 321.133V320.146" stroke="#00D2A0" stroke-width="2" stroke-linecap="round" stroke-linejoin="round"/>
<path d="M50.483 194.461V203.103V208.124L85.3816 228.289L136.001 199.07L163.986 182.938V177.917V169.275L172.71 164.254V145.57L129.087 120.384L41.7583 170.756V189.44L50.483 194.461Z" stroke="#00D2A0" stroke-width="2" stroke-linecap="round" stroke-linejoin="round"/>
<path d="M163.986 215.202V220.223L136.001 236.438L85.3815 265.575L50.4829 245.492V240.389" stroke="#00D2A0" stroke-width="2" stroke-linecap="round" stroke-linejoin="round"/>
<path d="M172.711 257.591V276.275L163.986 281.296L156.496 285.576L108.346 313.396L85.3818 326.648V307.964L92.2134 304.095L140.364 276.275L163.986 262.612L164.974 262.036L172.711 257.591Z" stroke="#00D2A0" stroke-width="2" stroke-linecap="round" stroke-linejoin="round"/>
<path d="M172.71 220.223L163.986 225.326L140.363 238.907L89.7439 268.127L85.3816 270.678L81.0192 268.127L50.483 250.513L41.7583 245.492" stroke="#00D2A0" stroke-width="2" stroke-linecap="round" stroke-linejoin="round"/>
<path d="M172.71 182.938L163.986 187.959L140.363 201.622L89.7439 230.759L85.3816 233.31L81.0192 230.759L41.7583 208.124" stroke="#00D2A0" stroke-width="2" stroke-linecap="round" stroke-linejoin="round"/>
<path d="M500.626 302.86V353.233L484.494 362.534L457.003 378.419L413.379 403.605V353.233L431.734 332.08L457.003 302.86H500.626Z" stroke="#00D2A0" stroke-width="2" stroke-linecap="round" stroke-linejoin="round"/>
<path d="M348.521 194.378V218.824H344.158V196.93L348.521 194.378Z" stroke="#00D2A0" stroke-width="2" stroke-linecap="round" stroke-linejoin="round"/>
<path d="M500.626 302.861H457.002L410.745 276.11L337.985 234.133L333.623 231.582L324.24 226.15L311.482 218.824H355.187L359.797 221.458L432.557 263.517L500.626 302.861Z" stroke="#00D2A0" stroke-width="2" stroke-linecap="round" stroke-linejoin="round"/>
<path d="M457.002 302.861L431.734 332.08L413.379 353.233L345.228 313.89L272.468 271.913L267.858 269.197L286.213 248.043L300.041 232.076L311.482 218.824L457.002 302.861Z" stroke="#00D2A0" stroke-width="2" stroke-linecap="round" stroke-linejoin="round"/>
<path d="M297.901 419.903V470.275L258.887 447.805L186.127 405.746L152.381 386.239V335.866L297.901 419.903Z" stroke="#00D2A0" stroke-width="2" stroke-linecap="round" stroke-linejoin="round"/>
<path d="M341.525 369.448L297.901 419.903L152.381 335.866L170.653 314.795L172.711 312.408L196.004 285.494L341.525 369.448Z" stroke="#00D2A0" stroke-width="2" stroke-linecap="round" stroke-linejoin="round"/>
<path d="M385.23 369.448V419.903L341.525 445.089L339.055 446.57L297.901 470.275V419.903L341.525 369.448H385.23Z" stroke="#00D2A0" stroke-width="2" stroke-linecap="round" stroke-linejoin="round"/>
<path d="M413.379 353.233V403.605L385.23 387.391V369.448L317.079 330.187L267.858 301.708V269.197L272.468 271.913L345.228 313.89L413.379 353.233Z" stroke="#00D2A0" stroke-width="2" stroke-linecap="round" stroke-linejoin="round"/>
<path d="M385.23 369.448H341.524L196.004 285.494H239.709L244.319 288.128L267.859 301.708L385.23 369.448Z" stroke="#00D2A0" stroke-width="2" stroke-linecap="round" stroke-linejoin="round"/>
</svg>
