<svg width="128" height="128" viewBox="0 0 128 128" fill="none" xmlns="http://www.w3.org/2000/svg">
<g clip-path="url(#clip0_119357_172495)">
<path d="M120.059 112.075H76.3688C80.1428 110.547 83.6363 108.31 86.6865 105.432C86.9035 105.295 87.0905 105.114 87.235 104.903C87.2598 104.878 87.2848 104.854 87.3095 104.829C89.9935 102.165 92.1658 99.1317 93.7783 95.8452C93.8528 95.727 93.9145 95.5997 93.9615 95.4655C95.356 92.5275 96.3067 89.3935 96.779 86.1455C96.782 86.1262 96.785 86.1067 96.7875 86.0872C97.0112 84.5297 97.125 82.9462 97.1247 81.3455C97.1247 77.3507 96.4202 73.4437 95.0307 69.734C94.1922 67.4935 92.0125 65.985 89.6008 65.972C89.5903 65.9717 89.58 65.9715 89.5695 65.9715H38.9655C40.0767 64.1657 41.3827 62.4827 42.8677 60.945C43.0047 60.803 43.201 60.7215 43.4058 60.7215L72.231 60.724H72.2318C74.162 60.724 75.9765 59.9722 77.3412 58.6075C78.7062 57.2427 79.458 55.428 79.458 53.4977C79.458 49.5132 76.2163 46.2715 72.2318 46.2715H67.204C66.471 46.2715 65.8747 45.675 65.8747 44.942V38.9117H67.374C68.7413 38.9117 69.9542 38.092 70.4642 36.8232L73.1212 30.2102H73.1385C75.1747 30.2102 76.8313 28.5537 76.8313 26.5175V26.4457H120.989C124.855 26.4457 128 23.3002 128 19.434C128 15.5677 124.855 12.4222 120.989 12.4222H76.831V12.3505C76.831 10.3142 75.1745 8.65773 73.1383 8.65773H65.875V7.95248C65.875 3.59098 62.3265 0.0424806 57.9647 0.0424806H28.0352C23.6735 0.0417306 20.125 3.58998 20.125 7.95173V22.695H7.01175C5.21325 22.695 3.75 21.2317 3.75 19.4332C3.75 17.6347 5.21325 16.1715 7.01175 16.1715H13.2345C14.27 16.1715 15.1095 15.332 15.1095 14.2965C15.1095 13.261 14.27 12.4215 13.2345 12.4215H7.01175C3.1455 12.4215 0 15.567 0 19.4332C0 23.2995 3.1455 26.445 7.01175 26.445H8.58675V28.861C8.58675 33.076 12.0157 36.505 16.2307 36.505C20.4457 36.505 23.875 33.076 23.875 28.861V26.445H51.169V26.5167C51.169 28.553 52.8255 30.2095 54.8618 30.2095H54.879L57.5363 36.8225C58.046 38.0912 59.259 38.911 60.6265 38.911H62.125V44.9412C62.125 47.742 64.4035 50.0207 67.2042 50.0207H72.232C74.1488 50.0207 75.7083 51.5802 75.7083 53.497C75.7083 54.4257 75.3468 55.2985 74.69 55.9552C74.0335 56.6117 73.1605 56.9732 72.232 56.9732H72.2318L43.4062 56.9707C42.1895 56.9707 41.01 57.4695 40.1702 58.3392C37.7085 60.8885 35.6833 63.7927 34.1495 66.972C34.1265 67.0155 34.1052 67.0602 34.0855 67.1057C31.9552 71.5715 30.875 76.3617 30.875 81.3457C30.875 90.1495 34.291 98.4382 40.494 104.685C43.7085 107.922 47.4767 110.415 51.586 112.075H7.9415C3.5625 112.075 0 115.638 0 120.017C0 124.396 3.5625 127.958 7.9415 127.958H120.059C124.438 127.958 128 124.396 128 120.017C128 115.638 124.438 112.075 120.059 112.075V112.075ZM76.831 16.1715H120.988C122.787 16.1715 124.25 17.6347 124.25 19.4332C124.25 21.2317 122.787 22.695 120.988 22.695H76.831V16.1715ZM20.125 28.861C20.125 31.0082 18.378 32.755 16.2307 32.755C14.0835 32.755 12.3368 31.0082 12.3368 28.861V26.445H20.125V28.861ZM54.8618 8.65698C52.8255 8.65698 51.169 10.3135 51.169 12.3497V12.4215H30.7658C29.7303 12.4215 28.8908 13.261 28.8908 14.2965C28.8908 15.332 29.7303 16.1715 30.7658 16.1715H51.169V22.695H23.875V7.95173C23.875 5.65798 25.7412 3.79173 28.0352 3.79173H57.965C60.259 3.79173 62.1253 5.65798 62.1253 7.95173V8.65698H54.8618ZM54.919 26.4595V12.407H73.081V26.4595H54.919ZM58.9202 30.2095H69.0795L67.09 35.1612H60.9095L58.9202 30.2095ZM37.015 69.7215H89.5697C90.4387 69.7215 91.222 70.2547 91.5195 71.049C91.9998 72.3315 92.3878 73.641 92.6825 74.9712H35.315C35.7117 73.1767 36.279 71.4237 37.015 69.7215V69.7215ZM35.3153 87.7212H46.4338C47.4695 87.7212 48.3088 86.882 48.3088 85.8462C48.3088 84.8105 47.4695 83.9712 46.4338 83.9712H34.74C34.6635 83.1032 34.6247 82.2277 34.6247 81.3462C34.6247 80.464 34.663 79.5887 34.739 78.7212H93.2595C93.3362 79.59 93.3747 80.4652 93.3747 81.3452C93.3747 82.227 93.3357 83.103 93.2585 83.9712H55.2012C54.1655 83.9712 53.3262 84.8105 53.3262 85.8462C53.3262 86.882 54.1655 87.7212 55.2012 87.7212H92.679C92.2783 89.526 91.7072 91.2825 90.974 92.9712H37.007C36.2795 91.283 35.713 89.5265 35.3153 87.7212V87.7212ZM38.9577 96.7212H89.0098C87.8453 98.5985 86.4587 100.359 84.864 101.971H43.0835C41.496 100.362 40.1162 98.6007 38.9577 96.7212V96.7212ZM80.352 105.721C75.542 108.975 69.8978 110.721 63.999 110.721C63.924 110.721 63.8488 110.721 63.7743 110.72C57.9218 110.676 52.3373 108.93 47.5913 105.721H80.352ZM120.059 124.208H7.9415C5.63025 124.208 3.75 122.328 3.75 120.017C3.75 117.705 5.63025 115.825 7.9415 115.825H120.059C122.37 115.825 124.25 117.705 124.25 120.017C124.25 122.328 122.37 124.208 120.059 124.208Z" fill="#2780EB"/>
</g>
<defs>
<clipPath id="clip0_119357_172495">
<rect width="128" height="128" fill="white"/>
</clipPath>
</defs>
</svg>
