<svg width="128" height="128" viewBox="0 0 128 128" fill="none" xmlns="http://www.w3.org/2000/svg">
<path d="M115.924 88.29H114.879C114.453 86.959 113.915 85.6602 113.269 84.4032L114.008 83.664C114.8 82.873 115.235 81.8164 115.235 80.6904C115.235 79.5634 114.799 78.5068 114.008 77.7168L108.786 72.4942C107.145 70.8536 104.477 70.8536 102.837 72.4942L102.099 73.2324C100.845 72.5888 99.5456 72.0488 98.2126 71.62V70.579C98.2126 69.3462 97.6708 68.2466 96.824 67.4762V14.5284C96.824 10.8712 93.8484 7.8956 90.1912 7.8956H71.2468V6.79C71.2468 4.1484 69.0944 2 66.45 2H38.2364C35.5948 2 33.4464 4.1484 33.4464 6.79V7.8954H14.502C10.8438 7.8954 7.86816 10.871 7.86816 14.5282V112.742C7.86816 116.396 10.8438 119.369 14.502 119.369H71.335L71.8476 119.882C73.4862 121.508 76.1522 121.508 77.7968 119.876L78.5332 119.139C79.7792 119.781 81.0772 120.32 82.415 120.75V121.792C82.415 124.112 84.3026 126 86.623 126H94.0048C96.3252 126 98.2128 124.112 98.2128 121.792V120.752C99.5526 120.321 100.853 119.782 102.101 119.139L102.838 119.876C104.479 121.516 107.147 121.517 108.785 119.877L114.014 114.655C115.64 113.017 115.64 110.35 114.008 108.707L113.27 107.968C113.915 106.71 114.453 105.41 114.879 104.08H115.924C118.244 104.08 120.132 102.193 120.132 99.8722V92.4982C120.132 90.1778 118.244 88.29 115.924 88.29V88.29ZM37.4462 6.79C37.4462 6.3612 37.8076 6 38.2362 6H66.45C66.8816 6 67.2468 6.3614 67.2468 6.79V13.0078C67.2468 13.4366 66.8816 13.7978 66.45 13.7978H38.2364C37.8076 13.7978 37.4464 13.4364 37.4464 13.0078V6.79H37.4462ZM14.502 115.369C13.0498 115.369 11.8682 114.19 11.8682 112.742V14.5284C11.8682 13.0762 13.0498 11.8956 14.502 11.8956H33.4464V13.008C33.4464 15.6496 35.5948 17.798 38.2364 17.798H66.4502C69.0948 17.798 71.247 15.6496 71.247 13.008V11.8956H90.1914C91.6182 11.8956 92.8242 13.1016 92.8242 14.5284V66.3702H86.623C84.3026 66.3702 82.415 68.2578 82.415 70.5792V71.6212C81.085 72.0508 79.787 72.589 78.5352 73.2326L77.791 72.4884C76.1504 70.8594 73.4834 70.8624 71.8408 72.4952L69.6054 74.7334H45.9542C44.8498 74.7334 43.9542 75.629 43.9542 76.7334C43.9542 77.8378 44.8498 78.7334 45.9542 78.7334H65.897C65.5808 79.3304 65.3946 79.9914 65.3946 80.6884C65.3936 81.8182 65.834 82.8768 66.627 83.664L67.3634 84.4014C66.7208 85.6494 66.1818 86.9502 65.752 88.29H64.712C62.3916 88.29 60.504 90.1776 60.504 92.498V95.8398H45.9542C44.8498 95.8398 43.9542 96.7354 43.9542 97.8398C43.9542 98.9442 44.8498 99.8398 45.9542 99.8398H60.504V99.872C60.504 102.192 62.3916 104.08 64.712 104.08H65.751C66.1816 105.42 66.7208 106.721 67.3642 107.97L66.628 108.706C65.8322 109.5 65.3946 110.558 65.3946 111.684C65.3946 112.809 65.8322 113.866 66.627 114.661L67.335 115.369H14.502ZM116.132 99.872C116.132 99.9824 116.034 100.08 115.924 100.08H113.372C112.456 100.08 111.657 100.702 111.433 101.591C110.933 103.575 110.138 105.497 109.07 107.302C108.605 108.087 108.732 109.088 109.378 109.733L111.175 111.53C111.256 111.612 111.256 111.756 111.18 111.832L105.958 117.048C105.882 117.124 105.741 117.12 105.666 117.048L103.865 115.247C103.218 114.601 102.214 114.473 101.428 114.942C99.652 115.999 97.7312 116.795 95.7174 117.31C94.8316 117.535 94.2126 118.333 94.2126 119.247V121.792C94.2126 121.899 94.111 122 94.0046 122H86.6228C86.5164 122 86.4148 121.899 86.4148 121.792V119.247C86.4148 118.334 85.7956 117.536 84.9108 117.31C82.9 116.795 80.9812 115.998 79.2058 114.942C78.8884 114.753 78.535 114.661 78.1844 114.661C77.6668 114.661 77.1552 114.861 76.7694 115.247L74.9744 117.042C74.8924 117.127 74.7468 117.124 74.6698 117.048L73.5986 115.977C73.5864 115.964 73.5748 115.953 73.5622 115.94L69.455 111.833C69.3856 111.763 69.3846 111.607 69.455 111.535L71.2568 109.734C71.9042 109.087 72.0292 108.083 71.5614 107.297C70.5038 105.519 69.707 103.597 69.1932 101.585C68.9676 100.7 68.1698 100.08 67.2556 100.08H64.7116C64.6012 100.08 64.5036 99.9826 64.5036 99.8722V92.4982C64.5036 92.3878 64.6012 92.2902 64.7116 92.2902H67.2556C68.1696 92.2902 68.9676 91.671 69.1932 90.7854C69.7078 88.7728 70.5038 86.8508 71.5614 85.0744C72.0292 84.2882 71.9042 83.2844 71.2568 82.6378L69.455 80.836C69.453 80.834 69.458 80.546 69.456 80.544L71.8468 78.1494C71.8484 78.148 71.85 78.1464 71.8514 78.1448L74.664 75.3282C74.747 75.2472 74.8926 75.2482 74.9678 75.3224L76.7686 77.1242C77.415 77.7706 78.416 77.8986 79.2012 77.4318C80.998 76.3692 82.919 75.5714 84.9122 75.0608C85.797 74.8332 86.4152 74.0364 86.4152 73.1232V70.5792C86.4152 70.4718 86.5168 70.3702 86.6232 70.3702H94.005C94.1114 70.3702 94.213 70.4718 94.213 70.5792V73.1232C94.213 74.0372 94.8322 74.8342 95.717 75.0608C97.713 75.5716 99.636 76.3694 101.434 77.4318C102.219 77.8956 103.22 77.7688 103.866 77.1242L105.666 75.3224C105.741 75.2482 105.882 75.2482 105.958 75.3224L111.181 80.546C111.249 80.6144 111.248 80.7676 111.18 80.836L109.378 82.6378C108.732 83.2834 108.606 84.2842 109.07 85.0704C110.137 86.8732 110.932 88.794 111.433 90.7794C111.657 91.668 112.456 92.2902 113.372 92.2902H115.924C116.034 92.2902 116.132 92.3878 116.132 92.4982V99.872H116.132Z" fill="#2780EB"/>
<path d="M33.2451 48.6357H25.7451C23.9579 48.6357 22.5049 50.0859 22.5049 51.8691V59.3701C22.5049 61.1573 23.9581 62.6103 25.7451 62.6103H33.2451C35.0283 62.6103 36.4795 61.1571 36.4795 59.3701V51.8691C36.4793 50.0859 35.0283 48.6357 33.2451 48.6357ZM32.4793 58.6103H26.5047V52.6357H32.4793V58.6103Z" fill="#2780EB"/>
<path d="M45.9541 57.6204H80.1817C81.2861 57.6204 82.1817 56.7248 82.1817 55.6204C82.1817 54.516 81.2861 53.6204 80.1817 53.6204H45.9541C44.8497 53.6204 43.9541 54.516 43.9541 55.6204C43.9541 56.7248 44.8495 57.6204 45.9541 57.6204V57.6204Z" fill="#2780EB"/>
<path d="M33.2451 27.5225H25.7451C23.9579 27.5225 22.5049 28.9767 22.5049 30.7637V38.2637C22.5049 40.0469 23.9581 41.4971 25.7451 41.4971H33.2451C35.0283 41.4971 36.4795 40.0469 36.4795 38.2637V30.7637C36.4793 28.9767 35.0283 27.5225 33.2451 27.5225V27.5225ZM32.4793 37.4971H26.5047V31.5225H32.4793V37.4971Z" fill="#2780EB"/>
<path d="M45.9541 36.5137H80.1817C81.2861 36.5137 82.1817 35.6181 82.1817 34.5137C82.1817 33.4093 81.2861 32.5137 80.1817 32.5137H45.9541C44.8497 32.5137 43.9541 33.4093 43.9541 34.5137C43.9541 35.6181 44.8495 36.5137 45.9541 36.5137V36.5137Z" fill="#2780EB"/>
<path d="M33.2451 69.7422H25.7451C23.9579 69.7422 22.5049 71.1964 22.5049 72.9834V80.4766C22.5049 82.2638 23.9581 83.7168 25.7451 83.7168H33.2451C35.0283 83.7168 36.4795 82.2636 36.4795 80.4766V72.9834C36.4793 71.1962 35.0283 69.7422 33.2451 69.7422ZM32.4793 79.7168H26.5047V73.7422H32.4793V79.7168Z" fill="#2780EB"/>
<path d="M33.2451 90.8486H25.7451C23.9579 90.8486 22.5049 92.3028 22.5049 94.0898V101.59C22.5049 103.373 23.9581 104.823 25.7451 104.823H33.2451C35.0283 104.823 36.4795 103.373 36.4795 101.59V94.0898C36.4793 92.3028 35.0283 90.8486 33.2451 90.8486ZM32.4793 100.823H26.5047V94.8486H32.4793V100.823Z" fill="#2780EB"/>
<path d="M90.3174 81.7568C82.3584 81.7568 75.8828 88.2294 75.8828 96.1856C75.8828 104.141 82.3584 110.613 90.3174 110.613C98.2724 110.613 104.745 104.141 104.745 96.1856C104.745 88.2294 98.2724 81.7568 90.3174 81.7568ZM90.3174 106.613C84.5634 106.613 79.8828 101.935 79.8828 96.1854C79.8828 90.4354 84.5634 85.7566 90.3174 85.7566C96.0674 85.7566 100.745 90.4354 100.745 96.1854C100.745 101.935 96.0674 106.613 90.3174 106.613Z" fill="#2780EB"/>
</svg>
