<svg width="129" height="128" viewBox="0 0 129 128" fill="none" xmlns="http://www.w3.org/2000/svg">
<g clip-path="url(#clip0_119357_172390)">
<path d="M64.5255 86.6103C62.9992 85.4543 61.1247 85.0723 59.3762 85.3983C59.1015 83.7416 58.2195 82.2766 56.8755 81.2586C55.4828 80.2038 53.7633 79.7548 52.0325 79.9936C51.6038 80.0528 51.1873 80.1528 50.7868 80.2906C50.4073 78.9893 49.623 77.7943 48.4618 76.9148C46.549 75.4661 44.0901 75.2343 42.0171 76.0868C41.6043 74.8446 40.8291 73.7556 39.7631 72.9481C38.3706 71.8934 36.6501 71.4446 34.9201 71.6831C33.5168 71.8769 32.2434 72.5044 31.2494 73.4771L24.3864 73.0209L28.5929 38.8502L36.1303 39.3625C36.1731 39.3652 36.2156 39.3667 36.2578 39.3667C36.9573 39.3667 37.6036 38.9757 37.9258 38.3467L40.7506 32.835C41.4663 31.4398 43.0821 30.7305 44.5928 31.1488L48.7878 32.3088C49.785 32.584 50.8185 31.9993 51.0948 31.0013C51.3708 30.0033 50.7853 28.9703 49.7873 28.6943L45.5931 27.5345C42.3781 26.6445 38.9381 28.1535 37.4143 31.1238L35.1526 35.537L29.0521 35.1225L29.1966 33.9485C29.6586 30.1963 26.9819 26.768 23.2296 26.306L8.7827 24.5285C7.7532 24.4025 6.81921 25.1328 6.69271 26.1603C6.56621 27.188 7.29696 28.1238 8.32445 28.2503L22.7714 30.0288C23.5949 30.13 24.3296 30.546 24.8401 31.2C25.3506 31.854 25.5761 32.6678 25.4746 33.4913L20.5137 73.7911C20.3044 75.4908 18.7509 76.7026 17.0512 76.4946L2.60423 74.7161C1.57523 74.5906 0.640733 75.3201 0.514234 76.3478C0.387734 77.3756 1.11848 78.3113 2.14598 78.4378L16.5929 80.2163C16.8759 80.2511 17.1572 80.2681 17.4354 80.2681C19.9679 80.2681 22.2526 78.8611 23.4364 76.7163L28.5706 77.0576C27.9569 78.2456 27.7216 79.5903 27.9081 80.9421C28.1471 82.6723 29.0456 84.2063 30.4381 85.2608C31.5864 86.1306 32.9569 86.5883 34.3728 86.5883C34.6741 86.5883 34.9773 86.5675 35.2811 86.5258C35.3006 86.523 35.3196 86.5193 35.3388 86.5163C35.3413 86.5358 35.3428 86.5551 35.3453 86.5746C35.5843 88.3048 36.4828 89.8388 37.8753 90.8933C39.0541 91.7858 40.4401 92.217 41.8158 92.217C42.1383 92.217 42.4601 92.1908 42.7786 92.1438C42.9946 93.8258 43.8573 95.4235 45.3128 96.5258C46.4916 97.4185 47.8775 97.8495 49.2533 97.8495C49.5748 97.8495 49.8955 97.8235 50.213 97.7768C50.2158 97.7975 50.2173 97.8185 50.22 97.8393C50.459 99.5695 51.3575 101.103 52.7503 102.158C53.8985 103.027 55.269 103.485 56.6848 103.485C56.9863 103.485 57.2895 103.465 57.593 103.423C59.3235 103.184 60.8572 102.285 61.9117 100.893L65.7902 95.7718C67.9677 92.8973 67.4002 88.7873 64.5255 86.6103ZM34.7683 82.8113C34.0306 82.9133 33.2966 82.7216 32.7026 82.2716C32.1086 81.8218 31.7254 81.1673 31.6234 80.4293C31.5214 79.6911 31.7131 78.9576 32.1631 78.3633L33.5914 76.4773C34.0411 75.8833 34.6956 75.5001 35.4336 75.3981C36.1718 75.2968 36.9053 75.4878 37.4996 75.9378C38.0936 76.3876 38.4768 77.0421 38.5788 77.7801C38.6808 78.5181 38.4891 79.2516 38.0393 79.8458L36.6108 81.7318C36.1608 82.3258 35.5066 82.7093 34.7683 82.8113ZM40.1398 87.904C39.5458 87.4543 39.1626 86.7998 39.0606 86.0618C38.9586 85.3235 39.1503 84.5901 39.6003 83.9958L41.0286 82.1101C41.0286 82.1101 41.0288 82.1098 41.0288 82.1096L42.2901 80.4441C42.8381 79.7206 43.6728 79.3398 44.5173 79.3398C45.1041 79.3398 45.6953 79.5238 46.1981 79.9046C47.4243 80.8333 47.6665 82.5863 46.7378 83.8128L44.0481 87.3645C43.1193 88.5908 41.3661 88.8328 40.1398 87.904ZM47.5773 93.5365C46.9833 93.0868 46.6 92.4323 46.4981 91.694C46.3961 90.9563 46.5875 90.2228 47.037 89.629C47.0373 89.6288 47.0373 89.6285 47.0375 89.6283L49.7273 86.0763L50.7033 84.7876C51.153 84.1936 51.8075 83.8103 52.5458 83.7083C53.2843 83.6068 54.0175 83.7981 54.6118 84.2481C55.8375 85.1763 56.0798 86.9285 55.1523 88.1548L51.4855 92.9965C51.4853 92.9968 51.485 92.997 51.485 92.9973C50.556 94.223 48.8038 94.4653 47.5773 93.5365ZM62.8012 93.508L58.9227 98.6292C58.473 99.2232 57.8185 99.6065 57.0805 99.7085C56.3418 99.8102 55.6085 99.6187 55.0145 99.169C54.4205 98.7192 54.0373 98.0648 53.9353 97.3268C53.8333 96.5885 54.025 95.855 54.475 95.2608L58.141 90.4203C58.1418 90.4195 58.1423 90.4185 58.143 90.4178L58.3537 90.1395C58.8035 89.5455 59.458 89.1623 60.1962 89.0603C60.9345 88.959 61.668 89.15 62.2622 89.6C63.4877 90.5283 63.73 92.2818 62.8012 93.508Z" fill="#2780EB"/>
<path d="M128.486 76.3477C128.36 75.3202 127.425 74.5905 126.396 74.716L111.95 76.4945C110.247 76.7037 108.696 75.4908 108.487 73.791L108.339 72.5883L108.305 72.3098L103.526 33.4912C103.425 32.6677 103.65 31.8542 104.161 31.1999C104.671 30.5459 105.406 30.1299 106.23 30.0287L120.677 28.2502C121.704 28.1237 122.435 27.1879 122.308 26.1602C122.182 25.1327 121.247 24.4029 120.218 24.5284L105.771 26.3069C102.241 26.7417 99.6632 29.8029 99.756 33.2892L96.1127 33.7377L84.8313 27.3889C83.2338 26.4889 81.4228 26.1024 79.594 26.2704C79.5903 26.2707 79.5865 26.2717 79.5828 26.2719L76.1871 26.5859C75.1558 26.6812 74.3973 27.5944 74.4928 28.6257C74.5881 29.6567 75.4998 30.4139 76.5325 30.3199L79.9378 30.0049C81.0033 29.9064 82.0593 30.1319 82.9913 30.6564L94.688 37.2389C95.054 37.4804 95.4995 37.5909 95.95 37.5356L100.181 37.0149L103.285 62.2256L104.358 70.944L97.6092 70.9495C97.1592 70.9498 96.7247 71.112 96.385 71.4058L95.8627 71.8123L78.9183 57.2083C82.7905 56.0951 86.4818 53.4023 89.933 49.1641C90.5867 48.3611 90.466 47.1801 89.663 46.5261C88.86 45.8724 87.6788 45.9931 87.025 46.7961C83.1675 51.5336 79.1115 53.9721 74.9696 54.0436C68.9353 54.1571 64.5016 49.1536 64.4608 49.1068C64.0921 48.6803 63.5516 48.4444 62.9881 48.4581C62.4246 48.4741 61.8984 48.7431 61.5549 49.1898L56.5181 55.7448C53.8644 59.1988 49.3437 60.4858 45.2684 58.9463L44.7307 58.7431C44.2584 58.5646 44.0659 58.1956 43.9934 57.9913C43.9209 57.7871 43.8369 57.3793 44.0904 56.9428L57.2364 34.3162C58.0866 32.8527 59.6006 31.8859 61.2861 31.7299L69.0693 31.0102C70.1006 30.9147 70.8591 30.0014 70.7636 28.9704C70.6681 27.9394 69.7548 27.1812 68.7238 27.2762L60.9406 27.9959C58.0494 28.2634 55.4524 29.9219 53.9936 32.4324L40.8477 55.0591C40.1077 56.3331 39.9662 57.8598 40.4599 59.2481C40.9537 60.6363 42.0274 61.7308 43.4054 62.2513L43.9432 62.4545C45.5292 63.0535 47.1634 63.3428 48.7759 63.3428C52.8891 63.3425 56.8566 61.4591 59.4916 58.0298L63.2494 53.1393C65.2631 54.8748 69.0198 57.4453 73.8153 57.7611L98.3015 78.865C98.7417 79.2442 99.008 79.7722 99.051 80.3517C99.094 80.9312 98.909 81.493 98.5302 81.9327L97.576 83.0395C96.3772 84.428 94.27 84.5822 92.879 83.384C92.8012 83.317 92.7185 83.2595 92.6337 83.2075L86.2773 77.7265C85.4935 77.0505 84.3093 77.138 83.6328 77.9222C82.9565 78.7065 83.0443 79.8905 83.8285 80.5667L88.994 85.0207L86.6378 87.7552C85.9138 88.5949 84.8243 89.0192 83.7245 88.8899C83.0663 88.8124 82.45 88.5402 81.9425 88.1025C81.9335 88.0947 81.9238 88.0882 81.9148 88.0807L76.0085 82.9882C75.2243 82.3122 74.0406 82.3997 73.3641 83.184C72.6878 83.9682 72.7756 85.1522 73.5598 85.8285L78.0733 89.7202L75.7031 92.4729C74.9788 93.3129 73.8868 93.7372 72.7868 93.6077C71.7581 93.4862 70.8266 94.2227 70.7058 95.2509C70.5851 96.2794 71.3206 97.2112 72.3491 97.3319C72.6268 97.3644 72.9038 97.3807 73.1798 97.3807C75.2273 97.3807 77.187 96.4939 78.544 94.9207L81.078 91.9779C81.7703 92.3079 82.5145 92.5237 83.2865 92.6144C85.6265 92.8894 87.9397 91.9882 89.4782 90.2037L92.0165 87.258C94.8235 88.5894 98.2905 87.9507 100.415 85.489L101.371 84.3807C102.404 83.1815 102.908 81.6517 102.791 80.0735C102.674 78.495 101.948 77.0567 100.75 76.0245L99.211 74.6983L104.836 74.6935C105.451 77.9335 108.302 80.2682 111.565 80.2682C111.843 80.2682 112.125 80.2512 112.407 80.2165L126.854 78.438C127.882 78.3112 128.613 77.3757 128.486 76.3477Z" fill="#2780EB"/>
<path d="M116.501 62.812C113.468 62.812 111.001 65.279 111.001 68.3115C111.001 71.344 113.468 73.8113 116.501 73.8113C119.533 73.8113 122 71.344 122 68.3115C122 65.279 119.533 62.812 116.501 62.812ZM116.501 70.0613C115.536 70.0613 114.751 69.2763 114.751 68.3115C114.751 67.3468 115.536 66.562 116.501 66.562C117.465 66.562 118.25 67.3468 118.25 68.3115C118.25 69.2763 117.465 70.0613 116.501 70.0613Z" fill="#2780EB"/>
<path d="M17.7978 68.3118C17.7978 65.2793 15.3308 62.8123 12.2983 62.8123C9.26583 62.8123 6.79883 65.2793 6.79883 68.3118C6.79883 71.3443 9.26583 73.8115 12.2983 73.8115C15.3308 73.8115 17.7978 71.3443 17.7978 68.3118ZM10.5488 68.3118C10.5488 67.347 11.3336 66.5623 12.2983 66.5623C13.2631 66.5623 14.0478 67.347 14.0478 68.3118C14.0478 69.2765 13.2631 70.0615 12.2983 70.0615C11.3336 70.0615 10.5488 69.2765 10.5488 68.3118Z" fill="#2780EB"/>
</g>
<defs>
<clipPath id="clip0_119357_172390">
<rect width="128" height="128" fill="white" transform="translate(0.5)"/>
</clipPath>
</defs>
</svg>
