<svg width="70" height="70" viewBox="0 0 70 70" fill="none" xmlns="http://www.w3.org/2000/svg">
<g clip-path="url(#clip0)">
<path d="M43.2008 45.167V42.9288C43.2008 38.482 39.5209 34.8643 34.9977 34.8643C30.4745 34.8643 26.7946 38.482 26.7946 42.9288V45.1675C23.4119 45.5752 20.7812 48.4614 20.7812 51.9522V65.6241C20.7812 67.1343 22.0054 68.3584 23.5156 68.3584H46.4844C47.9946 68.3584 49.2188 67.1343 49.2188 65.6241V51.9522C49.2188 48.4599 46.5857 45.5726 43.2008 45.167ZM32.2633 42.9288C32.2633 41.4975 33.4899 40.333 34.9977 40.333C36.5054 40.333 37.7321 41.4975 37.7321 42.9288V45.1163H32.2633V42.9288ZM43.75 62.8897H26.25V51.9522C26.25 51.1983 26.8633 50.585 27.6172 50.585H42.3828C43.1367 50.585 43.75 51.1983 43.75 51.9522V62.8897Z" fill="#00D2A0"/>
<path d="M63.1641 22.2331V20.2794C63.1641 10.0025 54.8032 1.64162 44.5263 1.64162C40.0512 1.64162 35.7242 3.25162 32.3426 6.17522C30.1053 8.10938 28.3742 10.534 27.2713 13.2287C25.5756 12.3623 23.682 11.8955 21.7383 11.8955C15.0288 11.8955 9.57031 17.354 9.57031 24.0635V26.5501C4.09855 27.7772 0 32.633 0 38.419C0 41.6693 1.23047 44.7172 3.46445 47.0015C5.72592 49.3137 8.76832 50.5869 12.0312 50.5869H13.5353C15.0455 50.5869 16.2697 49.3628 16.2697 47.8526C16.2697 46.3424 15.0455 45.1182 13.5353 45.1182H12.0314C8.35146 45.1182 5.46889 42.1756 5.46889 38.419C5.46889 34.725 8.52605 31.7198 12.2838 31.7198H12.3048C13.815 31.7198 15.0392 30.4956 15.0392 28.9854V24.0635C15.0392 20.3695 18.0444 17.3643 21.7384 17.3643C23.6573 17.3643 25.4882 18.1917 26.7616 19.6344C27.4634 20.4294 28.5618 20.747 29.5796 20.4491C30.5975 20.1512 31.3512 19.2915 31.5137 18.2434C32.4971 11.8965 38.0912 7.11038 44.5263 7.11038C51.7877 7.11038 57.6953 13.018 57.6953 20.2794V23.6424C57.6953 23.6636 57.698 23.6842 57.6985 23.7053C57.6745 24.7076 58.2019 25.6862 59.1478 26.1883C62.4684 27.9506 64.5312 31.3775 64.5312 35.1316C64.5312 43.1572 56.6897 45.1192 56.4554 45.1753C54.986 45.4805 54.0356 46.9147 54.3304 48.3888C54.5904 49.6887 55.732 50.5875 57.0087 50.5875C57.1864 50.5875 57.3669 50.5701 57.5479 50.5339C57.5803 50.5273 60.8208 49.8577 64.067 47.3494C67.9484 44.3501 70 40.1252 70 35.1316C70 29.9186 67.4181 25.1166 63.1641 22.2331Z" fill="#00D2A0"/>
</g>
<defs>
<clipPath id="clip0">
<rect width="70" height="70" fill="white"/>
</clipPath>
</defs>
</svg>
