<svg width="70" height="70" viewBox="0 0 70 70" fill="none" xmlns="http://www.w3.org/2000/svg">
<path d="M58.782 56.8485C59.8499 57.9164 59.8499 59.6478 58.782 60.7156C55.5836 63.9138 50.3794 63.9138 47.181 60.7156L46.2072 59.7419C45.951 59.4855 45.5562 59.4151 45.2017 59.5625L45.1426 59.5868C44.7984 59.729 44.5702 60.0574 44.5702 60.4197V61.7969C44.5702 66.3201 40.8903 70 36.3671 70H33.6327C29.1095 70 25.4296 66.3201 25.4296 61.7969V60.4197C25.4296 60.0575 25.2014 59.729 24.8482 59.5833L24.798 59.5626C24.4434 59.4152 24.0486 59.4856 23.7925 59.742L22.8188 60.7157C19.6204 63.914 14.4162 63.914 11.2178 60.7157L9.28457 58.7818C7.73514 57.2327 6.88188 55.1727 6.88188 52.9814C6.88188 50.7903 7.73514 48.7303 9.28457 47.181L10.2583 46.2072C10.5144 45.9512 10.5848 45.5563 10.4375 45.2018L10.4155 45.1484C10.271 44.7982 9.94273 44.5702 9.58043 44.5702H8.20312C3.67992 44.5702 0 40.8903 0 36.3671V33.6327C0 29.1095 3.67992 25.4296 8.20312 25.4296H9.58043C9.9426 25.4296 10.2709 25.2015 10.4167 24.8484L10.4374 24.7986C10.5849 24.4434 10.5145 24.0488 10.2584 23.7928L9.28457 22.8189C7.73514 21.2696 6.88188 19.2097 6.88188 17.0185C6.88188 14.8273 7.73514 12.7672 9.28457 11.2179L11.2179 9.28457C12.7673 7.73514 14.8273 6.88188 17.0185 6.88188C19.2097 6.88188 21.2696 7.73514 22.819 9.28457L23.7928 10.2581C24.0491 10.5145 24.4437 10.5846 24.7983 10.4375L24.8574 10.4132C25.2016 10.271 25.4298 9.9426 25.4298 9.58029V8.20312C25.4298 3.67992 29.1097 0 33.6329 0H36.3673C40.8905 0 44.5704 3.67992 44.5704 8.20312V9.58029C44.5704 9.94246 44.7986 10.271 45.1518 10.4167L45.202 10.4374C45.5566 10.5845 45.9513 10.5144 46.2075 10.258L47.1812 9.2843C48.2491 8.21639 49.9804 8.21639 51.0482 9.2843C52.116 10.3522 52.1161 12.0836 51.0482 13.1514L50.0745 14.1251C48.2479 15.9513 45.5141 16.4869 43.1082 15.4894L43.0731 15.4751C40.6569 14.4773 39.1016 12.1648 39.1016 9.58029V8.20312C39.1016 6.69539 37.8749 5.46875 36.3672 5.46875H33.6328C32.1251 5.46875 30.8984 6.69539 30.8984 8.20312V9.58029C30.8984 12.1647 29.3431 14.4771 26.9361 15.4714L26.892 15.4896C24.4862 16.4875 21.7522 15.9518 19.9258 14.1252L18.952 13.1515C18.4356 12.635 17.7488 12.3506 17.0185 12.3506C16.2881 12.3506 15.6015 12.635 15.085 13.1515L13.1515 15.085C12.635 15.6015 12.3506 16.2881 12.3506 17.0186C12.3506 17.749 12.6351 18.4356 13.1515 18.9521L14.1252 19.9258C15.9528 21.7532 16.4876 24.4893 15.4879 26.8961L15.4727 26.9329C14.4774 29.343 12.1651 30.8984 9.58043 30.8984H8.20312C6.69539 30.8984 5.46875 32.1251 5.46875 33.6328V36.3672C5.46875 37.8749 6.69539 39.1016 8.20312 39.1016H9.58029C12.165 39.1016 14.4774 40.657 15.4714 43.0642L15.4913 43.1123C16.4876 45.5108 15.9528 48.2468 14.1252 50.0743L13.1514 51.048C12.635 51.5644 12.3506 52.2512 12.3506 52.9815C12.3506 53.712 12.635 54.3985 13.1514 54.915L15.085 56.8488C16.151 57.9147 17.8857 57.9152 18.952 56.8486L19.9257 55.8749C21.7521 54.0486 24.4859 53.5131 26.8919 54.5106L26.927 54.5249C29.3431 55.5227 30.8984 57.8352 30.8984 60.4197V61.7969C30.8984 63.3046 32.1251 64.5312 33.6328 64.5312H36.3672C37.8749 64.5312 39.1016 63.3046 39.1016 61.7969V60.4197C39.1016 57.8353 40.6569 55.5229 43.0639 54.5286L43.1081 54.5104C45.5139 53.5128 48.2479 54.0485 50.0743 55.8748L51.048 56.8485C52.1142 57.9147 53.8489 57.9147 54.915 56.8485C55.9829 55.7808 57.7142 55.7808 58.782 56.8485ZM61.7969 25.4297C60.2867 25.4297 59.0625 26.6539 59.0625 28.1641C59.0625 29.6743 60.2867 30.8984 61.7969 30.8984C63.3046 30.8984 64.5312 32.1251 64.5312 33.6328V36.3672C64.5312 37.8749 63.3046 39.1016 61.7969 39.1016H60.4197C57.835 39.1016 55.5226 40.657 54.5274 43.0672L54.5122 43.1041C53.5125 45.5109 54.0475 48.2468 55.8749 50.0743C56.4089 50.6084 57.1085 50.8752 57.8085 50.8752C58.5082 50.8752 59.2081 50.6082 59.742 50.0745C60.8099 49.0066 60.8099 47.2753 59.7421 46.2075C59.4859 45.9513 59.4155 45.5565 59.5662 45.1936L59.5835 45.1515C59.7293 44.7984 60.0575 44.5703 60.4198 44.5703H61.7969C66.3201 44.5703 70 40.8904 70 36.3672V33.6328C70 29.1096 66.3201 25.4297 61.7969 25.4297ZM35.0678 39.3727C34.3239 39.4032 33.6145 39.1363 33.0821 38.63L23.357 29.3081C22.2666 28.263 20.5358 28.2997 19.4909 29.39C18.446 30.4804 18.4826 32.2112 19.5728 33.2562L29.3061 42.5857C30.8454 44.0491 32.8377 44.8438 34.948 44.8438C35.061 44.8438 35.1742 44.8414 35.2877 44.8369C37.5234 44.747 39.5765 43.7795 41.0691 42.1124C41.1016 42.0762 41.1331 42.0391 41.1636 42.0012L67.0543 9.77908C68.0001 8.60193 67.8126 6.88078 66.6355 5.93482C65.4581 4.98887 63.7371 5.17645 62.7912 6.35359L36.9538 38.5094C36.46 39.0376 35.7927 39.3437 35.0678 39.3727Z" fill="#1E5DC5"/>
</svg>
