<svg width="64" height="64" viewBox="0 0 64 64" fill="none" xmlns="http://www.w3.org/2000/svg">
<g clip-path="url(#clip0_119221:170900)">
<path d="M8.48169 38.1496L12.943 36.029L16.0182 37.3027L17.6731 41.9569H24.2837L25.9388 37.3026L29.0139 36.029L33.4753 38.1496L38.1496 33.4753L36.0289 29.0138L37.3025 25.9388L41.9569 24.2838V17.6733L37.3026 16.0182L36.029 12.9432L38.1498 8.48169L33.4754 3.80731L29.014 5.92795L25.9389 4.65434L24.2838 0H17.6733L16.0182 4.65434L12.943 5.92795L8.48169 3.80731L3.80719 8.48169L5.92795 12.9432L4.65434 16.0182L0 17.6731V24.2837L4.65434 25.9388L5.92795 29.0138L3.80719 33.4753L8.48169 38.1496ZM1.87867 22.958V18.9991L6.07048 17.5084L7.98322 12.8907L6.07311 8.87258L8.87258 6.07324L12.8907 7.98322L17.5083 6.07048L18.999 1.87867H22.9578L24.4485 6.07036L29.0661 7.98309L33.0842 6.07311L35.8837 8.87245L33.9736 12.8906L35.8863 17.5083L40.0783 18.999V22.9578L35.8865 24.4485L33.9737 29.0663L35.8838 33.0844L33.0844 35.8837L29.0663 33.9737L24.4486 35.8865L22.958 40.0783H18.9991L17.5084 35.8866L12.8908 33.9739L8.8727 35.8838L6.07311 33.0844L7.98322 29.0663L6.07048 24.4485L1.87867 22.958Z" fill="#00D2A0"/>
<path d="M20.9784 31.9373C27.0212 31.9373 31.9373 27.0212 31.9373 20.9784C31.9373 14.9356 27.0212 10.0195 20.9784 10.0195C14.9356 10.0195 10.0195 14.9356 10.0195 20.9784C10.0195 27.0212 14.9356 31.9373 20.9784 31.9373ZM11.9467 20.0391C12.1325 18.2388 12.8474 16.5936 13.9315 15.2601L15.3547 16.6832L16.6832 15.3548L15.26 13.9317C16.5935 12.8474 18.2387 12.1327 20.039 11.9468V13.9647H21.9176V11.9467C23.7179 12.1325 25.3631 12.8474 26.6966 13.9315L25.2734 15.3547L26.6019 16.683L28.0251 15.26C29.1093 16.5935 29.8241 18.2387 30.0099 20.039H27.9921V21.9176H30.0102C29.8243 23.7179 29.1094 25.3631 28.0253 26.6966L26.6022 25.2736L25.2737 26.6019L26.6969 28.0251C25.3634 29.1093 23.7182 29.8241 21.9179 30.0099V27.9921H20.0392V30.0102C18.239 29.8243 16.5937 29.1094 15.2603 28.0253L16.6834 26.6022L15.355 25.2738L13.9318 26.6969C12.8474 25.3632 12.1327 23.718 11.9467 21.9178H13.9647V20.0391H11.9467Z" fill="#00D2A0"/>
<path d="M24.3981 23.0696L21.9177 20.5894V16.2191H20.0391V21.3674L23.0695 24.398L24.3981 23.0696Z" fill="#00D2A0"/>
<path d="M63.9998 34.2544V28.3053H54.6064V64H63.9998V36.1331H62.1211V62.1213H56.4851V30.184H62.1211V34.2544H63.9998Z" fill="#00D2A0"/>
<path d="M42.082 64H51.4754V48.6575H49.5967V62.1213H43.9607V43.9608H49.5967V46.7788H51.4754V42.0822H42.082V64Z" fill="#00D2A0"/>
<path d="M29.5576 63.9999H38.951V56.1721H37.0723V62.1213H31.4363V51.4755H37.0723V54.2935H38.951V49.5968H29.5576V63.9999Z" fill="#00D2A0"/>
<path d="M17.0332 64.0002H26.4265V59.1782H24.5479V62.1215H18.9119V55.233H24.5479V57.2996H26.4265V53.3544H17.0332V64.0002Z" fill="#00D2A0"/>
<path d="M4.50879 63.9999H13.9021V55.859H4.50879V63.9999ZM6.38746 57.7377H12.0235V62.1212H6.38746V57.7377Z" fill="#00D2A0"/>
<path d="M4.82227 51.2251C5.45713 51.2251 6.09901 51.2148 6.73024 51.1946L6.67012 49.3169C6.05881 49.3366 5.43709 49.3465 4.82227 49.3465V51.2251Z" fill="#00D2A0"/>
<path d="M8.63624 51.1027C9.2686 51.0621 9.9086 51.0105 10.5387 50.9494L10.3576 49.0795C9.74753 49.1386 9.12795 49.1884 8.51562 49.2279L8.63624 51.1027Z" fill="#00D2A0"/>
<path d="M12.1934 48.8715L12.4353 50.7345C23.5078 49.2967 33.8942 44.7262 42.4715 37.5171C50.3136 30.9261 56.2567 22.466 59.7698 12.9341L61.6919 17.5801L63.4279 16.8619L60.1961 9.05017L52.3842 12.2821L53.1024 14.018L58.1366 11.9352C50.9771 31.7458 33.1549 46.1495 12.1934 48.8715V48.8715Z" fill="#00D2A0"/>
<path d="M20.0391 7.51465H21.9177V9.39332H20.0391V7.51465Z" fill="#00D2A0"/>
<path d="M9.90527 12.4899L11.2335 11.1616L12.5617 12.4899L11.2335 13.8181L9.90527 12.4899Z" fill="#00D2A0"/>
<path d="M6.2627 21.2916H8.14136V23.1703H6.2627V21.2916Z" fill="#00D2A0"/>
<path d="M9.90332 31.9706L11.2315 30.6424L12.5598 31.9706L11.2315 33.2988L9.90332 31.9706Z" fill="#00D2A0"/>
<path d="M20.0391 35.0685H21.9177V36.9472H20.0391V35.0685Z" fill="#00D2A0"/>
<path d="M29.3857 31.9745L30.714 30.6463L32.0422 31.9745L30.714 33.3027L29.3857 31.9745Z" fill="#00D2A0"/>
<path d="M33.8164 21.2916H35.6951V23.1703H33.8164V21.2916Z" fill="#00D2A0"/>
<path d="M29.3877 12.4911L30.7159 11.1629L32.0441 12.4911L30.7159 13.8193L29.3877 12.4911Z" fill="#00D2A0"/>
</g>
<defs>
<clipPath id="clip0_119221:170900">
<rect width="64" height="64" fill="white"/>
</clipPath>
</defs>
</svg>
