<svg width="50" height="51" viewBox="0 0 50 51" fill="none" xmlns="http://www.w3.org/2000/svg">
<path d="M48.8844 1.4353C48.3657 0.916507 47.4333 0.300817 45.9223 0.315694C41.6148 0.356511 35.1855 5.60399 32.7746 7.83482H7.51951C3.37333 7.83482 0 11.2081 0 15.3543C0 16.1699 0.50659 16.8993 1.27067 17.1842L17.5914 23.2698L9.93688 30.982L4.0306 31.6636C2.67371 31.82 1.42135 32.4643 0.504683 33.4775C0.0984189 33.9269 -0.0766752 34.5395 0.0312804 35.1358C0.139236 35.732 0.518035 36.2443 1.05629 36.5228L7.37379 39.7882L5.455 41.7073C4.69206 42.4703 4.69206 43.7066 5.455 44.4696C5.83609 44.8506 6.33619 45.0414 6.83592 45.0414C7.33602 45.0414 7.83575 44.8506 8.21722 44.4696L10.2154 42.471L14.1235 49.3287C14.4336 49.8727 14.986 50.2351 15.6086 50.3034C15.6795 50.311 15.7501 50.3148 15.8207 50.3148C16.3688 50.3148 16.8964 50.0836 17.2687 49.672L17.4102 49.5156C18.198 48.6443 18.6874 47.5675 18.8251 46.4009L19.5362 40.3718L26.9256 32.9568L32.9242 49.0437C33.2088 49.8078 33.9385 50.3144 34.7541 50.3144C38.9003 50.3144 42.2736 46.9415 42.2736 42.7949C42.2736 41.7165 41.3989 40.8422 40.3205 40.8422C39.2417 40.8422 38.3674 41.7165 38.3674 42.7949C38.3674 44.3406 37.3919 45.6628 36.0244 46.1778L29.9594 29.9123L33.1668 26.6935C33.9282 25.9294 33.9259 24.6927 33.1618 23.9313C32.3978 23.1699 31.1614 23.1722 30.4 23.9362L24.2694 30.0882C24.2694 30.0882 24.2694 30.0886 24.269 30.0886L16.2925 38.0933C15.9835 38.4034 15.7875 38.8082 15.7363 39.243L15.245 43.4072L12.3417 38.3123C12.1547 37.9846 11.877 37.7176 11.5413 37.5444L7.08769 35.2422L11.0649 34.7833C11.5051 34.7326 11.9152 34.5334 12.2272 34.2187L20.4753 25.9092L26.5815 19.7572C27.3414 18.9916 27.3368 17.7553 26.5716 16.9954C25.806 16.2355 24.5693 16.2397 23.8094 17.0053L20.6123 20.2265L4.13665 14.084C4.65201 12.7165 5.97418 11.7411 7.51951 11.7411H33.5578C34.0758 11.7411 34.5725 11.5351 34.9387 11.1689C36.0537 10.0538 38.1884 8.25596 40.4437 6.7526C43.944 4.41953 45.5504 4.22537 45.9593 4.22155C46.0128 4.22079 46.0555 4.22346 46.0894 4.22651C46.0913 4.25054 46.0932 4.27915 46.0936 4.31272C46.1295 6.6641 41.9497 12.5719 39.1147 15.407C39.1124 15.4093 39.1097 15.4119 39.107 15.4146L38.948 15.5752C38.5764 15.9422 38.3674 16.4427 38.3674 16.9649V33.0301C38.3674 34.1085 39.2417 34.9832 40.3205 34.9832C41.3989 34.9832 42.2736 34.1085 42.2736 33.0301V17.7614C43.4645 16.5075 45.2304 14.403 46.8257 12.0062C48.9611 8.79803 50.0289 6.18955 49.9995 4.25321C49.9777 2.82385 49.3811 1.9316 48.8844 1.4353Z" fill="#00D2A0"/>
</svg>
