<svg width="50" height="51" viewBox="0 0 50 51" fill="none" xmlns="http://www.w3.org/2000/svg">
<path d="M42.5163 20.9209H40.3645C40.4072 20.2667 40.4297 19.6147 40.4297 18.9678C40.4297 17.889 39.5554 17.0146 38.4766 17.0146H1.95312C0.874329 17.0146 0 17.889 0 18.9678C0 23.8323 1.22681 28.9634 3.45459 33.4163C5.24521 36.9949 7.63283 40.0318 10.3264 42.1951C8.59871 43.9975 7.61719 46.1818 7.61719 48.3623C7.61719 49.4411 8.49152 50.3154 9.57031 50.3154H30.957C32.0358 50.3154 32.9102 49.4411 32.9102 48.3623C32.9102 46.199 31.897 44.0094 30.1144 42.1863C32.8033 40.0234 35.1871 36.9899 36.9751 33.4163C36.9884 33.3896 37.001 33.3629 37.0144 33.3366C38.3362 34.9079 40.2939 35.8882 42.5163 35.8882C43.5951 35.8882 44.4695 35.0139 44.4695 33.9351C44.4695 32.8563 43.5951 31.982 42.5163 31.982C40.6029 31.982 39.1602 30.4439 39.1602 28.4046C39.1602 28.252 39.1411 28.1047 39.1079 27.9621C39.41 26.9283 39.6626 25.8804 39.8632 24.8271H42.5163C44.4889 24.8271 46.0938 26.432 46.0938 28.4046C46.0938 29.4834 46.9681 30.3577 48.0469 30.3577C49.1257 30.3577 50 29.4834 50 28.4046C50 24.2782 46.6427 20.9209 42.5163 20.9209ZM25.9014 40.3705C25.3216 40.7123 24.9592 41.3288 24.9413 42.0013C24.9237 42.6738 25.2537 43.3082 25.8144 43.6801C26.976 44.4507 27.8915 45.42 28.4382 46.4092H12.0457C12.5259 45.4898 13.3183 44.6033 14.3414 43.8701H19.1406C20.2194 43.8701 21.0938 42.9958 21.0938 41.917C21.0938 40.8382 20.2194 39.9639 19.1406 39.9639H13.8813C8.51021 36.3975 4.55513 28.7326 3.97873 20.9209H36.451C35.8517 29.0435 31.5998 37.0079 25.9014 40.3705ZM6.25 9.10449C6.25 7.06096 7.69386 5.81088 8.85391 4.80609C9.96399 3.84479 10.6445 3.20773 10.6445 2.26855C10.6445 1.18976 11.5189 0.31543 12.5977 0.31543C13.6765 0.31543 14.5508 1.18976 14.5508 2.26855C14.5508 5.03993 12.7361 6.61159 11.4109 7.75905C10.9417 8.16531 10.1562 8.84586 10.1562 9.10449C10.1562 10.1833 9.28192 11.0576 8.20312 11.0576C7.12433 11.0576 6.25 10.1833 6.25 9.10449ZM16.7969 9.10449C16.7969 7.06096 18.2407 5.81088 19.4008 4.80609C20.5109 3.84479 21.1914 3.20773 21.1914 2.26855C21.1914 1.18976 22.0657 0.31543 23.1445 0.31543C24.2233 0.31543 25.0977 1.18976 25.0977 2.26855C25.0977 5.03993 23.283 6.61159 21.9578 7.75905C21.4886 8.16531 20.7031 8.84586 20.7031 9.10449C20.7031 10.1833 19.8288 11.0576 18.75 11.0576C17.6712 11.0576 16.7969 10.1833 16.7969 9.10449ZM27.2461 9.10449C27.2461 7.07431 28.6568 5.82462 29.7909 4.82059C30.8773 3.85814 31.543 3.21994 31.543 2.26855C31.543 1.18976 32.4173 0.31543 33.4961 0.31543C34.5749 0.31543 35.4492 1.18976 35.4492 2.26855C35.4492 5.02658 33.6758 6.59747 32.3807 7.74455C31.8916 8.1779 31.1523 8.8325 31.1523 9.10449C31.1523 10.1833 30.278 11.0576 29.1992 11.0576C28.1204 11.0576 27.2461 10.1833 27.2461 9.10449Z" fill="#00D2A0"/>
</svg>
