<svg width="65" height="64" viewBox="0 0 65 64" fill="none" xmlns="http://www.w3.org/2000/svg">
<g clip-path="url(#clip0_119221:170925)">
<path d="M61.466 0.138672H3.86602C2.0987 0.138672 0.666016 1.57136 0.666016 3.33867V31.072C0.666016 32.8393 2.0987 34.272 3.86602 34.272H61.466C63.2333 34.272 64.666 32.8393 64.666 31.072V3.33867C64.666 1.57136 63.2333 0.138672 61.466 0.138672V0.138672ZM62.5327 31.072C62.5327 31.6611 62.0551 32.1387 61.466 32.1387H3.86602C3.27691 32.1387 2.79935 31.6611 2.79935 31.072V3.33867C2.79935 2.74957 3.27691 2.27201 3.86602 2.27201H61.466C62.0551 2.27201 62.5327 2.74957 62.5327 3.33867V31.072Z" fill="#00D2A0"/>
<path d="M59.3326 9.73873C56.9762 9.73873 55.066 7.82848 55.066 5.47206C55.066 4.88296 54.5884 4.4054 53.9993 4.4054H11.3326C10.7435 4.4054 10.266 4.88296 10.266 5.47206C10.266 6.60365 9.81643 7.6889 9.01627 8.48905C8.21612 9.28921 7.13087 9.73873 5.99928 9.73873C5.41018 9.73873 4.93262 10.2163 4.93262 10.8054V23.6054C4.93262 24.1945 5.41018 24.6721 5.99928 24.6721C8.3557 24.6721 10.266 26.5823 10.266 28.9387C10.266 29.5278 10.7435 30.0054 11.3326 30.0054H53.9993C54.5884 30.0054 55.066 29.5278 55.066 28.9387C55.066 26.5823 56.9762 24.6721 59.3326 24.6721C59.9217 24.6721 60.3993 24.1945 60.3993 23.6054V10.8054C60.3993 10.2163 59.9217 9.73873 59.3326 9.73873V9.73873ZM12.314 27.8721C11.8611 25.1835 9.75456 23.077 7.06595 22.6241V11.7334C9.75134 11.2819 11.857 9.18053 12.314 6.49606H25.6046C22.0294 8.86758 19.8801 12.8725 19.8801 17.1627C19.8801 21.453 22.0294 25.4579 25.6046 27.8294L12.314 27.8721ZM32.666 6.53873C38.557 6.53873 43.3326 11.3144 43.3326 17.2054C43.3326 23.0964 38.557 27.8721 32.666 27.8721C26.7749 27.8721 21.9993 23.0964 21.9993 17.2054C21.9993 11.3144 26.7749 6.53873 32.666 6.53873ZM58.266 22.6241C55.5773 23.077 53.4708 25.1835 53.018 27.8721H39.7273C43.3025 25.5005 45.4518 21.4956 45.4518 17.2054C45.4518 12.9152 43.3025 8.91024 39.7273 6.53873H53.018C53.4913 9.20662 55.5934 11.2873 58.266 11.7334V22.6241Z" fill="#00D2A0"/>
<path d="M32.6661 22.5387C31.4879 22.5387 30.5327 21.5836 30.5327 20.4053C30.5327 19.8162 30.0552 19.3387 29.4661 19.3387C28.877 19.3387 28.3994 19.8162 28.3994 20.4053C28.4009 22.3498 29.7167 24.0472 31.5994 24.5333V25.76C31.5994 26.3491 32.077 26.8267 32.6661 26.8267C33.2552 26.8267 33.7327 26.3491 33.7327 25.76V24.5333C35.7686 23.9613 37.0782 21.9843 36.8109 19.8866C36.5437 17.7889 34.7803 16.2034 32.6661 16.16C31.4879 16.16 30.5327 15.2049 30.5327 14.0267C30.5327 12.8485 31.4879 11.8933 32.6661 11.8933C33.8443 11.8933 34.7994 12.8485 34.7994 14.0267C34.7994 14.6158 35.277 15.0933 35.8661 15.0933C36.4552 15.0933 36.9328 14.6158 36.9328 14.0267C36.9264 12.0862 35.6116 10.3944 33.7327 9.90935V8.67201C33.7327 8.08291 33.2552 7.60535 32.6661 7.60535C32.077 7.60535 31.5994 8.08291 31.5994 8.67201V9.88801C29.545 10.4457 28.216 12.4324 28.4847 14.5441C28.7533 16.6559 30.5375 18.2465 32.6661 18.272C33.8443 18.272 34.7994 19.2271 34.7994 20.4053C34.7994 21.5836 33.8443 22.5387 32.6661 22.5387V22.5387Z" fill="#00D2A0"/>
<path d="M20.3992 46.0054C21.2829 46.0054 21.9992 45.2891 21.9992 44.4054V38.0054C21.9992 37.1217 21.2829 36.4054 20.3992 36.4054H10.7992C9.91556 36.4054 9.19922 37.1217 9.19922 38.0054V44.4054C9.19922 45.2891 9.91556 46.0054 10.7992 46.0054H20.3992ZM11.3326 38.5387H19.8659V43.8721H11.3326V38.5387Z" fill="#00D2A0"/>
<path d="M37.4666 50.2721C38.3503 50.2721 39.0666 49.5557 39.0666 48.6721V38.0054C39.0666 37.1217 38.3503 36.4054 37.4666 36.4054H27.8666C26.9829 36.4054 26.2666 37.1217 26.2666 38.0054V48.6721C26.2666 49.5557 26.9829 50.2721 27.8666 50.2721H37.4666ZM28.3999 38.5387H36.9333V48.1387H28.3999V38.5387Z" fill="#00D2A0"/>
<path d="M54.5322 36.4054H44.9322C44.0486 36.4054 43.3322 37.1217 43.3322 38.0054V52.4054H42.3829C41.7578 52.4124 41.194 52.7828 40.9394 53.3538C40.6849 53.9248 40.7862 54.5918 41.1989 55.0614L48.5482 63.3281C48.8518 63.6688 49.2865 63.8637 49.7429 63.8637C50.1993 63.8637 50.6339 63.6688 50.9375 63.3281L58.2655 55.0614C58.6794 54.5903 58.7799 53.9209 58.5227 53.349C58.2655 52.7772 57.6979 52.4083 57.0709 52.4054H56.1322V38.0054C56.1322 37.1217 55.4159 36.4054 54.5322 36.4054V36.4054ZM49.7322 61.4614L43.5775 54.5387H43.8655C44.7492 54.5387 45.4655 53.8224 45.4655 52.9387V38.5387H53.9989V52.9387C53.9989 53.8224 54.7152 54.5387 55.5989 54.5387H55.8869L49.7322 61.4614Z" fill="#00D2A0"/>
</g>
<defs>
<clipPath id="clip0_119221:170925">
<rect width="64" height="64" fill="white" transform="translate(0.666016)"/>
</clipPath>
</defs>
</svg>
