<svg width="86" height="86" viewBox="0 0 86 86" fill="none" xmlns="http://www.w3.org/2000/svg">
<path d="M42.8498 10.928C43.784 10.928 44.5414 10.1707 44.5414 9.23643V1.69161C44.5414 0.757371 43.784 0 42.8498 0C41.9156 0 41.1582 0.757371 41.1582 1.69161V9.23643C41.1584 10.1707 41.9157 10.928 42.8498 10.928Z" fill="#1E5DC5"/>
<path d="M84.1996 58.1147L81.2113 55.1347C80.1482 54.073 78.7314 53.4881 77.2217 53.4881C76.2564 53.4881 75.3297 53.7283 74.5085 54.1783L68.8772 48.5537L69.1515 48.2798C71.436 45.9907 71.4352 42.271 69.1513 39.9897C68.3351 39.172 67.3167 38.6268 66.2066 38.3973C66.3595 37.8697 66.4399 37.3171 66.4399 36.7516C66.4399 35.1802 65.8295 33.7068 64.7246 32.6064C63.9083 31.7887 62.8901 31.2435 61.78 31.0141C61.9328 30.4865 62.0133 29.934 62.0133 29.3683C62.0133 27.7968 61.4029 26.3236 60.2961 25.2215C59.4603 24.3867 58.4329 23.8583 57.354 23.6334C57.9311 21.6434 57.438 19.4046 55.8725 17.8364C54.5694 16.5389 52.8012 15.9812 51.0972 16.1619L39.9382 14.0497C38.2363 13.7269 36.111 13.5134 34.7694 14.7371C34.6848 14.8143 34.5984 14.9032 34.5134 15.0021C32.4333 14.2439 30.0072 14.6954 28.3414 16.3593C27.2364 17.463 26.6276 18.9358 26.6276 20.5063C26.6276 21.072 26.7078 21.6245 26.8604 22.1522C25.7515 22.3815 24.7345 22.926 23.921 23.741C22.8137 24.8437 22.2032 26.3148 22.202 27.8835C22.2015 28.4505 22.282 29.0048 22.4355 29.5339C21.326 29.7627 20.3083 30.3063 19.4923 31.1212C18.3851 32.2273 17.7754 33.7009 17.7754 35.2706C17.7754 36.4729 18.1343 37.6183 18.7995 38.5858C17.9596 38.8705 17.1903 39.3443 16.5462 39.9878C14.2601 42.271 14.2593 45.9908 16.5477 48.2833L16.821 48.5554L11.189 54.1771C9.0959 53.1917 6.51708 53.5609 4.78986 55.2859L1.79968 58.2677C0.736098 59.3299 0.150559 60.7469 0.150391 62.2574C0.150391 63.7682 0.736098 65.1853 1.79968 66.2477L5.53144 69.9749C6.19239 70.6352 7.26353 70.6345 7.92365 69.9736C8.58393 69.3126 8.58326 68.2415 7.92231 67.5814L4.19054 63.8542C3.76693 63.431 3.53362 62.864 3.53362 62.2576C3.53362 61.6514 3.76693 61.0845 4.18954 60.6624L7.17988 57.6805C7.92701 56.9342 9.07054 56.823 9.93894 57.3422C10.0001 57.4341 10.0708 57.5214 10.1518 57.6025C10.2967 57.7478 10.4622 57.8592 10.6379 57.9406L27.7863 75.0639C27.8678 75.2414 27.9796 75.4086 28.1256 75.5547C28.2677 75.697 28.4298 75.807 28.6018 75.8879C28.9644 76.298 29.1648 76.8217 29.1648 77.3803C29.1648 77.9867 28.9315 78.5536 28.5079 78.9767L25.5206 81.9605C24.6379 82.8393 23.2021 82.8392 22.3221 81.9632L18.5903 78.2311C17.9297 77.5705 16.8587 77.5705 16.1981 78.2311C15.5375 78.8917 15.5375 79.9627 16.1981 80.6233L19.9326 84.3581C21.0318 85.4528 22.4753 85.9998 23.9195 85.9998C25.364 85.9998 26.8092 85.4519 27.9097 84.3562L30.8989 81.3706C31.9625 80.3082 32.5482 78.8912 32.5482 77.3803C32.5482 76.3022 32.2484 75.2725 31.6909 74.3846L38.0294 68.0539C38.0361 68.047 38.0428 68.0401 38.0497 68.0332C38.7755 67.2829 40.7966 67.4233 42.7513 67.559C44.1401 67.6556 45.6884 67.763 47.2011 67.5886L54.1423 74.5215C53.6926 75.3414 53.4526 76.2669 53.4526 77.2307C53.4526 78.7399 54.0383 80.156 55.1019 81.2184L58.0912 84.2041C59.1541 85.2658 60.5709 85.8507 62.0806 85.8507C63.5902 85.8507 65.007 85.266 66.0701 84.2041L84.2008 66.0954C85.2644 65.0331 85.8501 63.6161 85.8501 62.1054C85.8499 60.5949 85.2642 59.1779 84.1996 58.1147ZM39.3083 17.3738L46.6463 18.7628L42.2541 23.1533C41.5747 22.8268 40.6435 22.2177 39.6219 21.2405C38.2235 19.9028 37.2233 18.3583 37.1322 17.395C37.1321 17.3945 37.1321 17.394 37.1321 17.3935C37.1321 17.3933 37.1319 17.3932 37.1319 17.393C37.1254 17.3238 37.1237 17.2685 37.1245 17.2264C37.3457 17.1726 37.9333 17.113 39.3083 17.3738ZM30.7321 18.753C31.5891 17.8969 32.9204 17.7981 33.8888 18.4539C34.4375 20.7547 36.4002 22.84 37.2832 23.6849C37.9377 24.3111 40.0374 26.1885 42.1569 26.7045C42.4436 27.1155 42.5996 27.6055 42.5996 28.1225C42.5996 28.7885 42.3435 29.4112 41.8767 29.8774C41.4112 30.3437 40.7876 30.6004 40.1204 30.6004C39.4531 30.6004 38.8294 30.3437 38.3618 29.8753L38.3616 29.8751L38.3608 29.8742L30.732 22.2592C30.2669 21.7948 30.0107 21.1721 30.0107 20.5063C30.0109 19.8403 30.267 19.2176 30.7321 18.753ZM26.3119 26.1348C26.7773 25.6686 27.4003 25.4118 28.0665 25.4118C28.7335 25.4118 29.3585 25.6691 29.8269 26.1371L35.9699 32.2678C36.9372 33.2366 36.9372 34.8132 35.9733 35.7787C35.5053 36.2448 34.8794 36.5015 34.2111 36.5015C33.5427 36.5015 32.9169 36.2448 32.451 35.7807L32.4508 35.7805L27.7905 31.1212C27.7833 31.114 27.7754 31.1073 27.768 31.0999L26.31 29.6426C25.8422 29.1753 25.5847 28.5515 25.5852 27.886C25.5859 27.2227 25.8426 26.602 26.3119 26.1348ZM21.8832 33.515C22.349 33.0499 22.9733 32.7937 23.6415 32.7937C24.3041 32.7937 24.9231 33.0462 25.3869 33.5032L30.0614 38.1756C30.5275 38.6399 30.7844 39.2618 30.7844 39.927C30.7844 40.592 30.5275 41.214 30.0596 41.6801C29.594 42.145 28.9703 42.4012 28.3033 42.4012C27.6353 42.4012 27.0096 42.1444 26.5433 41.6801L24.8487 39.9875C24.8484 39.987 24.8478 39.9866 24.8475 39.9863L21.8834 37.0257C21.4161 36.5589 21.1587 35.9354 21.1587 35.2702C21.1587 34.6053 21.4161 33.9816 21.8832 33.515ZM18.937 42.3814C19.4048 41.9141 20.03 41.6567 20.6973 41.6567C21.3645 41.6567 21.9895 41.9139 22.4571 42.3809L24.1541 44.0758C24.6204 44.5401 24.8771 45.1621 24.8771 45.8272C24.8771 46.4924 24.6203 47.1142 24.1506 47.5822C23.6852 48.0483 23.0615 48.3051 22.3943 48.3051C21.727 48.3051 21.1033 48.0485 20.6345 47.5788L20.422 47.3672C20.4192 47.3643 20.417 47.3613 20.4143 47.3586C20.4111 47.3556 20.4078 47.3529 20.4046 47.3499L18.9387 45.8897C17.9714 44.9204 17.9705 43.3467 18.937 42.3814ZM53.4099 61.6067C52.7496 60.9456 51.6785 60.9451 51.0177 61.6052L49.5127 63.1084C48.0826 64.5385 45.4914 64.3584 42.9855 64.1846C40.2642 63.9954 37.4502 63.8002 35.6293 65.6697L29.3985 71.893L13.8172 56.3345L19.3312 50.8304C20.2426 51.389 21.2943 51.6885 22.3947 51.6885C23.9667 51.6885 25.4408 51.0791 26.5418 49.9761C27.6502 48.8722 28.2608 47.3989 28.2608 45.8274C28.2608 45.8128 28.2598 45.7984 28.2598 45.7837C28.2744 45.7839 28.289 45.7847 28.3036 45.7847C29.8735 45.7847 31.3464 45.1772 32.4489 44.076C33.5574 42.9721 34.1679 41.4987 34.1679 39.9273C34.1679 39.9127 34.1669 39.8983 34.1669 39.8837C34.1817 39.8837 34.1965 39.8847 34.2114 39.8847C35.7808 39.8847 37.2545 39.2778 38.3645 38.1724C39.5167 37.0183 40.0866 35.4988 40.0757 33.9826C40.0908 33.9828 40.106 33.9836 40.1211 33.9836C41.6931 33.9834 43.167 33.3742 44.2697 32.2695C45.3748 31.1658 45.9835 29.693 45.9835 28.1225C45.9835 27.0241 45.6849 25.9742 45.1281 25.0646L49.961 20.2337C50.3211 19.8751 50.7653 19.65 51.2307 19.5571C51.2811 19.5517 51.3308 19.5437 51.38 19.5339C52.1268 19.431 52.9111 19.6614 53.4822 20.2302C54.4495 21.1992 54.4495 22.7757 53.4857 23.7412L52.0138 25.2071C52.0089 25.2119 52.0037 25.2163 51.9988 25.2212L50.3035 26.9136C49.6424 27.5737 49.6417 28.6449 50.302 29.3058C50.9625 29.967 52.0334 29.9675 52.6942 29.3073L54.172 27.8316C54.1723 27.8312 54.1727 27.8309 54.173 27.8306L54.3964 27.608C55.3664 26.6469 56.9379 26.6489 57.907 27.6166C58.3732 28.0808 58.6301 28.7028 58.6301 29.368C58.6301 30.033 58.3732 30.655 57.9033 31.1229L56.4229 32.6063C56.4228 32.6064 56.4226 32.6066 56.4224 32.6069L54.7273 34.2952C54.0653 34.9545 54.0632 36.0256 54.7224 36.6874C55.3817 37.3494 56.4527 37.3514 57.1146 36.6923L58.8175 34.9963C59.283 34.53 59.9066 34.2733 60.5738 34.2733C61.2411 34.2733 61.865 34.53 62.3338 34.9996C62.8 35.4641 63.0567 36.0861 63.0567 36.7512C63.0567 37.4162 62.8 38.0382 62.3311 38.5051L59.3799 41.4575C58.7194 42.1183 58.7196 43.1893 59.3802 43.8497C59.7106 44.18 60.1433 44.3449 60.5761 44.3449C61.0092 44.3449 61.4422 44.1796 61.7724 43.8492L63.2188 42.4024C63.227 42.3945 63.2359 42.3876 63.2442 42.3793C63.7096 41.9131 64.3333 41.6564 65.0004 41.6564C65.6678 41.6564 66.2915 41.9131 66.7586 42.381C67.7249 43.3463 67.7241 44.9202 66.7586 45.8874L65.288 47.3563C65.2875 47.3568 65.2868 47.3573 65.2863 47.3578C65.2858 47.3583 65.2853 47.359 65.2848 47.3595L62.9507 49.6907C62.2898 50.351 62.2891 51.4221 62.9492 52.0831C63.2796 52.4138 63.713 52.5793 64.1462 52.5793C64.5787 52.5793 65.0114 52.4143 65.3416 52.0846L66.4833 50.9442L71.9552 56.4098L56.3752 71.9707L50.793 66.3952C51.1822 66.1449 51.5545 65.8506 51.9041 65.5011L53.4082 63.9988C54.0695 63.3388 54.0702 62.2677 53.4099 61.6067ZM81.8097 63.7016L63.679 81.8103C63.2549 82.234 62.6872 82.4673 62.0805 82.4673C61.4738 82.4673 60.906 82.234 60.4817 81.8102L57.4924 78.8245C57.0688 78.4016 56.8355 77.8355 56.8355 77.2307C56.8355 76.626 57.0688 76.0599 57.4924 75.6368L75.6231 57.5281C76.0474 57.1043 76.615 56.871 77.2218 56.871C77.8286 56.871 78.3963 57.1043 78.8216 57.5291L81.8099 60.5091C82.2335 60.9322 82.4668 61.4989 82.4668 62.1053C82.4667 62.7118 82.2334 63.2787 81.8097 63.7016Z" fill="#1E5DC5"/>
<path d="M20.3878 9.502C20.718 9.83155 21.1504 9.99616 21.5827 9.99616C22.0161 9.99616 22.4496 9.83055 22.78 9.49948C23.44 8.83819 23.439 7.76722 22.7777 7.10727L16.6136 0.955413C15.9524 0.295464 14.8813 0.296304 14.2213 0.957765C13.5614 1.61906 13.5624 2.69003 14.2237 3.34998L20.3878 9.502Z" fill="#1E5DC5"/>
<path d="M64.1174 9.9961C64.5499 9.9961 64.9826 9.83115 65.3128 9.50143L71.4722 3.34941C72.1332 2.68929 72.1338 1.61815 71.4736 0.957198C70.8134 0.296241 69.7425 0.295569 69.0813 0.955854L62.9219 7.10788C62.261 7.76799 62.2603 8.83913 62.9206 9.50009C63.251 9.83082 63.6842 9.9961 64.1174 9.9961Z" fill="#1E5DC5"/>
<path d="M10.5517 72.7647C9.89678 73.4309 9.90585 74.5021 10.5722 75.157L10.5771 75.1617C10.9058 75.4848 11.3326 75.6458 11.7592 75.6458C12.1971 75.6458 12.635 75.4763 12.9667 75.1388C13.6216 74.4727 13.6101 73.3992 12.9439 72.7443C12.2779 72.0893 11.2069 72.0986 10.5517 72.7647Z" fill="#1E5DC5"/>
<path d="M57.5475 59.1699C57.8048 59.1699 58.0658 59.1112 58.3109 58.9878C59.145 58.567 59.4801 57.5498 59.0595 56.7156C58.6387 55.8815 57.6214 55.5462 56.7874 55.967L56.778 55.9717C55.9439 56.3925 55.6135 57.4073 56.0341 58.2415C56.331 58.8307 56.9283 59.1699 57.5475 59.1699Z" fill="#1E5DC5"/>
</svg>
