<svg width="70" height="70" viewBox="0 0 70 70" fill="none" xmlns="http://www.w3.org/2000/svg">
<g clip-path="url(#clip0)">
<path d="M69.0999 4.76172C68.9238 4.55268 68.6718 4.42211 68.3995 4.39887L53.1652 3.09772L52.889 0.902289C52.8179 0.337504 52.3012 -0.0628083 51.7378 0.00814873L37.6056 1.78495C37.55 1.77045 37.493 1.75952 37.4336 1.75446L18.0092 0.0952386C17.4499 0.0460198 16.9421 0.476137 16.8945 1.03436L16.6049 4.42498L1.55917 6.31662C1.00245 6.38662 0.595169 6.91067 0.665032 7.4678L8.34507 68.5548C8.37993 68.8335 8.32019 69.1012 8.43408 69.3706C8.59376 69.7481 8.97384 70.0001 9.38386 70.0001H59.9574C60.5268 70.0001 60.9881 69.5388 60.9881 68.9694V67.6269L62.9843 67.7974C63.5436 67.8459 64.0514 67.4168 64.099 66.8583L69.3384 5.51381C69.3618 5.24133 69.2761 4.9709 69.0999 4.76172ZM8.35314 52.0929L2.83913 8.23328L8.35314 7.54012V52.0929ZM18.8608 2.23694L27.8815 3.00735L18.6965 4.16221L18.8608 2.23694ZM50.9723 2.18211L51.499 6.37077H17.6541L50.9723 2.18211ZM62.1328 65.6557L60.9881 65.5579V35.4368C60.9881 34.8675 60.5268 34.406 59.9574 34.406C59.3879 34.406 58.9266 34.8673 58.9266 35.4368V67.9385H10.4146V8.43221H58.9268V30.6269C58.9268 31.1963 59.3881 31.6576 59.9575 31.6576C60.5269 31.6576 60.9882 31.1963 60.9882 30.6269V7.40149C60.9882 6.83219 60.5269 6.37077 59.9575 6.37077H53.5767L53.4281 5.18911L67.1969 6.36516L62.1328 65.6557Z" fill="#1E5DC5"/>
<path d="M54.4604 11.868H48.9632C48.6185 11.868 48.2967 12.0402 48.1057 12.327L45.7727 15.8265C43.2616 14.0277 40.1872 12.9674 36.8696 12.9674C36.3003 12.9674 35.8389 13.4287 35.8389 13.9981V28.2907C35.8389 28.86 36.3002 29.3214 36.8696 29.3214H51.1622C51.7316 29.3214 52.1929 28.8601 52.1929 28.2907C52.1929 23.9024 50.3382 19.9398 47.3722 17.1436L49.515 13.9295H54.4605C55.0298 13.9295 55.4912 13.4682 55.4912 12.8988C55.4912 12.3293 55.0297 11.868 54.4604 11.868ZM50.0918 27.26H37.9003V15.0685C40.3999 15.2615 42.706 16.1529 44.6277 17.5441L43.708 18.9237C43.4207 19.3544 43.505 19.9509 43.9017 20.284C44.3663 20.6742 45.0869 20.5713 45.4231 20.0672L46.2102 18.8865C48.4017 21.0633 49.8397 23.9979 50.0918 27.26Z" fill="#1E5DC5"/>
<path d="M54.4599 45.95H45.1363L43.4935 43.3216C46.1547 40.564 47.7946 36.8141 47.7946 32.6883C47.7946 32.1189 47.3333 31.6576 46.7638 31.6576H33.502V18.3957C33.502 17.8264 33.0405 17.365 32.4713 17.365C24.022 17.365 17.1479 24.2391 17.1479 32.6883C17.1479 41.1375 24.022 48.0116 32.4713 48.0116C36.0428 48.0116 39.3325 46.7833 41.9409 44.7272L43.6909 47.5272C43.8793 47.8285 44.2097 48.0116 44.565 48.0116H54.4599C55.0292 48.0116 55.4906 47.5503 55.4906 46.9809C55.4906 46.4114 55.0292 45.95 54.4599 45.95ZM39.9421 37.6391C39.6405 37.1561 39.0044 37.0096 38.5217 37.3113C38.039 37.6129 37.8921 38.2489 38.1939 38.7317L40.8413 42.9675C38.5569 44.8311 35.6424 45.9503 32.4714 45.9503C25.1588 45.9503 19.2095 40.001 19.2095 32.6884C19.2095 25.7226 24.6079 19.994 31.4407 19.4662V32.6884C31.4407 33.2577 31.9021 33.7192 32.4714 33.7192H45.6936C45.4634 36.6998 44.2433 39.4072 42.3629 41.5127L39.9421 37.6391Z" fill="#1E5DC5"/>
<path d="M23.6767 51.4473H14.8813C14.3121 51.4473 13.8506 51.9086 13.8506 52.478C13.8506 53.0474 14.312 53.5087 14.8813 53.5087H23.6767C24.246 53.5087 24.7074 53.0474 24.7074 52.478C24.7074 51.9086 24.246 51.4473 23.6767 51.4473Z" fill="#1E5DC5"/>
<path d="M36.8691 51.4473H28.0737C27.5044 51.4473 27.043 51.9086 27.043 52.478C27.043 53.0474 27.5044 53.5087 28.0737 53.5087H36.8691C37.4384 53.5087 37.8998 53.0474 37.8998 52.478C37.8998 51.9086 37.4384 51.4473 36.8691 51.4473Z" fill="#1E5DC5"/>
<path d="M29.1739 56.9445H14.8813C14.3121 56.9445 13.8506 57.4057 13.8506 57.9752C13.8506 58.5446 14.312 59.0059 14.8813 59.0059H29.1739C29.7432 59.0059 30.2046 58.5446 30.2046 57.9752C30.2046 57.4057 29.743 56.9445 29.1739 56.9445Z" fill="#1E5DC5"/>
<path d="M36.8696 56.9445H33.5712C33.0021 56.9445 32.5405 57.4057 32.5405 57.9752C32.5405 58.5446 33.002 59.0059 33.5712 59.0059H36.8696C37.4389 59.0059 37.9003 58.5446 37.9003 57.9752C37.9002 57.4057 37.4389 56.9445 36.8696 56.9445Z" fill="#1E5DC5"/>
<path d="M19.279 62.4414H14.8813C14.3121 62.4414 13.8506 62.9027 13.8506 63.4721C13.8506 64.0416 14.312 64.5028 14.8813 64.5028H19.279C19.8483 64.5028 20.3097 64.0416 20.3097 63.4721C20.3097 62.9027 19.8483 62.4414 19.279 62.4414Z" fill="#1E5DC5"/>
<path d="M36.8698 62.4414H23.6767C23.1076 62.4414 22.646 62.9027 22.646 63.4721C22.646 64.0416 23.1074 64.5028 23.6767 64.5028H36.8698C37.4391 64.5028 37.9005 64.0416 37.9005 63.4721C37.9005 62.9027 37.4391 62.4414 36.8698 62.4414Z" fill="#1E5DC5"/>
</g>
<defs>
<clipPath id="clip0">
<rect width="70" height="70" fill="white"/>
</clipPath>
</defs>
</svg>
