<svg width="70" height="70" viewBox="0 0 70 70" fill="none" xmlns="http://www.w3.org/2000/svg">
<path d="M27.6172 61.7969C27.2578 61.7969 26.9048 61.9432 26.6505 62.1974C26.3963 62.4516 26.25 62.8046 26.25 63.1641C26.25 63.5235 26.3963 63.8765 26.6505 64.1307C26.9048 64.3849 27.2578 64.5312 27.6172 64.5312C27.9766 64.5312 28.3296 64.3849 28.5838 64.1307C28.838 63.8765 28.9844 63.5235 28.9844 63.1641C28.9844 62.8046 28.838 62.4516 28.5838 62.1974C28.3296 61.9432 27.9766 61.7969 27.6172 61.7969Z" fill="#00D2A0"/>
<path d="M68.5404 18.6375C66.5975 16.6946 63.4364 16.6946 61.4935 18.6375L55.2344 24.8967V4.64844C55.2344 2.08549 53.1489 0 50.5859 0H4.64844C2.08549 0 0 2.08549 0 4.64844V65.3516C0 67.9145 2.08549 70 4.64844 70H50.5859C53.1489 70 55.2344 67.9145 55.2344 65.3516V38.991L68.5404 25.6844C70.4833 23.7415 70.4833 20.5804 68.5404 18.6375ZM52.5 4.64844V27.6311L49.7656 30.3654V6.83594C49.7656 6.08078 49.1536 5.46875 48.3984 5.46875H39.2612V2.73438H50.5859C51.6412 2.73438 52.5 3.59314 52.5 4.64844ZM45.0349 42.143L46.8806 37.9966L49.1814 40.2973L45.0349 42.143ZM36.5269 2.73438V8.30566C36.5269 9.15375 35.8369 9.84375 34.9888 9.84375H20.2456C19.3975 9.84375 18.7075 9.15375 18.7075 8.30566V2.73438H36.5269ZM50.5859 67.2656H4.64844C3.59314 67.2656 2.73438 66.4069 2.73438 65.3516V4.64844C2.73438 3.59314 3.59314 2.73438 4.64844 2.73438H15.9731V5.46875H6.83594C6.08078 5.46875 5.46875 6.08078 5.46875 6.83594V63.1641C5.46875 63.9192 6.08078 64.5312 6.83594 64.5312H22.1484C22.9036 64.5312 23.5156 63.9192 23.5156 63.1641C23.5156 62.4089 22.9036 61.7969 22.1484 61.7969H8.20312V8.20312H15.9731V8.30566C15.9731 10.6614 17.8899 12.5781 20.2456 12.5781H34.9888C37.3445 12.5781 39.2612 10.6614 39.2612 8.30566V8.20312H47.0312V33.0998L45.4739 34.6566C45.3559 34.7752 45.2603 34.9146 45.192 35.0673L41.0883 44.2846C40.8581 44.8021 40.9702 45.4072 41.3702 45.8077C41.6325 46.0694 41.9823 46.2083 42.3374 46.2083C42.5254 46.2083 42.7145 46.1698 42.8934 46.0902L47.0312 44.2477V61.7969H33.0859C32.3308 61.7969 31.7188 62.4089 31.7188 63.1641C31.7188 63.9192 32.3308 64.5312 33.0859 64.5312H48.3984C49.1531 64.5312 49.7656 63.9192 49.7656 63.1641V43.0301L52.1107 41.986C52.2549 41.9219 52.3857 41.8327 52.5 41.7233V65.3516C52.5 66.4069 51.6412 67.2656 50.5859 67.2656ZM61.5112 28.8466L51.5547 38.8036L48.3744 35.6232L60.7021 23.2956L63.8824 26.4759L61.5112 28.8466ZM66.6071 23.7511L65.8157 24.5421L62.6359 21.3623L63.4268 20.5714C64.3037 19.6944 65.7302 19.6944 66.6071 20.5714C67.4835 21.4478 67.4835 22.8742 66.6071 23.7511Z" fill="#00D2A0"/>
<path d="M22.1484 16.4062H13.3984C12.6433 16.4062 12.0312 17.0183 12.0312 17.7734V26.5234C12.0312 27.2786 12.6433 27.8906 13.3984 27.8906H22.1484C22.9036 27.8906 23.5156 27.2786 23.5156 26.5234V17.7734C23.5156 17.0183 22.9036 16.4062 22.1484 16.4062ZM20.7812 25.1562H14.7656V19.1406H20.7812V25.1562Z" fill="#00D2A0"/>
<path d="M22.1484 31.4453H13.3984C12.6433 31.4453 12.0312 32.0573 12.0312 32.8125V41.5625C12.0312 42.3177 12.6433 42.9297 13.3984 42.9297H22.1484C22.9036 42.9297 23.5156 42.3177 23.5156 41.5625V32.8125C23.5156 32.0573 22.9036 31.4453 22.1484 31.4453ZM20.7812 40.1953H14.7656V34.1797H20.7812V40.1953Z" fill="#00D2A0"/>
<path d="M22.1484 46.4844H13.3984C12.6433 46.4844 12.0312 47.0964 12.0312 47.8516V56.6016C12.0312 57.3567 12.6433 57.9688 13.3984 57.9688H22.1484C22.9036 57.9688 23.5156 57.3567 23.5156 56.6016V47.8516C23.5156 47.0964 22.9036 46.4844 22.1484 46.4844ZM20.7812 55.2344H14.7656V49.2188H20.7812V55.2344Z" fill="#00D2A0"/>
<path d="M31.9343 26.2013C32.2013 26.4683 32.5512 26.6018 32.901 26.6018C33.2508 26.6018 33.6006 26.4683 33.8676 26.2013L40.0402 20.0287C40.5738 19.4951 40.5738 18.6294 40.0402 18.0954C39.5062 17.5613 38.6405 17.5613 38.1064 18.0954L32.901 23.3008L30.8262 21.226C30.2921 20.692 29.4269 20.692 28.8923 21.226C28.3588 21.7601 28.3588 22.6258 28.8923 23.1593L31.9343 26.2013Z" fill="#00D2A0"/>
<path d="M31.9343 41.2404C32.1907 41.4968 32.5383 41.641 32.901 41.641C33.2636 41.641 33.6113 41.4968 33.8676 41.2404L40.0402 35.0683C40.5738 34.5343 40.5738 33.6686 40.0402 33.1345C39.5062 32.601 38.6405 32.601 38.1064 33.1345L32.901 38.3405L30.8262 36.2657C30.2921 35.7316 29.4269 35.7316 28.8923 36.2657C28.3588 36.7992 28.3588 37.6649 28.8923 38.199L31.9343 41.2404Z" fill="#00D2A0"/>
<path d="M34.4663 54.1603L36.586 56.2794C36.853 56.5464 37.2028 56.68 37.5526 56.68C37.9024 56.68 38.2522 56.5464 38.5192 56.2794C39.0533 55.7454 39.0533 54.8797 38.5192 54.3461L36.4001 52.2265L38.5192 50.1068C39.0533 49.5733 39.0533 48.7076 38.5192 48.1735C37.9852 47.6394 37.12 47.6394 36.586 48.1735L34.4663 50.2926L32.3471 48.1735C31.8131 47.64 30.9479 47.6394 30.4133 48.1735C29.8798 48.7076 29.8798 49.5733 30.4133 50.1068L32.533 52.2265L30.4133 54.3461C29.8798 54.8797 29.8798 55.7454 30.4133 56.2794C30.6804 56.5464 31.0307 56.68 31.3805 56.68C31.7303 56.68 32.0801 56.5464 32.3471 56.2794L34.4663 54.1603Z" fill="#00D2A0"/>
</svg>
