<svg width="65" height="64" viewBox="0 0 65 64" fill="none" xmlns="http://www.w3.org/2000/svg">
<g clip-path="url(#clip0_119221:171246)">
<path fill-rule="evenodd" clip-rule="evenodd" d="M7.79884 39.8063C11.2167 37.8601 18.1091 35.7821 25.9477 39.8639H36.0285C37.1326 39.8639 38.5087 40.1054 39.7412 40.7029C40.6903 41.163 41.5991 41.8589 42.1981 42.8558C42.5909 42.6509 43.1048 42.3832 43.7169 42.0656C45.2011 41.2954 47.2625 40.2313 49.5716 39.0555C52.1619 37.7366 54.3106 38.0557 55.8688 38.8251C57.1921 39.4784 58.0751 40.4631 58.3615 40.7825C58.3984 40.8237 58.4255 40.8538 58.4422 40.8707C58.7144 41.1456 58.9334 41.4698 59.0328 41.8523C59.1354 42.2472 59.0886 42.6197 58.9663 42.9426C58.7499 43.5142 58.2663 43.9852 57.9255 44.3112C57.861 44.3729 57.7256 44.4776 57.6158 44.5624C57.4764 44.6701 57.2824 44.818 57.0413 45.0001C56.5588 45.3646 55.8821 45.8699 55.0646 46.472C53.4296 47.6762 51.2272 49.2706 48.8822 50.9031C46.5388 52.5345 44.0448 54.2097 41.8289 55.5726C39.6444 56.9163 37.6375 58.0155 36.3038 58.4253C34.0993 59.1025 32.3799 59.3288 30.9208 59.3346C29.6233 59.3398 28.5502 59.1687 27.605 59.0179C27.4953 59.0004 27.3873 58.9832 27.2809 58.9666C25.5961 58.7031 17.2456 56.9948 11.1144 55.7404C9.97746 55.5078 8.91686 55.2909 7.98921 55.1016V55.938C7.98921 56.7099 7.3635 57.3356 6.59166 57.3356H1.73154C0.959691 57.3356 0.333984 56.7099 0.333984 55.938V40.5109C0.333984 39.739 0.959689 39.1133 1.73154 39.1133H6.59166C7.10653 39.1133 7.55638 39.3918 7.79884 39.8063ZM6.11421 40.9883H2.20898V55.4606H6.11421V40.9883ZM8.08771 53.2081C9.09939 53.4144 10.2806 53.656 11.5533 53.9163C17.6836 55.1704 25.9347 56.8582 27.5706 57.1141C27.6801 57.1312 27.789 57.1485 27.8976 57.1657C28.8482 57.3168 29.7758 57.4642 30.9133 57.4597C32.1698 57.4546 33.706 57.2618 35.7532 56.6329C36.8266 56.3032 38.6422 55.3314 40.8466 53.9755C43.0197 52.639 45.4811 50.9862 47.8109 49.3643C50.1391 47.7435 52.3276 46.1592 53.9526 44.9623C54.765 44.364 55.4356 43.8632 55.9113 43.5039C56.1494 43.3241 56.3374 43.1806 56.4694 43.0786C56.5379 43.0257 56.582 42.991 56.608 42.9705C56.6433 42.9427 56.6452 42.9412 56.6295 42.9562C56.8078 42.7857 56.9466 42.6454 57.0521 42.5187C57.1407 42.4124 57.1836 42.3415 57.2033 42.3006C57.1879 42.2773 57.1598 42.2404 57.1099 42.19C57.0652 42.1449 57.0116 42.0864 56.9486 42.0178C56.6083 41.6467 55.9958 40.9789 55.0388 40.5063C53.9691 39.9782 52.445 39.6965 50.4224 40.7264C48.1186 41.8994 46.0616 42.9613 44.5806 43.7298C43.8401 44.1141 43.2437 44.425 42.8326 44.6398C42.8269 44.6427 42.8213 44.6456 42.8157 44.6485C42.8459 44.9064 42.8596 45.1659 42.866 45.4098C42.8761 45.7897 42.869 46.1955 42.8627 46.5612C42.8605 46.6867 42.8584 46.8076 42.8571 46.921C42.8496 47.5671 42.3252 48.0976 41.668 48.0976H27.4258C26.908 48.0976 26.4883 47.6779 26.4883 47.1601C26.4883 46.6423 26.908 46.2226 27.4258 46.2226H40.9929C40.9967 45.9633 40.9983 45.7092 40.9917 45.4595C40.9792 44.9888 40.9378 44.646 40.8685 44.4322C40.57 43.5124 39.8582 42.8434 38.9232 42.3901C37.9823 41.9339 36.8929 41.7389 36.0285 41.7389H25.4812L25.2743 41.6285C17.48 37.469 10.7569 40.057 8.08771 41.8266V53.2081Z" fill="#1890FF"/>
<path fill-rule="evenodd" clip-rule="evenodd" d="M14.6481 2.71568C14.6048 7.07716 15.3619 10.3892 17.0712 12.3588C18.6286 14.1533 21.1786 15.0392 25.3325 14.2292C23.7716 12.0095 21.8347 10.2046 19.4815 8.97064C19.023 8.73019 18.8462 8.16353 19.0867 7.70499C19.3271 7.24644 19.8938 7.06965 20.3523 7.31011C22.9879 8.69217 25.1221 10.6879 26.8207 13.0864C28.1988 10.2336 27.8442 7.73457 26.1924 5.93751C24.2985 3.87696 20.4728 2.46681 14.6481 2.71568ZM27.9768 14.8929C30.1696 11.1715 30.0942 7.41179 27.5729 4.66866C25.039 1.91189 20.2674 0.463068 13.7835 0.884745C13.245 0.919765 12.8053 1.35893 12.7888 1.91428C12.6456 6.74253 13.3622 10.9457 15.6552 13.5878C17.921 16.1986 21.4829 17.0394 26.4041 15.9183C27.2712 17.4332 27.9937 19.0967 28.5817 20.8701C30.3288 26.1398 30.8557 32.294 30.4796 38.1431C30.2891 39.427 30.1921 40.5719 30.1673 41.49L32.0348 41.6305C32.1684 40.5516 32.2727 39.4532 32.3456 38.343C32.7451 35.6921 33.5665 32.4076 35.0226 29.3416C38.3032 30.5789 41.3304 30.2509 43.5108 28.0085C45.7782 25.6766 46.8749 21.5033 46.6703 15.7755C46.6516 15.2538 46.2567 14.8291 45.752 14.7593C39.1698 13.8483 35.0239 16.3359 33.12 19.6778C32.1859 21.3173 31.8132 23.1328 31.9561 24.7702C32.0739 26.1201 32.5511 27.4083 33.4184 28.3506C33.0166 29.1806 32.6597 30.0244 32.3438 30.8673C32.0935 27.2099 31.4599 23.5934 30.3614 20.2801C29.7299 18.3753 28.941 16.5606 27.9768 14.8929ZM35.8979 27.6667C37.2295 25.3495 38.9584 23.2934 41.1746 21.866C41.6099 21.5857 41.7355 21.0055 41.4551 20.5702C41.1747 20.1349 40.5946 20.0093 40.1593 20.2897C37.699 21.8743 35.8183 24.1005 34.3929 26.5251C34.0909 26.0056 33.8893 25.3549 33.824 24.6072C33.715 23.3583 33.9991 21.9224 34.7491 20.6059C36.1566 18.1355 39.289 15.9674 44.8147 16.5345C44.9013 21.7022 43.8183 25.0027 42.1665 26.7014C40.7045 28.2049 38.6012 28.6306 35.8979 27.6667Z" fill="#1890FF"/>
</g>
<defs>
<clipPath id="clip0_119221:171246">
<rect width="64" height="64" fill="white" transform="translate(0.333984)"/>
</clipPath>
</defs>
</svg>
