<svg width="65" height="64" viewBox="0 0 65 64" fill="none" xmlns="http://www.w3.org/2000/svg">
<g clip-path="url(#clip0_119221:171005)">
<path d="M61.133 0.138672H3.53301C1.7657 0.138672 0.333008 1.57136 0.333008 3.33867V31.072C0.333008 32.8393 1.7657 34.272 3.53301 34.272H61.133C62.9003 34.272 64.333 32.8393 64.333 31.072V3.33867C64.333 1.57136 62.9003 0.138672 61.133 0.138672V0.138672ZM62.1997 31.072C62.1997 31.6611 61.7221 32.1387 61.133 32.1387H3.53301C2.9439 32.1387 2.46634 31.6611 2.46634 31.072V3.33867C2.46634 2.74957 2.9439 2.27201 3.53301 2.27201H61.133C61.7221 2.27201 62.1997 2.74957 62.1997 3.33867V31.072Z" fill="#1890FF"/>
<path d="M58.9996 9.73873C56.6432 9.73873 54.7329 7.82848 54.7329 5.47206C54.7329 4.88296 54.2554 4.4054 53.6663 4.4054H10.9996C10.4105 4.4054 9.93294 4.88296 9.93294 5.47206C9.93294 6.60365 9.48342 7.6889 8.68327 8.48905C7.88311 9.28921 6.79787 9.73873 5.66628 9.73873C5.07717 9.73873 4.59961 10.2163 4.59961 10.8054V23.6054C4.59961 24.1945 5.07717 24.6721 5.66628 24.6721C8.02269 24.6721 9.93294 26.5823 9.93294 28.9387C9.93294 29.5278 10.4105 30.0054 10.9996 30.0054H53.6663C54.2554 30.0054 54.7329 29.5278 54.7329 28.9387C54.7329 26.5823 56.6432 24.6721 58.9996 24.6721C59.5887 24.6721 60.0663 24.1945 60.0663 23.6054V10.8054C60.0663 10.2163 59.5887 9.73873 58.9996 9.73873V9.73873ZM11.9809 27.8721C11.5281 25.1835 9.42155 23.077 6.73294 22.6241V11.7334C9.41833 11.2819 11.5239 9.18053 11.9809 6.49606H25.2716C21.6964 8.86758 19.5471 12.8725 19.5471 17.1627C19.5471 21.453 21.6964 25.4579 25.2716 27.8294L11.9809 27.8721ZM32.3329 6.53873C38.224 6.53873 42.9996 11.3144 42.9996 17.2054C42.9996 23.0964 38.224 27.8721 32.3329 27.8721C26.4419 27.8721 21.6663 23.0964 21.6663 17.2054C21.6663 11.3144 26.4419 6.53873 32.3329 6.53873ZM57.9329 22.6241C55.2443 23.077 53.1378 25.1835 52.6849 27.8721H39.3943C42.9695 25.5005 45.1188 21.4956 45.1188 17.2054C45.1188 12.9152 42.9695 8.91024 39.3943 6.53873H52.6849C53.1583 9.20662 55.2604 11.2873 57.9329 11.7334V22.6241Z" fill="#1890FF"/>
<path d="M32.3331 22.5387C31.1549 22.5387 30.1997 21.5836 30.1997 20.4053C30.1997 19.8162 29.7222 19.3387 29.1331 19.3387C28.544 19.3387 28.0664 19.8162 28.0664 20.4053C28.0679 22.3498 29.3837 24.0472 31.2664 24.5333V25.76C31.2664 26.3491 31.744 26.8267 32.3331 26.8267C32.9222 26.8267 33.3997 26.3491 33.3997 25.76V24.5333C35.4355 23.9613 36.7452 21.9843 36.4779 19.8866C36.2107 17.7889 34.4473 16.2034 32.3331 16.16C31.1549 16.16 30.1997 15.2049 30.1997 14.0267C30.1997 12.8485 31.1549 11.8933 32.3331 11.8933C33.5113 11.8933 34.4664 12.8485 34.4664 14.0267C34.4664 14.6158 34.944 15.0933 35.5331 15.0933C36.1222 15.0933 36.5997 14.6158 36.5997 14.0267C36.5934 12.0862 35.2786 10.3944 33.3997 9.90935V8.67201C33.3997 8.08291 32.9222 7.60535 32.3331 7.60535C31.744 7.60535 31.2664 8.08291 31.2664 8.67201V9.88801C29.212 10.4457 27.883 12.4324 28.1517 14.5441C28.4203 16.6559 30.2045 18.2465 32.3331 18.272C33.5113 18.272 34.4664 19.2271 34.4664 20.4053C34.4664 21.5836 33.5113 22.5387 32.3331 22.5387V22.5387Z" fill="#1890FF"/>
<path d="M20.0662 46.0054C20.9499 46.0054 21.6662 45.2891 21.6662 44.4054V38.0054C21.6662 37.1217 20.9499 36.4054 20.0662 36.4054H10.4662C9.58256 36.4054 8.86621 37.1217 8.86621 38.0054V44.4054C8.86621 45.2891 9.58256 46.0054 10.4662 46.0054H20.0662ZM10.9995 38.5387H19.5329V43.8721H10.9995V38.5387Z" fill="#1890FF"/>
<path d="M37.1336 50.2721C38.0172 50.2721 38.7336 49.5557 38.7336 48.6721V38.0054C38.7336 37.1217 38.0172 36.4054 37.1336 36.4054H27.5336C26.6499 36.4054 25.9336 37.1217 25.9336 38.0054V48.6721C25.9336 49.5557 26.6499 50.2721 27.5336 50.2721H37.1336ZM28.0669 38.5387H36.6003V48.1387H28.0669V38.5387Z" fill="#1890FF"/>
<path d="M54.1992 36.4054H44.5992C43.7155 36.4054 42.9992 37.1217 42.9992 38.0054V52.4054H42.0499C41.4247 52.4124 40.861 52.7828 40.6064 53.3538C40.3519 53.9248 40.4532 54.5918 40.8659 55.0614L48.2152 63.3281C48.5188 63.6688 48.9535 63.8637 49.4099 63.8637C49.8663 63.8637 50.3009 63.6688 50.6045 63.3281L57.9325 55.0614C58.3464 54.5903 58.4469 53.9209 58.1897 53.349C57.9325 52.7772 57.3649 52.4083 56.7379 52.4054H55.7992V38.0054C55.7992 37.1217 55.0829 36.4054 54.1992 36.4054V36.4054ZM49.3992 61.4614L43.2445 54.5387H43.5325C44.4162 54.5387 45.1325 53.8224 45.1325 52.9387V38.5387H53.6659V52.9387C53.6659 53.8224 54.3822 54.5387 55.2659 54.5387H55.5539L49.3992 61.4614Z" fill="#1890FF"/>
</g>
<defs>
<clipPath id="clip0_119221:171005">
<rect width="64" height="64" fill="white" transform="translate(0.333008)"/>
</clipPath>
</defs>
</svg>
