<svg width="38" height="38" viewBox="0 0 38 38" fill="none" xmlns="http://www.w3.org/2000/svg">
<path d="M36.5156 21.6348C37.3354 21.6348 38 20.9702 38 20.1504V10.4277C38 7.1538 35.3364 4.49023 32.0625 4.49023H5.9375C2.66356 4.49023 0 7.1538 0 10.4277V27.5723C0 30.8462 2.66356 33.5098 5.9375 33.5098H32.0625C35.3364 33.5098 38 30.8462 38 27.5723C38 26.7524 37.3354 26.0879 36.5156 26.0879C35.6958 26.0879 35.0312 26.7524 35.0312 27.5723C35.0312 29.2092 33.6995 30.541 32.0625 30.541H5.9375C4.30053 30.541 2.96875 29.2092 2.96875 27.5723V10.7423L15.8646 18.7612C16.8316 19.3625 17.9158 19.6631 19 19.6631C20.0842 19.6631 21.1684 19.3625 22.1354 18.7612L35.0312 10.7423V20.1504C35.0312 20.9702 35.6958 21.6348 36.5156 21.6348ZM20.5676 16.2401C19.6007 16.8413 18.3993 16.8414 17.4324 16.2401L4.20739 8.01652C4.69486 7.66576 5.29246 7.45898 5.9375 7.45898H32.0625C32.7075 7.45898 33.3051 7.66583 33.7926 8.01659L20.5676 16.2401Z" fill="#1E5DC5"/>
</svg>
