<svg width="128" height="128" viewBox="0 0 128 128" fill="none" xmlns="http://www.w3.org/2000/svg">
<path d="M103.77 59.22V10.63H110V8.63H103.77V4.63H85.3797V8.63H31.4397V4.63H13.0497V8.63H6.71973V10.63H13.0497V117.37H6.71973V119.37H13.0497V123.37H31.4397V119.37H85.3797V123.37H103.77V119.37H110V117.37H103.77V68.79H112.47L128 85.79V82.79L113.35 66.79H103.77L84.1197 66.86L76.9297 71V91.8C76.9297 92.67 76.4897 93.25 76.1997 93.25H42.2597V99.45H35.9397V88.89C35.9397 87.37 36.7497 86.31 37.4797 86.31H61.6697C63.1997 86.31 64.3997 84.8 64.3997 82.86V79.6L60.7897 74.79V71.48L64.3997 66.67V61.33L60.7897 56.52V53.21L64.3997 48.4V45.15C64.3997 43.21 63.1897 41.69 61.6597 41.69H37.4797C36.7497 41.69 35.9397 40.63 35.9397 39.11V28.55H42.2597V34.75H76.1997C76.4897 34.75 76.9297 35.33 76.9297 36.21V57L84.1197 61.14L103.77 61.21H113.35L128 45.21V42.21L112.47 59.21L103.77 59.22ZM85.3797 10.63V17.77H31.4397V10.63H85.3797ZM31.4397 117.37V110.23H85.3797V117.37H31.4397ZM76.1997 95.25C77.7297 95.25 78.9297 93.73 78.9297 91.8V72.16L84.6597 68.86L101.77 68.79V121.33H87.3797V108.23H62.6897V95.23L76.1997 95.25ZM44.2597 32.75V26.55H33.9397V39.11C33.9397 41.68 35.4997 43.69 37.4797 43.69H61.6597C61.9497 43.69 62.3997 44.3 62.3997 45.15V47.73L58.7897 52.54V57.19L62.3997 62V66L58.7897 70.81V75.46L62.3997 80.27V82.86C62.3997 83.73 61.9597 84.31 61.6697 84.31H37.4797C35.4797 84.31 33.9397 86.31 33.9397 88.89V101.45H44.2597V95.25H60.6897V108.25H29.4397V121.35H15.0497V6.67H29.4397V19.77H60.6897V32.77L44.2597 32.75ZM78.9297 55.85V36.21C78.9297 34.27 77.7297 32.75 76.1997 32.75H62.6897V19.75H87.3797V6.67H101.77V59.21L84.6597 59.16L78.9297 55.85Z" fill="#1890FF"/>
</svg>
