<svg width="38" height="38" viewBox="0 0 38 38" fill="none" xmlns="http://www.w3.org/2000/svg">
<g clip-path="url(#clip0)">
<path d="M37.9963 30.6191C37.9433 29.1492 37.331 27.7775 36.2722 26.7566C34.1992 24.7577 32.4624 23.6037 30.8063 23.1252C28.5244 22.4657 26.4107 23.0654 24.5243 24.9076C24.5215 24.9104 24.5187 24.9132 24.5158 24.916L22.509 26.9079C21.2547 26.2009 18.8159 24.6485 16.181 22.0136L15.9857 21.8184C13.3503 19.1831 11.798 16.7438 11.0917 15.491L13.0837 13.4841C13.0865 13.4813 13.0894 13.4784 13.0922 13.4755C14.9344 11.5894 15.534 9.47575 14.8746 7.1936C14.396 5.53756 13.2421 3.80069 11.2431 1.72769C10.2223 0.669106 8.85064 0.056801 7.38074 0.00380881C5.90995 -0.0492576 4.49861 0.462703 3.40403 1.44521L3.36143 1.48351C3.34168 1.50125 3.32239 1.51958 3.30353 1.53836C1.12455 3.71734 -0.0176798 6.76781 0.000206891 10.3601C0.0307108 16.4625 3.38458 23.4411 8.97169 29.0282C10.0252 30.0817 11.2226 31.1243 12.5305 32.1272C13.181 32.6259 14.1128 32.503 14.6116 31.8524C15.1105 31.2018 14.9874 30.2701 14.3368 29.7712C13.1319 28.8473 12.0331 27.8911 11.0709 26.9291C6.02432 21.8825 2.99553 15.683 2.96888 10.3453C2.95515 7.57872 3.78737 5.26956 5.37587 3.6645L5.38723 3.65426C6.46614 2.68578 8.09962 2.74471 9.10618 3.78845C12.9492 7.77384 12.6709 9.65536 10.9728 11.3967L8.2212 14.1689C7.78969 14.6037 7.66953 15.2589 7.91868 15.8185C7.98852 15.9754 9.67841 19.7096 13.887 23.9181L14.0824 24.1133C18.2905 28.3214 22.0247 30.0112 22.1816 30.081C22.7411 30.3303 23.3964 30.2101 23.8311 29.7786L26.6034 27.0269C28.3449 25.3287 30.2265 25.0506 34.2116 28.8936C35.2554 29.9 35.3143 31.5336 34.346 32.6123L34.3355 32.624C32.7436 34.1996 30.459 35.0311 27.7225 35.0311C27.7 35.0311 27.6774 35.0311 27.6548 35.031C25.4675 35.0201 22.9346 34.4205 20.3302 33.2971C19.5776 32.9723 18.704 33.3193 18.3794 34.0721C18.0547 34.8249 18.4016 35.6984 19.1544 36.0231C22.1649 37.3216 25.0198 37.9866 27.64 37.9997C27.6678 37.9998 27.6955 37.9999 27.7233 37.9999C31.2794 37.9999 34.2996 36.8585 36.4617 34.6964C36.4805 34.6775 36.4988 34.6583 36.5165 34.6385L36.555 34.5957C37.5375 33.5012 38.0493 32.0889 37.9963 30.6191Z" fill="#1E5DC5"/>
</g>
<defs>
<clipPath id="clip0">
<rect width="38" height="38" fill="white"/>
</clipPath>
</defs>
</svg>
