<svg width="72" height="72" viewBox="0 0 72 72" fill="none" xmlns="http://www.w3.org/2000/svg">
<path fill-rule="evenodd" clip-rule="evenodd" d="M36.0903 6.36964C36.8831 6.36964 37.5257 7.01243 37.5257 7.80504C37.5257 8.59805 36.8831 9.24083 36.0903 9.24083C35.2979 9.24083 34.6553 8.59805 34.6553 7.80504C34.6553 7.01243 35.2979 6.36964 36.0903 6.36964ZM29.9541 30.6969C31.0107 30.6969 31.8672 31.5536 31.8672 32.6105C31.8672 33.6675 31.0107 34.5242 29.9541 34.5242C28.8974 34.5242 28.041 33.6675 28.041 32.6105C28.041 31.5536 28.8974 30.6969 29.9541 30.6969ZM29.9541 24.0882C30.7469 24.0882 31.3891 24.7306 31.3891 25.5232C31.3891 26.3158 30.7469 26.959 29.9541 26.959C29.1613 26.959 28.5191 26.3158 28.5191 25.5232C28.5191 24.7306 29.1613 24.0882 29.9541 24.0882ZM36.0903 27.6313C36.8831 27.6313 37.5257 28.2741 37.5257 29.0671C37.5257 29.8597 36.8831 30.5025 36.0903 30.5025C35.2979 30.5025 34.6553 29.8597 34.6553 29.0671C34.6553 28.2741 35.2979 27.6313 36.0903 27.6313ZM42.2262 24.0882C43.0186 24.0882 43.6608 24.7306 43.6608 25.5232C43.6608 26.3158 43.0186 26.959 42.2262 26.959C41.4338 26.959 40.7912 26.3158 40.7912 25.5232C40.7912 24.7306 41.4338 24.0882 42.2262 24.0882ZM36.0903 20.5439C36.8831 20.5439 37.5257 21.1863 37.5257 21.9793C37.5257 22.7723 36.8831 23.4147 36.0903 23.4147C35.2979 23.4147 34.6553 22.7723 34.6553 21.9793C34.6553 21.1863 35.2979 20.5439 36.0903 20.5439ZM29.9541 9.91273C30.7469 9.91273 31.3891 10.5555 31.3891 11.3481C31.3891 12.1411 30.7469 12.7839 29.9541 12.7839C29.1613 12.7839 28.5191 12.1411 28.5191 11.3481C28.5191 10.5555 29.1613 9.91273 29.9541 9.91273V9.91273ZM23.8178 13.457C24.6102 13.457 25.2524 14.0998 25.2524 14.8924C25.2524 15.685 24.6102 16.3274 23.8178 16.3274C23.0254 16.3274 22.3828 15.685 22.3828 14.8924C22.3828 14.0998 23.0254 13.457 23.8178 13.457V13.457ZM17.6819 17.0005C18.4743 17.0005 19.1169 17.6429 19.1169 18.4359C19.1169 19.2289 18.4743 19.8713 17.6819 19.8713C16.8895 19.8713 16.2465 19.2289 16.2465 18.4359C16.2465 17.6429 16.8895 17.0005 17.6819 17.0005ZM17.6819 24.0882C18.4743 24.0882 19.1169 24.7306 19.1169 25.5232C19.1169 26.3158 18.4743 26.959 17.6819 26.959C16.8895 26.959 16.2465 26.3158 16.2465 25.5232C16.2465 24.7306 16.8895 24.0882 17.6819 24.0882ZM17.6819 31.1748C18.4743 31.1748 19.1169 31.8179 19.1169 32.6105C19.1169 33.4032 18.4743 34.0459 17.6819 34.0459C16.8895 34.0459 16.2465 33.4032 16.2465 32.6105C16.2465 31.8179 16.8895 31.1748 17.6819 31.1748ZM17.6819 38.2621C18.4743 38.2621 19.1169 38.9045 19.1169 39.6979C19.1169 40.4905 18.4743 41.1329 17.6819 41.1329C16.8895 41.1329 16.2465 40.4905 16.2465 39.6979C16.2465 38.9045 16.8895 38.2621 17.6819 38.2621V38.2621ZM17.6819 45.3494C18.4743 45.3494 19.1169 45.9918 19.1169 46.7845C19.1169 47.5778 18.4743 48.2202 17.6819 48.2202C16.8895 48.2202 16.2465 47.5778 16.2465 46.7845C16.2465 45.9918 16.8895 45.3494 17.6819 45.3494ZM17.6819 52.4368C18.4743 52.4368 19.1169 53.0796 19.1169 53.8722C19.1169 54.6652 18.4743 55.308 17.6819 55.308C16.8895 55.308 16.2465 54.6652 16.2465 53.8722C16.2465 53.0796 16.8895 52.4368 17.6819 52.4368ZM23.8178 55.9803C24.6102 55.9803 25.2524 56.623 25.2524 57.416C25.2524 58.2087 24.6102 58.8515 23.8178 58.8515C23.0254 58.8515 22.3828 58.2087 22.3828 57.416C22.3828 56.623 23.0254 55.9803 23.8178 55.9803ZM29.9541 52.4368C30.7469 52.4368 31.3891 53.0796 31.3891 53.8722C31.3891 54.6652 30.7469 55.308 29.9541 55.308C29.1613 55.308 28.5191 54.6652 28.5191 53.8722C28.5191 53.0796 29.1613 52.4368 29.9541 52.4368ZM29.9541 45.3494C30.7469 45.3494 31.3891 45.9918 31.3891 46.7845C31.3891 47.5778 30.7469 48.2202 29.9541 48.2202C29.1613 48.2202 28.5191 47.5778 28.5191 46.7845C28.5191 45.9918 29.1613 45.3494 29.9541 45.3494ZM36.0903 48.8937C36.8831 48.8937 37.5257 49.5361 37.5257 50.3287C37.5257 51.1213 36.8831 51.7641 36.0903 51.7641C35.2979 51.7641 34.6553 51.1213 34.6553 50.3287C34.6553 49.5361 35.2979 48.8937 36.0903 48.8937ZM42.2262 52.4368C43.0186 52.4368 43.6608 53.0796 43.6608 53.8722C43.6608 54.6652 43.0186 55.308 42.2262 55.308C41.4338 55.308 40.7912 54.6652 40.7912 53.8722C40.7912 53.0796 41.4338 52.4368 42.2262 52.4368ZM48.3621 55.9803C49.1553 55.9803 49.7975 56.623 49.7975 57.416C49.7975 58.2087 49.1553 58.8515 48.3621 58.8515C47.5697 58.8515 46.9275 58.2087 46.9275 57.416C46.9275 56.623 47.5697 55.9803 48.3621 55.9803ZM54.4987 52.4368C55.2912 52.4368 55.9338 53.0796 55.9338 53.8722C55.9338 54.6652 55.2912 55.308 54.4987 55.308C53.7063 55.308 53.0633 54.6652 53.0633 53.8722C53.0633 53.0796 53.7063 52.4368 54.4987 52.4368ZM54.4987 45.3494C55.2912 45.3494 55.9338 45.9918 55.9338 46.7845C55.9338 47.5778 55.2912 48.2202 54.4987 48.2202C53.7063 48.2202 53.0633 47.5778 53.0633 46.7845C53.0633 45.9918 53.7063 45.3494 54.4987 45.3494ZM48.3621 41.806C49.1553 41.806 49.7975 42.4484 49.7975 43.2414C49.7975 44.034 49.1553 44.6764 48.3621 44.6764C47.5697 44.6764 46.9275 44.034 46.9275 43.2414C46.9275 42.4484 47.5697 41.806 48.3621 41.806ZM42.2262 38.2621C43.0186 38.2621 43.6608 38.9045 43.6608 39.6979C43.6608 40.4905 43.0186 41.1329 42.2262 41.1329C41.4338 41.1329 40.7912 40.4905 40.7912 39.6979C40.7912 38.9045 41.4338 38.2621 42.2262 38.2621ZM48.3625 34.719C49.1553 34.719 49.7979 35.3618 49.7979 36.1548C49.7979 36.947 49.1553 37.5894 48.3625 37.5894C47.5701 37.5894 46.9279 36.947 46.9279 36.1548C46.9279 35.3618 47.5701 34.719 48.3625 34.719ZM54.4987 31.1748C55.2912 31.1748 55.9338 31.8179 55.9338 32.6105C55.9338 33.4032 55.2912 34.0459 54.4987 34.0459C53.7063 34.0459 53.0633 33.4032 53.0633 32.6105C53.0633 31.8179 53.7063 31.1748 54.4987 31.1748ZM54.4987 24.0882C55.2912 24.0882 55.9338 24.7306 55.9338 25.5232C55.9338 26.3158 55.2912 26.959 54.4987 26.959C53.7063 26.959 53.0633 26.3158 53.0633 25.5232C53.0633 24.7306 53.7063 24.0882 54.4987 24.0882ZM54.4987 17.0005C55.2912 17.0005 55.9338 17.6429 55.9338 18.4359C55.9338 19.2289 55.2912 19.8713 54.4987 19.8713C53.7063 19.8713 53.0633 19.2289 53.0633 18.4359C53.0633 17.6429 53.7063 17.0005 54.4987 17.0005ZM48.3621 13.457C49.1553 13.457 49.7975 14.0998 49.7975 14.8924C49.7975 15.685 49.1553 16.3274 48.3621 16.3274C47.5697 16.3274 46.9275 15.685 46.9275 14.8924C46.9275 14.0998 47.5697 13.457 48.3621 13.457V13.457ZM42.2262 9.91273C43.0186 9.91273 43.6608 10.5555 43.6608 11.3481C43.6608 12.1411 43.0186 12.7839 42.2262 12.7839C41.4338 12.7839 40.7912 12.1411 40.7912 11.3481C40.7912 10.5555 41.4338 9.91273 42.2262 9.91273V9.91273ZM48.3629 47.9365C49.6838 47.9365 50.7544 49.0074 50.7544 50.3287C50.7544 51.65 49.6838 52.7213 48.3629 52.7213C47.0419 52.7213 45.9713 51.65 45.9713 50.3287C45.9713 49.0074 47.0419 47.9365 48.3629 47.9365ZM42.2262 44.3926C43.5471 44.3926 44.6178 45.4636 44.6178 46.7848C44.6178 48.1061 43.5471 49.177 42.2262 49.177C40.9057 49.177 39.8347 48.1061 39.8347 46.7848C39.8347 45.4636 40.9057 44.3926 42.2262 44.3926ZM36.0907 40.8488C37.4117 40.8488 38.4823 41.9201 38.4823 43.2414C38.4823 44.5627 37.4117 45.6336 36.0907 45.6336C34.7698 45.6336 33.6988 44.5627 33.6988 43.2414C33.6988 41.9201 34.7698 40.8488 36.0907 40.8488ZM23.8182 47.9365C25.1391 47.9365 26.2101 49.0074 26.2101 50.3287C26.2101 51.65 25.1391 52.7213 23.8182 52.7213C22.4973 52.7213 21.4266 51.65 21.4266 50.3287C21.4266 49.0074 22.4973 47.9365 23.8182 47.9365ZM23.8178 40.8488C25.1387 40.8488 26.2094 41.9201 26.2094 43.2414C26.2094 44.5627 25.1387 45.6336 23.8178 45.6336C22.4969 45.6336 21.4262 44.5627 21.4262 43.2414C21.4262 41.9201 22.4969 40.8488 23.8178 40.8488ZM23.8182 33.7622C25.1391 33.7622 26.2101 34.8331 26.2101 36.1544C26.2101 37.4757 25.1391 38.5466 23.8182 38.5466C22.4973 38.5466 21.4266 37.4757 21.4266 36.1544C21.4266 34.8331 22.4973 33.7622 23.8182 33.7622ZM23.8178 26.6745C25.1387 26.6745 26.2094 27.7458 26.2094 29.0671C26.2094 30.3884 25.1387 31.4593 23.8178 31.4593C22.4969 31.4593 21.4262 30.3884 21.4262 29.0671C21.4262 27.7458 22.4969 26.6745 23.8178 26.6745ZM29.9541 37.3053C31.275 37.3053 32.346 38.3762 32.346 39.6979C32.346 41.0192 31.275 42.0901 29.9541 42.0901C28.6331 42.0901 27.5625 41.0192 27.5625 39.6979C27.5625 38.3762 28.6331 37.3053 29.9541 37.3053ZM36.0907 33.7622C37.4117 33.7622 38.4823 34.8331 38.4823 36.1544C38.4823 37.4757 37.4117 38.5466 36.0907 38.5466C34.7698 38.5466 33.6988 37.4757 33.6988 36.1544C33.6988 34.8331 34.7698 33.7622 36.0907 33.7622ZM42.2262 30.2183C43.5471 30.2183 44.6178 31.2893 44.6178 32.6105C44.6178 33.9318 43.5471 35.0028 42.2262 35.0028C40.9057 35.0028 39.8347 33.9318 39.8347 32.6105C39.8347 31.2893 40.9057 30.2183 42.2262 30.2183ZM48.3625 26.6745C49.6834 26.6745 50.754 27.7458 50.754 29.0671C50.754 30.3884 49.6834 31.4593 48.3625 31.4593C47.0416 31.4593 45.9709 30.3884 45.9709 29.0671C45.9709 27.7458 47.0416 26.6745 48.3625 26.6745ZM48.3629 19.5871C49.6838 19.5871 50.7544 20.6581 50.7544 21.9793C50.7544 23.3006 49.6838 24.3719 48.3629 24.3719C47.0419 24.3719 45.9713 23.3006 45.9713 21.9793C45.9713 20.6581 47.0419 19.5871 48.3629 19.5871ZM42.2262 16.0437C43.5471 16.0437 44.6178 17.1146 44.6178 18.4359C44.6178 19.7571 43.5471 20.8285 42.2262 20.8285C40.9057 20.8285 39.8347 19.7571 39.8347 18.4359C39.8347 17.1146 40.9057 16.0437 42.2262 16.0437V16.0437ZM36.0907 12.5002C37.4117 12.5002 38.4823 13.5711 38.4823 14.8924C38.4823 16.2137 37.4117 17.2846 36.0907 17.2846C34.7698 17.2846 33.6988 16.2137 33.6988 14.8924C33.6988 13.5711 34.7698 12.5002 36.0907 12.5002ZM29.9541 16.0437C31.275 16.0437 32.346 17.1146 32.346 18.4359C32.346 19.7571 31.275 20.8285 29.9541 20.8285C28.6331 20.8285 27.5625 19.7571 27.5625 18.4359C27.5625 17.1146 28.6331 16.0437 29.9541 16.0437V16.0437ZM66.7713 53.4631C66.9975 53.4631 67.1807 53.6463 67.1807 53.8722C67.1807 54.0981 66.9975 54.2813 66.7713 54.2813C66.5454 54.2813 66.3623 54.0981 66.3623 53.8722C66.3623 53.6463 66.5454 53.4631 66.7713 53.4631ZM66.7713 46.3753C66.9975 46.3753 67.1807 46.5586 67.1807 46.7848C67.1807 47.0108 66.9975 47.194 66.7713 47.194C66.5454 47.194 66.3623 47.0108 66.3623 46.7848C66.3623 46.5586 66.5454 46.3753 66.7713 46.3753ZM66.7713 39.2884C66.9975 39.2884 67.1807 39.4716 67.1807 39.6975C67.1807 39.9234 66.9975 40.1066 66.7713 40.1066C66.5454 40.1066 66.3623 39.9234 66.3623 39.6975C66.3623 39.4716 66.5454 39.2884 66.7713 39.2884V39.2884ZM66.7713 32.2014C66.9975 32.2014 67.1807 32.3846 67.1807 32.6105C67.1807 32.8365 66.9975 33.0197 66.7713 33.0197C66.5454 33.0197 66.3623 32.8365 66.3623 32.6105C66.3623 32.3846 66.5454 32.2014 66.7713 32.2014ZM66.7713 25.1141C66.9975 25.1141 67.1807 25.2973 67.1807 25.5232C67.1807 25.7491 66.9975 25.9323 66.7713 25.9323C66.5454 25.9323 66.3623 25.7491 66.3623 25.5232C66.3623 25.2973 66.5454 25.1141 66.7713 25.1141ZM66.7713 18.0264C66.9975 18.0264 67.1807 18.2096 67.1807 18.4359C67.1807 18.6618 66.9975 18.845 66.7713 18.845C66.5454 18.845 66.3623 18.6618 66.3623 18.4359C66.3623 18.2096 66.5454 18.0264 66.7713 18.0264ZM36.0903 71.1812C36.3162 71.1812 36.4993 71.3644 36.4993 71.5907C36.4993 71.8166 36.3162 71.9999 36.0903 71.9999C35.8645 71.9999 35.6813 71.8166 35.6813 71.5907C35.6813 71.3644 35.8645 71.1812 36.0903 71.1812ZM29.9541 67.6378C30.1799 67.6378 30.3631 67.821 30.3631 68.0469C30.3631 68.2728 30.1799 68.456 29.9541 68.456C29.7282 68.456 29.5451 68.2728 29.5451 68.0469C29.5451 67.821 29.7282 67.6378 29.9541 67.6378ZM42.2258 67.6378C42.4521 67.6378 42.6352 67.821 42.6352 68.0469C42.6352 68.2728 42.4521 68.456 42.2258 68.456C42 68.456 41.8168 68.2728 41.8168 68.0469C41.8168 67.821 42 67.6378 42.2258 67.6378ZM36.0903 64.0939C36.3166 64.0939 36.4997 64.2771 36.4997 64.5034C36.4997 64.7293 36.3166 64.9125 36.0903 64.9125C35.8645 64.9125 35.6813 64.7293 35.6813 64.5034C35.6813 64.2771 35.8645 64.0939 36.0903 64.0939ZM54.4987 60.2418C54.895 60.2418 55.2163 60.5632 55.2163 60.9595C55.2163 61.3562 54.895 61.6776 54.4987 61.6776C54.1022 61.6776 53.7809 61.3562 53.7809 60.9595C53.7809 60.5632 54.1022 60.2418 54.4987 60.2418ZM42.2254 60.2418C42.622 60.2418 42.9433 60.5632 42.9433 60.9595C42.9433 61.3562 42.622 61.6776 42.2254 61.6776C41.8292 61.6776 41.5083 61.3562 41.5083 60.9595C41.5083 60.5632 41.8292 60.2418 42.2254 60.2418ZM60.6346 56.698C61.0308 56.698 61.3525 57.0197 61.3525 57.416C61.3525 57.8124 61.0308 58.1334 60.6346 58.1334C60.2384 58.1334 59.9175 57.8124 59.9175 57.416C59.9175 57.0197 60.2384 56.698 60.6346 56.698ZM60.6354 49.6106C61.0316 49.6106 61.3525 49.9324 61.3525 50.3287C61.3525 50.725 61.0316 51.0464 60.6354 51.0464C60.2392 51.0464 59.9179 50.725 59.9179 50.3287C59.9179 49.9324 60.2392 49.6106 60.6354 49.6106ZM60.6346 42.5233C61.0308 42.5233 61.3525 42.8447 61.3525 43.241C61.3525 43.6373 61.0308 43.9591 60.6346 43.9591C60.2384 43.9591 59.9175 43.6373 59.9175 43.241C59.9175 42.8447 60.2384 42.5233 60.6346 42.5233ZM60.6354 35.4367C61.0316 35.4367 61.3525 35.7577 61.3525 36.1548C61.3525 36.5507 61.0316 36.8717 60.6354 36.8717C60.2392 36.8717 59.9179 36.5507 59.9179 36.1548C59.9179 35.7577 60.2392 35.4367 60.6354 35.4367ZM60.6346 28.349C61.0308 28.349 61.3525 28.6704 61.3525 29.0671C61.3525 29.4634 61.0308 29.7844 60.6346 29.7844C60.2384 29.7844 59.9175 29.4634 59.9175 29.0671C59.9175 28.6704 60.2384 28.349 60.6346 28.349ZM60.6354 21.2616C61.0316 21.2616 61.3525 21.5826 61.3525 21.9793C61.3525 22.3756 61.0316 22.697 60.6354 22.697C60.2392 22.697 59.9179 22.3756 59.9179 21.9793C59.9179 21.5826 60.2392 21.2616 60.6354 21.2616ZM60.6346 14.1743C61.0308 14.1743 61.3525 14.4957 61.3525 14.892C61.3525 15.2887 61.0308 15.6101 60.6346 15.6101C60.2384 15.6101 59.9175 15.2887 59.9175 14.892C59.9175 14.4957 60.2384 14.1743 60.6346 14.1743ZM54.4987 38.9798C54.895 38.9798 55.2163 39.3008 55.2163 39.6975C55.2163 40.0942 54.895 40.4152 54.4987 40.4152C54.1022 40.4152 53.7809 40.0942 53.7809 39.6975C53.7809 39.3008 54.1022 38.9798 54.4987 38.9798V38.9798ZM54.4987 10.6304C54.895 10.6304 55.2163 10.9518 55.2163 11.3481C55.2163 11.7448 54.895 12.0658 54.4987 12.0658C54.1022 12.0658 53.7809 11.7448 53.7809 11.3481C53.7809 10.9518 54.1022 10.6304 54.4987 10.6304ZM48.3625 7.08657C48.7591 7.08657 49.08 7.40835 49.08 7.80466C49.08 8.20096 48.7591 8.52236 48.3625 8.52236C47.9663 8.52236 47.645 8.20096 47.645 7.80466C47.645 7.40835 47.9663 7.08657 48.3625 7.08657ZM42.2254 3.54348C42.622 3.54348 42.9433 3.86487 42.9433 4.26118C42.9433 4.65749 42.622 4.97849 42.2254 4.97849C41.8292 4.97849 41.5083 4.65749 41.5083 4.26118C41.5083 3.86487 41.8292 3.54348 42.2254 3.54348ZM36.0903 0C36.4865 0 36.8078 0.321005 36.8078 0.717312C36.8078 1.11401 36.4865 1.4354 36.0903 1.4354C35.6938 1.4354 35.3724 1.11401 35.3724 0.717312C35.3724 0.321005 35.6938 0 36.0903 0V0ZM29.9541 3.54348C30.3503 3.54348 30.6712 3.86487 30.6712 4.26118C30.6712 4.65749 30.3503 4.97849 29.9541 4.97849C29.5579 4.97849 29.2366 4.65749 29.2366 4.26118C29.2366 3.86487 29.5579 3.54348 29.9541 3.54348ZM23.8178 7.08657C24.214 7.08657 24.5357 7.40835 24.5357 7.80466C24.5357 8.20096 24.214 8.52236 23.8178 8.52236C23.4216 8.52236 23.1007 8.20096 23.1007 7.80466C23.1007 7.40835 23.4216 7.08657 23.8178 7.08657ZM17.6819 10.6304C18.0781 10.6304 18.399 10.9518 18.399 11.3481C18.399 11.7448 18.0781 12.0658 17.6819 12.0658C17.285 12.0658 16.964 11.7448 16.964 11.3481C16.964 10.9518 17.285 10.6304 17.6819 10.6304ZM11.5453 14.1743C11.9415 14.1743 12.2628 14.4957 12.2628 14.892C12.2628 15.2887 11.9415 15.6101 11.5453 15.6101C11.1491 15.6101 10.8282 15.2887 10.8282 14.892C10.8282 14.4957 11.1491 14.1743 11.5453 14.1743ZM11.5457 21.2616C11.9423 21.2616 12.2632 21.5826 12.2632 21.9793C12.2632 22.3756 11.9423 22.697 11.5457 22.697C11.1495 22.697 10.8282 22.3756 10.8282 21.9793C10.8282 21.5826 11.1495 21.2616 11.5457 21.2616ZM11.5453 28.349C11.9415 28.349 12.2628 28.6704 12.2628 29.0671C12.2628 29.4634 11.9415 29.7844 11.5453 29.7844C11.1491 29.7844 10.8282 29.4634 10.8282 29.0671C10.8282 28.6704 11.1491 28.349 11.5453 28.349ZM11.5457 35.4367C11.9423 35.4367 12.2632 35.7577 12.2632 36.1548C12.2632 36.5507 11.9423 36.8717 11.5457 36.8717C11.1495 36.8717 10.8282 36.5507 10.8282 36.1548C10.8282 35.7577 11.1495 35.4367 11.5457 35.4367ZM11.5453 42.5233C11.9415 42.5233 12.2628 42.8447 12.2628 43.241C12.2628 43.6373 11.9415 43.9591 11.5453 43.9591C11.1491 43.9591 10.8282 43.6373 10.8282 43.241C10.8282 42.8447 11.1491 42.5233 11.5453 42.5233ZM11.5457 49.6106C11.9423 49.6106 12.2632 49.9324 12.2632 50.3287C12.2632 50.725 11.9423 51.0464 11.5457 51.0464C11.1495 51.0464 10.8282 50.725 10.8282 50.3287C10.8282 49.9324 11.1495 49.6106 11.5457 49.6106ZM11.5453 56.698C11.9415 56.698 12.2628 57.0197 12.2628 57.416C12.2628 57.8124 11.9415 58.1334 11.5453 58.1334C11.1491 58.1334 10.8282 57.8124 10.8282 57.416C10.8282 57.0197 11.1491 56.698 11.5453 56.698ZM17.6819 60.2418C18.0781 60.2418 18.399 60.5632 18.399 60.9595C18.399 61.3562 18.0781 61.6776 17.6819 61.6776C17.285 61.6776 16.964 61.3562 16.964 60.9595C16.964 60.5632 17.285 60.2418 17.6819 60.2418ZM23.8178 63.7857C24.214 63.7857 24.5357 64.1067 24.5357 64.503C24.5357 64.8993 24.214 65.2211 23.8178 65.2211C23.4216 65.2211 23.1007 64.8993 23.1007 64.503C23.1007 64.1067 23.4216 63.7857 23.8178 63.7857ZM29.9541 60.2418C30.3503 60.2418 30.6712 60.5632 30.6712 60.9595C30.6712 61.3562 30.3503 61.6776 29.9541 61.6776C29.5579 61.6776 29.2366 61.3562 29.2366 60.9595C29.2366 60.5632 29.5579 60.2418 29.9541 60.2418ZM36.0903 56.698C36.4865 56.698 36.8078 57.0197 36.8078 57.416C36.8078 57.8124 36.4865 58.1334 36.0903 58.1334C35.6938 58.1334 35.3724 57.8124 35.3724 57.416C35.3724 57.0197 35.6938 56.698 36.0903 56.698ZM48.3625 63.7857C48.7591 63.7857 49.08 64.1067 49.08 64.503C49.08 64.8993 48.7591 65.2211 48.3625 65.2211C47.9663 65.2211 47.645 64.8993 47.645 64.503C47.645 64.1067 47.9663 63.7857 48.3625 63.7857ZM5.40901 53.4631C5.63524 53.4631 5.8184 53.6463 5.8184 53.8722C5.8184 54.0981 5.63524 54.2813 5.40901 54.2813C5.18316 54.2813 5 54.0981 5 53.8722C5 53.6463 5.18316 53.4631 5.40901 53.4631ZM5.40901 46.3753C5.63524 46.3753 5.8184 46.5586 5.8184 46.7848C5.8184 47.0108 5.63524 47.194 5.40901 47.194C5.18316 47.194 5 47.0108 5 46.7848C5 46.5586 5.18316 46.3753 5.40901 46.3753ZM5.40901 39.2884C5.63524 39.2884 5.8184 39.4716 5.8184 39.6975C5.8184 39.9234 5.63524 40.1066 5.40901 40.1066C5.18316 40.1066 5 39.9234 5 39.6975C5 39.4716 5.18316 39.2884 5.40901 39.2884V39.2884ZM5.40901 32.2014C5.63524 32.2014 5.8184 32.3846 5.8184 32.6105C5.8184 32.8365 5.63524 33.0197 5.40901 33.0197C5.18316 33.0197 5 32.8365 5 32.6105C5 32.3846 5.18316 32.2014 5.40901 32.2014ZM5.40901 25.1141C5.63524 25.1141 5.8184 25.2973 5.8184 25.5232C5.8184 25.7491 5.63524 25.9323 5.40901 25.9323C5.18316 25.9323 5 25.7491 5 25.5232C5 25.2973 5.18316 25.1141 5.40901 25.1141ZM23.8178 19.5875C25.1387 19.5875 26.2094 20.6584 26.2094 21.9797C26.2094 23.3014 25.1387 24.3723 23.8178 24.3723C22.4969 24.3723 21.4262 23.3014 21.4262 21.9797C21.4262 20.6584 22.4969 19.5875 23.8178 19.5875ZM5.40901 18.0264C5.63524 18.0264 5.8184 18.2096 5.8184 18.4359C5.8184 18.6618 5.63524 18.845 5.40901 18.845C5.18316 18.845 5 18.6618 5 18.4359C5 18.2096 5.18316 18.0264 5.40901 18.0264Z" fill="#1890FF"/>
</svg>
