<svg width="191" height="71" viewBox="0 0 191 71" fill="none" xmlns="http://www.w3.org/2000/svg">
<path fill-rule="evenodd" clip-rule="evenodd" d="M30.7682 6.28117C31.5527 6.28117 32.1887 6.91503 32.1887 7.69664C32.1887 8.47863 31.5527 9.11249 30.7682 9.11249C29.984 9.11249 29.348 8.47863 29.348 7.69664C29.348 6.91503 29.984 6.28117 30.7682 6.28117ZM24.6955 30.2706C25.7412 30.2706 26.5888 31.1154 26.5888 32.1576C26.5888 33.1999 25.7412 34.0447 24.6955 34.0447C23.6498 34.0447 22.8022 33.1999 22.8022 32.1576C22.8022 31.1154 23.6498 30.2706 24.6955 30.2706ZM24.6955 23.7536C25.4801 23.7536 26.1156 24.3871 26.1156 25.1687C26.1156 25.9503 25.4801 26.5846 24.6955 26.5846C23.9109 26.5846 23.2753 25.9503 23.2753 25.1687C23.2753 24.3871 23.9109 23.7536 24.6955 23.7536ZM30.7682 27.2475C31.5527 27.2475 32.1887 27.8814 32.1887 28.6634C32.1887 29.445 31.5527 30.0788 30.7682 30.0788C29.984 30.0788 29.348 29.445 29.348 28.6634C29.348 27.8814 29.984 27.2475 30.7682 27.2475ZM36.8405 23.7536C37.6246 23.7536 38.2602 24.3871 38.2602 25.1687C38.2602 25.9503 37.6246 26.5846 36.8405 26.5846C36.0563 26.5846 35.4203 25.9503 35.4203 25.1687C35.4203 24.3871 36.0563 23.7536 36.8405 23.7536ZM30.7682 20.2586C31.5527 20.2586 32.1887 20.8921 32.1887 21.6741C32.1887 22.4561 31.5527 23.0895 30.7682 23.0895C29.984 23.0895 29.348 22.4561 29.348 21.6741C29.348 20.8921 29.984 20.2586 30.7682 20.2586ZM24.6955 9.77505C25.4801 9.77505 26.1156 10.4089 26.1156 11.1905C26.1156 11.9725 25.4801 12.6064 24.6955 12.6064C23.9109 12.6064 23.2753 11.9725 23.2753 11.1905C23.2753 10.4089 23.9109 9.77505 24.6955 9.77505V9.77505ZM18.6228 13.2701C19.407 13.2701 20.0426 13.9039 20.0426 14.6855C20.0426 15.4672 19.407 16.1006 18.6228 16.1006C17.8386 16.1006 17.2027 15.4672 17.2027 14.6855C17.2027 13.9039 17.8386 13.2701 18.6228 13.2701V13.2701ZM12.5505 16.7643C13.3347 16.7643 13.9707 17.3978 13.9707 18.1798C13.9707 18.9618 13.3347 19.5953 12.5505 19.5953C11.7663 19.5953 11.13 18.9618 11.13 18.1798C11.13 17.3978 11.7663 16.7643 12.5505 16.7643ZM12.5505 23.7536C13.3347 23.7536 13.9707 24.3871 13.9707 25.1687C13.9707 25.9503 13.3347 26.5846 12.5505 26.5846C11.7663 26.5846 11.13 25.9503 11.13 25.1687C11.13 24.3871 11.7663 23.7536 12.5505 23.7536ZM12.5505 30.7418C13.3347 30.7418 13.9707 31.376 13.9707 32.1576C13.9707 32.9392 13.3347 33.5731 12.5505 33.5731C11.7663 33.5731 11.13 32.9392 11.13 32.1576C11.13 31.376 11.7663 30.7418 12.5505 30.7418ZM12.5505 37.7307C13.3347 37.7307 13.9707 38.3642 13.9707 39.1465C13.9707 39.9281 13.3347 40.5616 12.5505 40.5616C11.7663 40.5616 11.13 39.9281 11.13 39.1465C11.13 38.3642 11.7663 37.7307 12.5505 37.7307V37.7307ZM12.5505 44.7196C13.3347 44.7196 13.9707 45.3531 13.9707 46.1347C13.9707 46.917 13.3347 47.5505 12.5505 47.5505C11.7663 47.5505 11.13 46.917 11.13 46.1347C11.13 45.3531 11.7663 44.7196 12.5505 44.7196ZM12.5505 51.7085C13.3347 51.7085 13.9707 52.3424 13.9707 53.124C13.9707 53.906 13.3347 54.5398 12.5505 54.5398C11.7663 54.5398 11.13 53.906 11.13 53.124C11.13 52.3424 11.7663 51.7085 12.5505 51.7085ZM18.6228 55.2028C19.407 55.2028 20.0426 55.8366 20.0426 56.6186C20.0426 57.4002 19.407 58.0341 18.6228 58.0341C17.8386 58.0341 17.2027 57.4002 17.2027 56.6186C17.2027 55.8366 17.8386 55.2028 18.6228 55.2028ZM24.6955 51.7085C25.4801 51.7085 26.1156 52.3424 26.1156 53.124C26.1156 53.906 25.4801 54.5398 24.6955 54.5398C23.9109 54.5398 23.2753 53.906 23.2753 53.124C23.2753 52.3424 23.9109 51.7085 24.6955 51.7085ZM24.6955 44.7196C25.4801 44.7196 26.1156 45.3531 26.1156 46.1347C26.1156 46.917 25.4801 47.5505 24.6955 47.5505C23.9109 47.5505 23.2753 46.917 23.2753 46.1347C23.2753 45.3531 23.9109 44.7196 24.6955 44.7196ZM30.7682 48.2146C31.5527 48.2146 32.1887 48.8481 32.1887 49.6297C32.1887 50.4113 31.5527 51.0452 30.7682 51.0452C29.984 51.0452 29.348 50.4113 29.348 49.6297C29.348 48.8481 29.984 48.2146 30.7682 48.2146ZM36.8405 51.7085C37.6246 51.7085 38.2602 52.3424 38.2602 53.124C38.2602 53.906 37.6246 54.5398 36.8405 54.5398C36.0563 54.5398 35.4203 53.906 35.4203 53.124C35.4203 52.3424 36.0563 51.7085 36.8405 51.7085ZM42.9128 55.2028C43.6977 55.2028 44.3333 55.8366 44.3333 56.6186C44.3333 57.4002 43.6977 58.0341 42.9128 58.0341C42.1286 58.0341 41.493 57.4002 41.493 56.6186C41.493 55.8366 42.1286 55.2028 42.9128 55.2028ZM48.9858 51.7085C49.77 51.7085 50.406 52.3424 50.406 53.124C50.406 53.906 49.77 54.5398 48.9858 54.5398C48.2016 54.5398 47.5653 53.906 47.5653 53.124C47.5653 52.3424 48.2016 51.7085 48.9858 51.7085ZM48.9858 44.7196C49.77 44.7196 50.406 45.3531 50.406 46.1347C50.406 46.917 49.77 47.5505 48.9858 47.5505C48.2016 47.5505 47.5653 46.917 47.5653 46.1347C47.5653 45.3531 48.2016 44.7196 48.9858 44.7196ZM42.9128 41.2253C43.6977 41.2253 44.3333 41.8588 44.3333 42.6408C44.3333 43.4224 43.6977 44.0559 42.9128 44.0559C42.1286 44.0559 41.493 43.4224 41.493 42.6408C41.493 41.8588 42.1286 41.2253 42.9128 41.2253ZM36.8405 37.7307C37.6246 37.7307 38.2602 38.3642 38.2602 39.1465C38.2602 39.9281 37.6246 40.5616 36.8405 40.5616C36.0563 40.5616 35.4203 39.9281 35.4203 39.1465C35.4203 38.3642 36.0563 37.7307 36.8405 37.7307ZM42.9131 34.2368C43.6977 34.2368 44.3337 34.8707 44.3337 35.6527C44.3337 36.4339 43.6977 37.0673 42.9131 37.0673C42.1289 37.0673 41.4934 36.4339 41.4934 35.6527C41.4934 34.8707 42.1289 34.2368 42.9131 34.2368ZM48.9858 30.7418C49.77 30.7418 50.406 31.376 50.406 32.1576C50.406 32.9392 49.77 33.5731 48.9858 33.5731C48.2016 33.5731 47.5653 32.9392 47.5653 32.1576C47.5653 31.376 48.2016 30.7418 48.9858 30.7418ZM48.9858 23.7536C49.77 23.7536 50.406 24.3871 50.406 25.1687C50.406 25.9503 49.77 26.5846 48.9858 26.5846C48.2016 26.5846 47.5653 25.9503 47.5653 25.1687C47.5653 24.3871 48.2016 23.7536 48.9858 23.7536ZM48.9858 16.7643C49.77 16.7643 50.406 17.3978 50.406 18.1798C50.406 18.9618 49.77 19.5953 48.9858 19.5953C48.2016 19.5953 47.5653 18.9618 47.5653 18.1798C47.5653 17.3978 48.2016 16.7643 48.9858 16.7643ZM42.9128 13.2701C43.6977 13.2701 44.3333 13.9039 44.3333 14.6855C44.3333 15.4672 43.6977 16.1006 42.9128 16.1006C42.1286 16.1006 41.493 15.4672 41.493 14.6855C41.493 13.9039 42.1286 13.2701 42.9128 13.2701V13.2701ZM36.8405 9.77505C37.6246 9.77505 38.2602 10.4089 38.2602 11.1905C38.2602 11.9725 37.6246 12.6064 36.8405 12.6064C36.0563 12.6064 35.4203 11.9725 35.4203 11.1905C35.4203 10.4089 36.0563 9.77505 36.8405 9.77505V9.77505ZM42.9135 47.2707C44.2208 47.2707 45.2803 48.3268 45.2803 49.6297C45.2803 50.9326 44.2208 51.9891 42.9135 51.9891C41.6063 51.9891 40.5467 50.9326 40.5467 49.6297C40.5467 48.3268 41.6063 47.2707 42.9135 47.2707ZM36.8405 43.7761C38.1477 43.7761 39.2072 44.8321 39.2072 46.1351C39.2072 47.438 38.1477 48.494 36.8405 48.494C35.5336 48.494 34.4737 47.438 34.4737 46.1351C34.4737 44.8321 35.5336 43.7761 36.8405 43.7761ZM30.7685 40.2814C32.0758 40.2814 33.1353 41.3379 33.1353 42.6408C33.1353 43.9437 32.0758 44.9998 30.7685 44.9998C29.4613 44.9998 28.4014 43.9437 28.4014 42.6408C28.4014 41.3379 29.4613 40.2814 30.7685 40.2814ZM18.6232 47.2707C19.9304 47.2707 20.9904 48.3268 20.9904 49.6297C20.9904 50.9326 19.9304 51.9891 18.6232 51.9891C17.3159 51.9891 16.2564 50.9326 16.2564 49.6297C16.2564 48.3268 17.3159 47.2707 18.6232 47.2707ZM18.6228 40.2814C19.93 40.2814 20.9896 41.3379 20.9896 42.6408C20.9896 43.9437 19.93 44.9998 18.6228 44.9998C17.3156 44.9998 16.256 43.9437 16.256 42.6408C16.256 41.3379 17.3156 40.2814 18.6228 40.2814ZM18.6232 33.2933C19.9304 33.2933 20.9904 34.3493 20.9904 35.6523C20.9904 36.9552 19.9304 38.0112 18.6232 38.0112C17.3159 38.0112 16.2564 36.9552 16.2564 35.6523C16.2564 34.3493 17.3159 33.2933 18.6232 33.2933ZM18.6228 26.304C19.93 26.304 20.9896 27.3604 20.9896 28.6634C20.9896 29.9663 19.93 31.0223 18.6228 31.0223C17.3156 31.0223 16.256 29.9663 16.256 28.6634C16.256 27.3604 17.3156 26.304 18.6228 26.304ZM24.6955 36.7872C26.0027 36.7872 27.0626 37.8432 27.0626 39.1465C27.0626 40.4495 26.0027 41.5055 24.6955 41.5055C23.3882 41.5055 22.3287 40.4495 22.3287 39.1465C22.3287 37.8432 23.3882 36.7872 24.6955 36.7872ZM30.7685 33.2933C32.0758 33.2933 33.1353 34.3493 33.1353 35.6523C33.1353 36.9552 32.0758 38.0112 30.7685 38.0112C29.4613 38.0112 28.4014 36.9552 28.4014 35.6523C28.4014 34.3493 29.4613 33.2933 30.7685 33.2933ZM36.8405 29.7986C38.1477 29.7986 39.2072 30.8547 39.2072 32.1576C39.2072 33.4606 38.1477 34.5166 36.8405 34.5166C35.5336 34.5166 34.4737 33.4606 34.4737 32.1576C34.4737 30.8547 35.5336 29.7986 36.8405 29.7986ZM42.9131 26.304C44.2204 26.304 45.2799 27.3604 45.2799 28.6634C45.2799 29.9663 44.2204 31.0223 42.9131 31.0223C41.6059 31.0223 40.5464 29.9663 40.5464 28.6634C40.5464 27.3604 41.6059 26.304 42.9131 26.304ZM42.9135 19.3151C44.2208 19.3151 45.2803 20.3711 45.2803 21.6741C45.2803 22.977 44.2208 24.0334 42.9135 24.0334C41.6063 24.0334 40.5467 22.977 40.5467 21.6741C40.5467 20.3711 41.6063 19.3151 42.9135 19.3151ZM36.8405 15.8208C38.1477 15.8208 39.2072 16.8769 39.2072 18.1798C39.2072 19.4827 38.1477 20.5392 36.8405 20.5392C35.5336 20.5392 34.4737 19.4827 34.4737 18.1798C34.4737 16.8769 35.5336 15.8208 36.8405 15.8208V15.8208ZM30.7685 12.3266C32.0758 12.3266 33.1353 13.3826 33.1353 14.6855C33.1353 15.9885 32.0758 17.0445 30.7685 17.0445C29.4613 17.0445 28.4014 15.9885 28.4014 14.6855C28.4014 13.3826 29.4613 12.3266 30.7685 12.3266ZM24.6955 15.8208C26.0027 15.8208 27.0626 16.8769 27.0626 18.1798C27.0626 19.4827 26.0027 20.5392 24.6955 20.5392C23.3882 20.5392 22.3287 19.4827 22.3287 18.1798C22.3287 16.8769 23.3882 15.8208 24.6955 15.8208V15.8208ZM61.1312 52.7205C61.3551 52.7205 61.5363 52.9012 61.5363 53.124C61.5363 53.3467 61.3551 53.5274 61.1312 53.5274C60.9077 53.5274 60.7264 53.3467 60.7264 53.124C60.7264 52.9012 60.9077 52.7205 61.1312 52.7205ZM61.1312 45.7312C61.3551 45.7312 61.5363 45.9119 61.5363 46.1351C61.5363 46.3578 61.3551 46.5385 61.1312 46.5385C60.9077 46.5385 60.7264 46.3578 60.7264 46.1351C60.7264 45.9119 60.9077 45.7312 61.1312 45.7312ZM61.1312 38.7427C61.3551 38.7427 61.5363 38.9234 61.5363 39.1461C61.5363 39.3689 61.3551 39.5496 61.1312 39.5496C60.9077 39.5496 60.7264 39.3689 60.7264 39.1461C60.7264 38.9234 60.9077 38.7427 61.1312 38.7427V38.7427ZM61.1312 31.7542C61.3551 31.7542 61.5363 31.9349 61.5363 32.1576C61.5363 32.3804 61.3551 32.5611 61.1312 32.5611C60.9077 32.5611 60.7264 32.3804 60.7264 32.1576C60.7264 31.9349 60.9077 31.7542 61.1312 31.7542ZM61.1312 24.7653C61.3551 24.7653 61.5363 24.9459 61.5363 25.1687C61.5363 25.3915 61.3551 25.5722 61.1312 25.5722C60.9077 25.5722 60.7264 25.3915 60.7264 25.1687C60.7264 24.9459 60.9077 24.7653 61.1312 24.7653ZM61.1312 17.776C61.3551 17.776 61.5363 17.9567 61.5363 18.1798C61.5363 18.4026 61.3551 18.5832 61.1312 18.5832C60.9077 18.5832 60.7264 18.4026 60.7264 18.1798C60.7264 17.9567 60.9077 17.776 61.1312 17.776ZM30.7682 70.1926C30.9917 70.1926 31.1729 70.3733 31.1729 70.5964C31.1729 70.8192 30.9917 70.9999 30.7682 70.9999C30.5447 70.9999 30.3634 70.8192 30.3634 70.5964C30.3634 70.3733 30.5447 70.1926 30.7682 70.1926ZM24.6955 66.6983C24.919 66.6983 25.1002 66.879 25.1002 67.1018C25.1002 67.3245 24.919 67.5052 24.6955 67.5052C24.472 67.5052 24.2907 67.3245 24.2907 67.1018C24.2907 66.879 24.472 66.6983 24.6955 66.6983ZM36.8401 66.6983C37.064 66.6983 37.2452 66.879 37.2452 67.1018C37.2452 67.3245 37.064 67.5052 36.8401 67.5052C36.6166 67.5052 36.4353 67.3245 36.4353 67.1018C36.4353 66.879 36.6166 66.6983 36.8401 66.6983ZM30.7682 63.2037C30.992 63.2037 31.1733 63.3844 31.1733 63.6075C31.1733 63.8303 30.992 64.0109 30.7682 64.0109C30.5447 64.0109 30.3634 63.8303 30.3634 63.6075C30.3634 63.3844 30.5447 63.2037 30.7682 63.2037ZM48.9858 59.4051C49.3779 59.4051 49.6959 59.7221 49.6959 60.1129C49.6959 60.5041 49.3779 60.821 48.9858 60.821C48.5933 60.821 48.2754 60.5041 48.2754 60.1129C48.2754 59.7221 48.5933 59.4051 48.9858 59.4051ZM36.8397 59.4051C37.2322 59.4051 37.5501 59.7221 37.5501 60.1129C37.5501 60.5041 37.2322 60.821 36.8397 60.821C36.4476 60.821 36.13 60.5041 36.13 60.1129C36.13 59.7221 36.4476 59.4051 36.8397 59.4051ZM55.0581 55.9105C55.4502 55.9105 55.7686 56.2278 55.7686 56.6186C55.7686 57.0094 55.4502 57.326 55.0581 57.326C54.666 57.326 54.3484 57.0094 54.3484 56.6186C54.3484 56.2278 54.666 55.9105 55.0581 55.9105ZM55.0589 48.9216C55.451 48.9216 55.7686 49.2389 55.7686 49.6297C55.7686 50.0205 55.451 50.3374 55.0589 50.3374C54.6668 50.3374 54.3488 50.0205 54.3488 49.6297C54.3488 49.2389 54.6668 48.9216 55.0589 48.9216ZM55.0581 41.9327C55.4502 41.9327 55.7686 42.2496 55.7686 42.6404C55.7686 43.0312 55.4502 43.3485 55.0581 43.3485C54.666 43.3485 54.3484 43.0312 54.3484 42.6404C54.3484 42.2496 54.666 41.9327 55.0581 41.9327ZM55.0589 34.9445C55.451 34.9445 55.7686 35.2611 55.7686 35.6527C55.7686 36.0431 55.451 36.3596 55.0589 36.3596C54.6668 36.3596 54.3488 36.0431 54.3488 35.6527C54.3488 35.2611 54.6668 34.9445 55.0589 34.9445ZM55.0581 27.9552C55.4502 27.9552 55.7686 28.2722 55.7686 28.6634C55.7686 29.0542 55.4502 29.3707 55.0581 29.3707C54.666 29.3707 54.3484 29.0542 54.3484 28.6634C54.3484 28.2722 54.666 27.9552 55.0581 27.9552ZM55.0589 20.9663C55.451 20.9663 55.7686 21.2829 55.7686 21.6741C55.7686 22.0649 55.451 22.3818 55.0589 22.3818C54.6668 22.3818 54.3488 22.0649 54.3488 21.6741C54.3488 21.2829 54.6668 20.9663 55.0589 20.9663ZM55.0581 13.9774C55.4502 13.9774 55.7686 14.2944 55.7686 14.6852C55.7686 15.0763 55.4502 15.3933 55.0581 15.3933C54.666 15.3933 54.3484 15.0763 54.3484 14.6852C54.3484 14.2944 54.666 13.9774 55.0581 13.9774ZM48.9858 38.4384C49.3779 38.4384 49.6959 38.755 49.6959 39.1461C49.6959 39.5373 49.3779 39.8539 48.9858 39.8539C48.5933 39.8539 48.2754 39.5373 48.2754 39.1461C48.2754 38.755 48.5933 38.4384 48.9858 38.4384V38.4384ZM48.9858 10.4828C49.3779 10.4828 49.6959 10.7997 49.6959 11.1905C49.6959 11.5817 49.3779 11.8983 48.9858 11.8983C48.5933 11.8983 48.2754 11.5817 48.2754 11.1905C48.2754 10.7997 48.5933 10.4828 48.9858 10.4828ZM42.9131 6.98814C43.3056 6.98814 43.6232 7.30545 43.6232 7.69626C43.6232 8.08706 43.3056 8.40399 42.9131 8.40399C42.521 8.40399 42.2031 8.08706 42.2031 7.69626C42.2031 7.30545 42.521 6.98814 42.9131 6.98814ZM36.8397 3.49426C37.2322 3.49426 37.5501 3.81119 37.5501 4.20199C37.5501 4.5928 37.2322 4.90934 36.8397 4.90934C36.4476 4.90934 36.13 4.5928 36.13 4.20199C36.13 3.81119 36.4476 3.49426 36.8397 3.49426ZM30.7682 0C31.1603 0 31.4782 0.316547 31.4782 0.70735C31.4782 1.09854 31.1603 1.41547 30.7682 1.41547C30.3757 1.41547 30.0577 1.09854 30.0577 0.70735C30.0577 0.316547 30.3757 0 30.7682 0V0ZM24.6955 3.49426C25.0876 3.49426 25.4052 3.81119 25.4052 4.20199C25.4052 4.5928 25.0876 4.90934 24.6955 4.90934C24.3034 4.90934 23.9854 4.5928 23.9854 4.20199C23.9854 3.81119 24.3034 3.49426 24.6955 3.49426ZM18.6228 6.98814C19.0149 6.98814 19.3333 7.30545 19.3333 7.69626C19.3333 8.08706 19.0149 8.40399 18.6228 8.40399C18.2307 8.40399 17.9131 8.08706 17.9131 7.69626C17.9131 7.30545 18.2307 6.98814 18.6228 6.98814ZM12.5505 10.4828C12.9426 10.4828 13.2602 10.7997 13.2602 11.1905C13.2602 11.5817 12.9426 11.8983 12.5505 11.8983C12.1576 11.8983 11.8401 11.5817 11.8401 11.1905C11.8401 10.7997 12.1576 10.4828 12.5505 10.4828ZM6.47745 13.9774C6.86954 13.9774 7.18752 14.2944 7.18752 14.6852C7.18752 15.0763 6.86954 15.3933 6.47745 15.3933C6.08535 15.3933 5.76776 15.0763 5.76776 14.6852C5.76776 14.2944 6.08535 13.9774 6.47745 13.9774ZM6.47783 20.9663C6.87031 20.9663 7.1879 21.2829 7.1879 21.6741C7.1879 22.0649 6.87031 22.3818 6.47783 22.3818C6.08574 22.3818 5.76776 22.0649 5.76776 21.6741C5.76776 21.2829 6.08574 20.9663 6.47783 20.9663ZM6.47745 27.9552C6.86954 27.9552 7.18752 28.2722 7.18752 28.6634C7.18752 29.0542 6.86954 29.3707 6.47745 29.3707C6.08535 29.3707 5.76776 29.0542 5.76776 28.6634C5.76776 28.2722 6.08535 27.9552 6.47745 27.9552ZM6.47783 34.9445C6.87031 34.9445 7.1879 35.2611 7.1879 35.6527C7.1879 36.0431 6.87031 36.3596 6.47783 36.3596C6.08574 36.3596 5.76776 36.0431 5.76776 35.6527C5.76776 35.2611 6.08574 34.9445 6.47783 34.9445ZM6.47745 41.9327C6.86954 41.9327 7.18752 42.2496 7.18752 42.6404C7.18752 43.0312 6.86954 43.3485 6.47745 43.3485C6.08535 43.3485 5.76776 43.0312 5.76776 42.6404C5.76776 42.2496 6.08535 41.9327 6.47745 41.9327ZM6.47783 48.9216C6.87031 48.9216 7.1879 49.2389 7.1879 49.6297C7.1879 50.0205 6.87031 50.3374 6.47783 50.3374C6.08574 50.3374 5.76776 50.0205 5.76776 49.6297C5.76776 49.2389 6.08574 48.9216 6.47783 48.9216ZM6.47745 55.9105C6.86954 55.9105 7.18752 56.2278 7.18752 56.6186C7.18752 57.0094 6.86954 57.326 6.47745 57.326C6.08535 57.326 5.76776 57.0094 5.76776 56.6186C5.76776 56.2278 6.08535 55.9105 6.47745 55.9105ZM12.5505 59.4051C12.9426 59.4051 13.2602 59.7221 13.2602 60.1129C13.2602 60.5041 12.9426 60.821 12.5505 60.821C12.1576 60.821 11.8401 60.5041 11.8401 60.1129C11.8401 59.7221 12.1576 59.4051 12.5505 59.4051ZM18.6228 62.8998C19.0149 62.8998 19.3333 63.2163 19.3333 63.6071C19.3333 63.9979 19.0149 64.3152 18.6228 64.3152C18.2307 64.3152 17.9131 63.9979 17.9131 63.6071C17.9131 63.2163 18.2307 62.8998 18.6228 62.8998ZM24.6955 59.4051C25.0876 59.4051 25.4052 59.7221 25.4052 60.1129C25.4052 60.5041 25.0876 60.821 24.6955 60.821C24.3034 60.821 23.9854 60.5041 23.9854 60.1129C23.9854 59.7221 24.3034 59.4051 24.6955 59.4051ZM30.7682 55.9105C31.1603 55.9105 31.4782 56.2278 31.4782 56.6186C31.4782 57.0094 31.1603 57.326 30.7682 57.326C30.3757 57.326 30.0577 57.0094 30.0577 56.6186C30.0577 56.2278 30.3757 55.9105 30.7682 55.9105ZM42.9131 62.8998C43.3056 62.8998 43.6232 63.2163 43.6232 63.6071C43.6232 63.9979 43.3056 64.3152 42.9131 64.3152C42.521 64.3152 42.2031 63.9979 42.2031 63.6071C42.2031 63.2163 42.521 62.8998 42.9131 62.8998ZM0.404768 52.7205C0.628658 52.7205 0.809921 52.9012 0.809921 53.124C0.809921 53.3467 0.628658 53.5274 0.404768 53.5274C0.181263 53.5274 0 53.3467 0 53.124C0 52.9012 0.181263 52.7205 0.404768 52.7205ZM0.404768 45.7312C0.628658 45.7312 0.809921 45.9119 0.809921 46.1351C0.809921 46.3578 0.628658 46.5385 0.404768 46.5385C0.181263 46.5385 0 46.3578 0 46.1351C0 45.9119 0.181263 45.7312 0.404768 45.7312ZM0.404768 38.7427C0.628658 38.7427 0.809921 38.9234 0.809921 39.1461C0.809921 39.3689 0.628658 39.5496 0.404768 39.5496C0.181263 39.5496 0 39.3689 0 39.1461C0 38.9234 0.181263 38.7427 0.404768 38.7427V38.7427ZM0.404768 31.7542C0.628658 31.7542 0.809921 31.9349 0.809921 32.1576C0.809921 32.3804 0.628658 32.5611 0.404768 32.5611C0.181263 32.5611 0 32.3804 0 32.1576C0 31.9349 0.181263 31.7542 0.404768 31.7542ZM0.404768 24.7653C0.628658 24.7653 0.809921 24.9459 0.809921 25.1687C0.809921 25.3915 0.628658 25.5722 0.404768 25.5722C0.181263 25.5722 0 25.3915 0 25.1687C0 24.9459 0.181263 24.7653 0.404768 24.7653ZM18.6228 19.3155C19.93 19.3155 20.9896 20.3715 20.9896 21.6745C20.9896 22.9778 19.93 24.0338 18.6228 24.0338C17.3156 24.0338 16.256 22.9778 16.256 21.6745C16.256 20.3715 17.3156 19.3155 18.6228 19.3155ZM0.404768 17.776C0.628658 17.776 0.809921 17.9567 0.809921 18.1798C0.809921 18.4026 0.628658 18.5832 0.404768 18.5832C0.181263 18.5832 0 18.4026 0 18.1798C0 17.9567 0.181263 17.776 0.404768 17.776Z" fill="#2780EB"/>
<path d="M167.684 40.4611H171.391V34.3039L172.464 33.4615L178.674 40.4611H183.389L175.292 31.0309L182.998 23.6095H178.219L171.391 30.2531V17.7761H167.684V40.4611V40.4611ZM125.421 40.7527C120.461 40.7527 117.699 38.3869 117.699 33.2023V23.5122H121.405V32.8456C121.405 35.3075 122.495 37.3553 125.421 37.3553C128.115 37.3553 129.437 36.1389 129.437 32.8456V23.5122H133.143V33.2023C133.143 38.1373 130.381 40.7527 125.421 40.7527ZM81.5102 40.4611V32.1329H86.3225L92.533 40.4611H97.3127L90.4842 31.3873C93.5085 30.5123 95.4916 27.9523 95.4916 24.8412C95.4916 21.2114 93.606 17.7761 86.5176 17.7761H77.5762V40.4611H81.5102ZM86.42 21.4706C90.2569 21.4706 91.3947 22.8642 91.3947 24.8412C91.3947 27.0773 89.6063 28.4384 86.6151 28.4384H81.5102V21.4706H86.42V21.4706ZM97.0197 32.0031C97.0197 37.0583 100.792 40.7527 106.059 40.7527C111.391 40.7527 115.13 37.0583 115.13 32.0031C115.13 26.915 111.391 23.2206 106.059 23.2206C100.694 23.2206 97.0197 26.915 97.0197 32.0031ZM100.856 32.0031C100.856 28.6976 103.1 26.6559 106.059 26.6559C108.985 26.6559 111.293 28.7301 111.293 32.0031C111.293 35.2436 109.147 37.3174 106.059 37.3174C102.97 37.3174 100.856 35.0495 100.856 32.0031ZM137.789 34.5956C137.789 38.6139 139.902 40.6555 143.121 40.6555C144.946 40.6555 146.547 39.9065 147.587 38.8087L145.688 36.2461C145.158 36.7934 144.498 37.2202 143.674 37.2202C142.146 37.2202 141.495 36.2805 141.495 33.5587V27.0448H145.281V23.6095H141.495V17.7761H137.789V23.6095H135.756V27.0448H137.789V34.5956ZM161.544 35.6761C160.525 36.692 159.079 37.3174 157.539 37.3174C154.743 37.3174 152.565 35.9563 152.272 33.2995H164.823C164.953 32.2948 165.018 31.4845 165.018 30.9337C165.018 26.267 161.636 23.2206 157.084 23.2206C151.426 23.2206 148.403 27.0773 148.403 32.0031C148.403 37.3174 152.044 40.7527 157.474 40.7527C159.804 40.7527 161.857 39.9466 163.476 38.3149L161.544 35.6761V35.6761ZM156.922 26.5587C159.295 26.5587 160.888 27.7579 161.181 30.0912H152.304C152.792 27.9198 154.418 26.5587 156.922 26.5587Z" fill="white"/>
<path fill-rule="evenodd" clip-rule="evenodd" d="M188.258 40.4645C189.772 40.4645 191 39.2412 191 37.7319C191 36.2231 189.772 34.9998 188.258 34.9998C186.745 34.9998 185.517 36.2231 185.517 37.7319C185.517 39.2412 186.745 40.4645 188.258 40.4645Z" fill="#2780EB"/>
<path d="M77.5508 50.6416C77.5508 52.3564 78.8826 53.626 80.537 53.626C82.1914 53.626 83.5148 52.3399 83.5148 50.6416C83.5148 48.9268 82.1914 47.6572 80.537 47.6572C78.8576 47.6572 77.5508 48.9762 77.5508 50.6416ZM78.8826 50.6416C78.8826 49.5699 79.6603 48.8939 80.537 48.8939C81.3807 48.8939 82.183 49.5699 82.183 50.6416C82.183 51.7134 81.4468 52.3897 80.537 52.3897C79.6603 52.3897 78.8826 51.7134 78.8826 50.6416ZM85.5828 53.5273V51.5568H86.5006L87.9154 53.5273H89.4619L87.849 51.326C88.544 51.0538 88.9822 50.3779 88.9822 49.6361C88.9822 48.6796 88.4861 47.7563 86.6416 47.7563H84.3005V53.5273H85.5828V53.5273ZM86.6166 48.9517C87.4353 48.9517 87.6504 49.2238 87.6504 49.6361C87.6504 50.0977 87.2948 50.3614 86.6661 50.3614H85.5828V48.9517H86.6166V48.9517ZM89.9995 53.5273H91.7119C94.1436 53.5273 95.1693 52.2163 95.1693 50.5674C95.1693 49.0589 94.3172 47.7563 91.836 47.7563H89.9995V53.5273ZM91.8194 48.9517C93.3248 48.9517 93.846 49.5947 93.846 50.5674C93.846 51.6395 93.2669 52.3319 91.8194 52.3319H91.2818V48.9517H91.8194ZM95.9551 53.5273H100.455V52.3319H97.2374V51.1775H100.174V50.0234H97.2374V48.9517H100.38V47.7563H95.9551V53.5273V53.5273ZM102.606 53.5273V51.5568H103.524L104.938 53.5273H106.485L104.872 51.326C105.567 51.0538 106.005 50.3779 106.005 49.6361C106.005 48.6796 105.509 47.7563 103.664 47.7563H101.323V53.5273H102.606V53.5273ZM103.64 48.9517C104.458 48.9517 104.673 49.2238 104.673 49.6361C104.673 50.0977 104.318 50.3614 103.689 50.3614H102.606V48.9517H103.64V48.9517ZM115.005 53.5273C114.508 53.1564 113.987 52.6699 113.598 52.2412C114.243 51.5568 114.558 50.3201 114.558 49.4049H113.326C113.326 50.2213 113.094 50.8479 112.755 51.2517C112.341 50.815 112.068 50.4935 111.903 50.2213C112.457 49.8585 112.837 49.3146 112.837 48.8196C112.837 48.1437 112.391 47.6821 111.274 47.6821C110.223 47.6821 109.752 48.2509 109.752 48.8361C109.752 49.2238 109.909 49.5783 110.24 49.9986C109.397 50.477 108.66 50.9964 108.66 51.961C108.66 52.9171 109.521 53.6015 110.968 53.6015C111.886 53.6015 112.382 53.2635 112.763 52.983C112.961 53.1644 113.086 53.2965 113.408 53.5273H115.005V53.5273ZM111.018 52.4471C110.273 52.4471 110.025 52.0762 110.025 51.8289C110.025 51.5652 110.182 51.4002 110.902 50.9716C111.15 51.2931 111.489 51.6311 111.886 52.1091C111.746 52.2741 111.415 52.4471 111.018 52.4471V52.4471ZM111.076 49.0011C111.076 48.8361 111.117 48.7538 111.299 48.7538C111.456 48.7538 111.514 48.861 111.514 49.0011C111.514 49.1412 111.44 49.2813 111.282 49.3804C111.191 49.2897 111.076 49.1247 111.076 49.0011ZM117.403 53.5273H121.903V52.3319H118.685V51.1775H121.622V50.0234H118.685V48.9517H121.828V47.7563H117.403V53.5273V53.5273ZM122.772 53.5273H124.054V51.4083H126.949V50.2129H124.054V48.9517H127.156V47.7563H122.772V53.5273ZM127.9 53.5273H129.182V51.4083H132.077V50.2129H129.182V48.9517H132.284V47.7563H127.9V53.5273ZM133.028 53.5273H137.528V52.3319H134.311V51.1775H137.247V50.0234H134.311V48.9517H137.453V47.7563H133.028V53.5273V53.5273ZM142.772 51.6226C142.375 52.1176 141.821 52.3897 141.176 52.3897C140.175 52.3897 139.439 51.6804 139.439 50.6416C139.439 49.5699 140.159 48.8939 141.192 48.8939C141.664 48.8939 142.227 49.1167 142.574 49.5454L143.442 48.7538C143.029 48.1023 142.16 47.6572 141.101 47.6572C139.306 47.6572 138.107 48.993 138.107 50.6416C138.107 52.4307 139.265 53.626 141.068 53.626C142.094 53.626 143.012 53.1973 143.533 52.4391L142.772 51.6226V51.6226ZM143.782 48.9517H145.634V53.5273H146.916V48.9517H148.778V47.7563H143.782V48.9517ZM149.357 53.5273H150.639V47.7563H149.357V53.5273ZM157.339 47.7563H155.958L154.312 51.5817L152.55 47.7563H151.135L153.857 53.5273H154.75L157.339 47.7563ZM157.794 53.5273H162.293V52.3319H159.076V51.1775H162.012V50.0234H159.076V48.9517H162.219V47.7563H157.794V53.5273V53.5273ZM168.208 53.5273V47.7563H166.959V51.1859L164.146 47.7563H163.162V53.5273H164.411V50.1057L167.215 53.5273H168.208V53.5273ZM169.283 53.5273H173.783V52.3319H170.565V51.1775H173.502V50.0234H170.565V48.9517H173.708V47.7563H169.283V53.5273V53.5273ZM177.662 51.9277C177.662 52.2163 177.406 52.4636 176.761 52.4636C176.049 52.4636 175.429 52.0846 175.049 51.4745L174.114 52.2492C174.511 52.9998 175.396 53.6593 176.794 53.6593C178.043 53.6593 178.986 52.8758 178.986 51.8289C178.986 49.7433 175.76 50.2458 175.76 49.3639C175.76 49.034 176.033 48.8196 176.628 48.8196C177.274 48.8196 177.753 49.1496 178.084 49.5125L178.945 48.688C178.448 48.0281 177.662 47.6243 176.678 47.6243C175.305 47.6243 174.436 48.4652 174.436 49.3804C174.436 51.4745 177.662 50.9222 177.662 51.9277V51.9277ZM182.783 51.9277C182.783 52.2163 182.526 52.4636 181.881 52.4636C181.17 52.4636 180.549 52.0846 180.169 51.4745L179.234 52.2492C179.631 52.9998 180.516 53.6593 181.914 53.6593C183.163 53.6593 184.106 52.8758 184.106 51.8289C184.106 49.7433 180.88 50.2458 180.88 49.3639C180.88 49.034 181.153 48.8196 181.749 48.8196C182.394 48.8196 182.874 49.1496 183.205 49.5125L184.065 48.688C183.568 48.0281 182.783 47.6243 181.798 47.6243C180.425 47.6243 179.557 48.4652 179.557 49.3804C179.557 51.4745 182.783 50.9222 182.783 51.9277V51.9277Z" fill="white"/>
</svg>
