<svg width="600" height="512" viewBox="0 0 600 512" fill="none" xmlns="http://www.w3.org/2000/svg">
<path d="M360.407 108.735L300.032 143.614V242.263L385.427 192.987V94.2419L360.407 108.735ZM370.357 158.88C369.391 165.45 366.879 171.731 363.885 177.624C360.987 183.421 356.93 188.735 352.293 193.373C347.752 197.914 342.246 202.069 335.967 203.808C335.677 203.905 335.388 204.001 335.098 204.001C332.103 204.774 329.302 204.871 326.211 204.195C322.926 203.518 320.414 201.296 318.386 198.784C316.454 196.272 315.488 192.987 314.908 189.895C314.329 186.803 314.329 183.518 314.618 180.426C315.295 173.953 317.227 167.479 320.125 161.586C323.119 155.498 326.694 149.895 331.234 144.87C331.717 144.387 332.103 143.904 332.586 143.518C333.166 142.938 333.745 142.358 334.422 141.779C339.252 137.334 344.854 133.373 351.423 132.117C357.799 130.861 364.947 132.89 368.039 139.17C368.811 140.716 369.391 142.165 369.777 143.711C371.13 148.639 371.13 153.663 370.357 158.88Z" stroke="#1890FF" stroke-width="2" stroke-linecap="round" stroke-linejoin="round"/>
<path d="M332.585 143.615C337.029 148.059 341.955 151.827 347.751 154.049C353.257 156.175 359.923 156.272 364.56 152.214C367.265 149.895 368.714 146.996 369.776 143.615" stroke="#1890FF" stroke-width="2" stroke-linecap="round" stroke-linejoin="round"/>
<path d="M230.188 143.615C231.251 146.996 232.7 149.798 235.405 152.117C240.042 156.175 246.707 156.078 252.213 153.953C258.106 151.731 263.033 147.962 267.38 143.518" stroke="#1890FF" stroke-width="2" stroke-linecap="round" stroke-linejoin="round"/>
<path d="M316.26 171.827C322.153 173.373 327.852 175.788 332.682 179.653C337.416 183.421 340.797 189.122 339.734 195.305C339.155 198.687 337.319 201.586 335.001 204.098" stroke="#1890FF" stroke-width="2" stroke-linecap="round" stroke-linejoin="round"/>
<path d="M264.966 204.001C264.966 204.001 264.868 204.001 264.966 204.001" stroke="#1890FF" stroke-width="2" stroke-linecap="round" stroke-linejoin="round"/>
<path d="M264.868 204.001C262.55 201.489 260.714 198.59 260.135 195.305C259.072 189.122 262.453 183.421 267.187 179.653C272.017 175.788 277.716 173.373 283.609 171.827" stroke="#1890FF" stroke-width="2" stroke-linecap="round" stroke-linejoin="round"/>
<path d="M316.26 115.401C314.521 109.701 313.749 103.227 314.811 97.3337C315.874 91.1501 318.868 85.6428 324.954 83.2273C328.045 81.9713 331.909 82.2611 335.001 83.1307" stroke="#1890FF" stroke-width="2" stroke-linecap="round" stroke-linejoin="round"/>
<path d="M299.935 468.255V271.055" stroke="#1890FF" stroke-width="2" stroke-linecap="round" stroke-linejoin="round"/>
<path d="M239.56 108.735L214.54 94.2419V192.89L299.935 242.166V143.614L239.56 108.735ZM281.388 199.17C279.359 201.586 276.751 203.711 273.563 204.291C270.568 204.871 267.864 204.678 264.966 204.001C264.483 203.905 264.096 203.808 263.613 203.615C257.334 201.876 251.924 197.431 247.384 192.987C242.844 188.446 238.883 183.035 235.985 177.334C232.991 171.344 230.576 165.064 229.61 158.397C228.837 153.469 228.837 148.349 230.189 143.614C230.672 141.972 231.252 140.329 232.121 138.783C235.406 132.793 242.458 130.861 248.737 132.117C255.209 133.469 261.005 137.431 265.738 141.875C270.568 146.416 274.239 151.73 277.717 157.334C278.586 158.88 279.262 160.426 280.035 161.972C282.837 167.769 284.769 174.146 285.348 180.523C286.025 186.706 285.445 194.243 281.388 199.17Z" stroke="#1890FF" stroke-width="2" stroke-linecap="round" stroke-linejoin="round"/>
<path d="M339.251 67.6714L299.935 44.9659L260.619 67.6714L214.54 94.2417L239.56 108.735L299.935 143.614L360.407 108.735L385.33 94.2417L339.251 67.6714ZM339.638 96.7538C339.348 98.5896 338.672 100.329 337.609 101.971C336.74 103.324 335.677 104.58 334.518 105.739C329.688 110.281 323.795 113.179 317.42 115.015C311.72 116.561 305.828 117.334 299.838 117.334C299.066 117.334 298.196 117.334 297.423 117.334C292.787 117.14 288.053 116.561 283.513 115.305C281.774 114.822 280.035 114.339 278.296 113.759C272.307 111.633 266.028 108.058 262.454 102.648C261.198 100.812 260.425 98.7828 260.039 96.7538C259.266 92.5026 260.522 88.0581 263.613 84.3866C264 84.0001 264.289 83.517 264.676 83.1305C268.636 78.8793 274.239 76.0773 279.745 74.2416C282.644 73.2754 285.542 72.599 288.536 72.1159C292.207 71.5362 295.878 71.2464 299.645 71.2464C303.413 71.2464 307.083 71.5362 310.754 72.1159C313.556 72.599 316.357 73.2754 319.062 74.1449C325.148 76.0773 331.33 79.1691 335.484 84.0967C339.058 87.6716 340.507 92.3093 339.638 96.7538Z" stroke="#1890FF" stroke-width="2" stroke-linecap="round" stroke-linejoin="round"/>
<path d="M48.9658 159.846L219.756 61.198L260.714 67.6715" stroke="#1890FF" stroke-width="2" stroke-linecap="round" stroke-linejoin="round"/>
<path d="M339.251 67.6715L380.21 61.198L551 159.846" stroke="#1890FF" stroke-width="2" stroke-linecap="round" stroke-linejoin="round"/>
<path d="M299.934 271.055L219.756 351.056" stroke="#1890FF" stroke-width="2" stroke-linecap="round" stroke-linejoin="round"/>
<path d="M380.21 351.056L299.935 271.055" stroke="#1890FF" stroke-width="2" stroke-linecap="round" stroke-linejoin="round"/>
<path d="M385.329 123.131L470.724 172.407L550.999 252.504" stroke="#1890FF" stroke-width="2" stroke-linecap="round" stroke-linejoin="round"/>
<path d="M299.934 71.1501L300.031 117.334C299.258 117.334 298.389 117.334 297.616 117.334C292.979 117.141 288.246 116.561 283.705 115.305C285.444 109.605 286.217 103.131 285.154 97.3339C284.382 92.7928 282.546 88.6382 279.262 85.7396C278.103 84.6768 276.654 83.8073 275.011 83.1309C271.92 81.9715 268.056 82.1647 264.965 83.0343C268.925 78.7831 274.528 75.9811 280.035 74.1453C282.933 73.1791 285.831 72.5028 288.825 72.0197L299.934 71.1501Z" stroke="#1890FF" stroke-width="2" stroke-linecap="round" stroke-linejoin="round"/>
<path d="M283.705 115.401C281.966 114.918 280.227 114.435 278.488 113.855C272.499 111.73 266.22 108.155 262.646 102.744C261.39 100.908 260.617 98.8792 260.231 96.8502C259.458 92.599 260.714 88.1545 263.805 84.483C264.192 84.0965 264.481 83.6134 264.868 83.2269C267.959 82.3573 271.823 82.1641 274.914 83.3235C276.556 83.9999 278.005 84.8694 279.165 85.9323C282.449 88.8308 284.284 92.9855 285.057 97.5266C286.12 103.227 285.444 109.701 283.705 115.401Z" stroke="#1890FF" stroke-width="2" stroke-linecap="round" stroke-linejoin="round"/>
<path d="M339.637 96.7542C339.347 98.59 338.671 100.329 337.608 101.972C336.739 103.324 335.676 104.58 334.517 105.74C329.687 110.281 323.794 113.179 317.419 115.015C311.719 116.561 305.827 117.334 299.837 117.334L299.741 71.1501L310.85 72.0197C313.651 72.5028 316.453 73.1791 319.157 74.0487C325.243 75.9811 331.426 79.0729 335.58 84.0005C339.057 87.672 340.506 92.3097 339.637 96.7542Z" stroke="#1890FF" stroke-width="2" stroke-linecap="round" stroke-linejoin="round"/>
<path d="M214.539 123.131L129.241 172.407L48.9658 252.504" stroke="#1890FF" stroke-width="2" stroke-linecap="round" stroke-linejoin="round"/>
<path d="M48.9658 159.846L129.241 172.407L299.934 271.055L470.724 172.407L550.999 159.846" stroke="#1890FF" stroke-width="2" stroke-linecap="round" stroke-linejoin="round"/>
<path d="M470.724 298.785V369.607L299.934 468.255L129.241 369.607V298.785" stroke="#1890FF" stroke-width="2" stroke-linecap="round" stroke-linejoin="round"/>
<path d="M550.999 252.504L470.724 298.785L380.209 351.056" stroke="#1890FF" stroke-width="2" stroke-linecap="round" stroke-linejoin="round"/>
<path d="M219.756 351.056L129.241 298.785L48.9658 252.504" stroke="#1890FF" stroke-width="2" stroke-linecap="round" stroke-linejoin="round"/>
<path d="M434.885 358.012L444.062 364.969L438.749 368.061L431.697 363.036L430.538 364.872V372.795L426.384 375.21L426.288 345.838L430.441 343.423L430.538 359.558L438.169 346.515L443.579 343.423L434.885 358.012Z" fill="#1890FF"/>
<path d="M414.406 359.752C419.526 356.757 423.39 358.496 423.39 364.583C423.39 365.259 423.294 366.419 423.197 367.771L409.093 375.887C409.48 379.172 411.895 379.462 415.082 377.626C416.821 376.66 418.464 374.921 419.623 372.892L421.845 375.018C420.009 378.206 417.691 380.525 415.082 382.071C408.997 385.646 404.843 383.52 404.843 376.66C404.65 370.38 408.031 363.423 414.406 359.752ZM408.997 371.829L418.946 366.032C418.657 363.23 416.821 362.65 414.116 364.196C411.412 365.839 409.576 368.641 408.997 371.829Z" fill="#1890FF"/>
<path d="M399.336 386.612C400.302 386.032 400.979 385.066 401.558 384.003L403.683 386.129C402.524 388.254 400.689 390.187 398.66 391.443C394.989 393.568 392.671 392.312 392.671 387.095V377.336L390.353 378.689V374.245L392.671 372.892V365.356L396.825 362.94V370.476L401.075 368.061V372.505L396.825 374.921V383.327C396.825 386.805 397.598 387.675 399.336 386.612Z" fill="#1890FF"/>
<path d="M383.301 390.186V378.109L387.455 375.693V388.254C387.455 394.631 384.364 399.848 378.761 403.037C373.158 406.225 370.067 404.969 370.067 398.302V385.742L374.221 383.326V395.404C374.221 398.592 375.477 400.524 378.761 398.592C381.756 396.95 383.301 394.534 383.301 390.186Z" fill="#1890FF"/>
<path d="M345.047 401.974C345.047 406.032 342.825 410.573 339.444 413.665L347.172 421.008L341.762 424.1L334.711 417.336L329.301 420.428V431.25L324.857 433.762L324.761 404.389L334.807 398.592C342.825 394.051 345.047 397.24 345.047 401.974ZM329.301 415.694L335.097 412.409C338.478 410.476 340.507 407.578 340.507 404.679C340.507 402.167 339.251 401.104 334.904 403.52L329.398 406.708L329.301 415.694Z" fill="#1890FF"/>
<path d="M356.929 392.989C362.918 389.51 367.168 391.829 367.168 398.496C367.168 405.066 363.015 412.216 357.025 415.694C351.133 419.076 346.786 416.757 346.786 410.283C346.786 403.617 350.843 396.467 356.929 392.989ZM356.929 411.25C360.406 409.221 362.821 405.163 362.821 401.008C362.821 396.757 360.213 395.597 356.929 397.53C353.548 399.462 351.036 403.52 351.036 407.868C351.133 411.636 353.451 413.279 356.929 411.25Z" fill="#1890FF"/>
<path d="M451.731 359.58C452.944 357.508 452.958 355.26 451.761 354.559C450.564 353.857 448.61 354.968 447.397 357.04C446.183 359.112 446.169 361.36 447.366 362.061C448.563 362.763 450.517 361.652 451.731 359.58Z" fill="#1890FF"/>
</svg>
