<svg width="129" height="128" viewBox="0 0 129 128" fill="none" xmlns="http://www.w3.org/2000/svg">
<g clip-path="url(#clip0_119221:124281)">
<rect x="1.66602" y="79" width="52" height="48" stroke="#00D2A0" stroke-width="2" stroke-dasharray="4 4"/>
<rect x="75.666" y="79" width="52" height="48" stroke="#00D2A0" stroke-width="2" stroke-dasharray="4 4"/>
<path d="M41.3228 62.3897L27.8034 50.6628L35.4467 24.0666C36.3088 21.0666 39.053 19 42.1744 19H61.666V30H57.6629H57.0366L56.7632 30.5635L41.3228 62.3897ZM33.3678 79H18.0522L25.6099 56.2651L38.9102 68.228L33.3678 79Z" stroke="#00D2A0" stroke-width="2"/>
<path d="M88.0092 62.3897L101.529 50.6628L93.8853 24.0666C93.0232 21.0666 90.279 19 87.1576 19H67.666V30H71.6691H72.2954L72.5688 30.5635L88.0092 62.3897ZM95.9643 79H111.28L103.722 56.2651L90.4218 68.228L95.9643 79Z" stroke="#00D2A0" stroke-width="2"/>
<path d="M63.9589 119.707C64.3494 120.098 64.9826 120.098 65.3731 119.707L71.7371 113.343C72.1276 112.953 72.1276 112.319 71.7371 111.929C71.3466 111.538 70.7134 111.538 70.3229 111.929L64.666 117.586L59.0092 111.929C58.6186 111.538 57.9855 111.538 57.5949 111.929C57.2044 112.319 57.2044 112.953 57.5949 113.343L63.9589 119.707ZM63.666 88V119H65.666V88H63.666Z" fill="#00D2A0"/>
<path d="M0.666016 74H15.166L31.9261 19.6428C32.9604 16.2884 36.0607 14 39.571 14H89.3078C92.7957 14 95.8816 16.2597 96.9346 19.5849L114.166 74H128.666" stroke="#00D2A0" stroke-width="2"/>
</g>
<defs>
<clipPath id="clip0_119221:124281">
<rect width="128" height="128" fill="white" transform="translate(0.666016)"/>
</clipPath>
</defs>
</svg>
