<svg width="68" height="88" viewBox="0 0 68 88" fill="none" xmlns="http://www.w3.org/2000/svg">
<path d="M55.8502 68.6274C55.165 68.6274 54.6095 69.1829 54.6095 69.8681V81.5332C54.6095 81.9109 54.3022 82.2182 53.9245 82.2182H47.2548V57.7848C47.2548 57.0996 46.6993 56.544 46.0141 56.544C45.3289 56.544 44.7734 57.0996 44.7734 57.7848V82.2184H31.343L35.2377 77.9338C35.6632 77.4656 35.8638 76.7988 35.7744 76.1493C35.7727 76.1367 35.7707 76.1242 35.7686 76.1116L32.0591 54.1976L33.0585 52.6932C33.611 53.0856 34.0367 53.4634 34.8349 53.4634C35.6468 53.4634 36.406 53.009 36.7795 52.2609V52.2607L40.6919 44.4194L49.6046 47.8711C49.927 48.0094 54.6092 50.1179 54.6092 55.6856V64.0779C54.609 64.7629 55.1645 65.3186 55.8499 65.3186C56.5351 65.3186 57.0906 64.7631 57.0906 64.0779V55.6856C57.0906 48.3498 50.8094 45.6833 50.5421 45.5732C50.5343 45.5699 50.5264 45.5668 50.5184 45.5638L35.6847 39.8191V36.3401C38.0407 34.5078 39.6744 31.7916 40.0845 28.6928C41.2592 28.6101 42.3492 28.1714 43.2394 27.4059C44.4018 26.4062 45.0689 24.9513 45.0689 23.4148C45.0689 22.1396 44.6088 20.9221 43.7889 19.9733V15.3772C43.7888 6.89825 36.8907 0 28.4117 0C19.9328 0 13.0347 6.89825 13.0347 15.3772V20.0938C12.2061 21.0329 11.7554 22.1889 11.7554 23.4146C11.7554 24.9516 12.4221 26.4064 13.5849 27.4062C14.4744 28.1714 15.5638 28.6096 16.7382 28.6925C17.1516 31.8494 18.8329 34.6668 21.3896 36.5237V39.8191L6.57186 45.5637C6.56409 45.5666 6.55631 45.5698 6.54854 45.5729C6.28104 45.6829 0 48.3495 0 55.6853V81.5329C0 83.279 1.42054 84.6995 3.16666 84.6995H14.9878C15.673 84.6995 16.2285 84.144 16.2285 83.4588C16.2285 82.7736 15.673 82.2181 14.9878 82.2181H12.3182V57.7848C12.3182 57.0996 11.7627 56.544 11.0775 56.544C10.3923 56.544 9.83678 57.0996 9.83678 57.7848V82.2184H3.16682C2.78915 82.2184 2.48178 81.911 2.48178 81.5334V55.6855C2.48178 50.0991 7.19537 47.9953 7.48487 47.8716L16.3906 44.419L20.3034 52.2607C20.6777 53.0106 21.4379 53.4634 22.2482 53.4634C23.0424 53.4634 23.4639 53.0914 24.0245 52.6932L25.0239 54.1976L21.3148 76.1117C21.3126 76.1241 21.3108 76.1366 21.309 76.1491C21.2193 76.7983 21.42 77.4655 21.8457 77.934L25.7404 82.2186H20.7783C20.0931 82.2186 19.5376 82.7741 19.5376 83.4593C19.5376 84.1445 20.0931 84.7 20.7783 84.7H53.9246C55.6708 84.7 57.0913 83.2793 57.0913 81.5334V69.8683C57.091 69.1829 56.5355 68.6274 55.8502 68.6274ZM38.3678 43.5194L34.7202 50.8298C34.6296 50.7654 32.6965 49.392 30.3335 47.7141C31.3589 46.4484 30.1593 47.929 34.839 42.1528L38.3678 43.5194ZM31.034 51.2556L30.088 52.6794H26.994L26.0481 51.2556L28.5411 49.485L31.034 51.2556ZM23.8708 40.2194V37.8975C25.3782 38.5051 26.9892 38.7868 28.5624 38.7868C30.1891 38.7868 31.7844 38.4401 33.2031 37.8197V40.2295L28.5411 45.984L23.8708 40.2194ZM42.5872 23.4148C42.5871 24.2275 42.235 24.9966 41.6213 25.5245C41.2155 25.8735 40.7253 26.0967 40.1885 26.1841V20.646C41.6145 20.8776 42.5872 22.0604 42.5872 23.4148ZM16.6356 26.1841C15.1934 25.95 14.2369 24.7576 14.2369 23.4146C14.2369 22.0882 15.3365 21.0086 16.6356 20.7083V26.1841ZM16.7023 18.1801C16.3071 18.2254 15.8541 18.3324 15.5165 18.4472V15.3772C15.5165 8.26652 21.3012 2.48161 28.4119 2.48161C35.5226 2.48161 41.3073 8.26652 41.3073 15.3772V18.362C40.9467 18.2524 40.5726 18.1799 40.1887 18.1458C40.1887 16.9486 40.1991 17.1795 36.2826 12.9689C35.5623 12.195 34.3708 12.0329 33.4641 12.6253C29.1414 15.449 23.8684 16.8675 19.0031 16.5182C17.9359 16.4383 16.9638 17.1412 16.7023 18.1801ZM19.1172 27.1609V19.4201V19.0123C24.473 19.326 30.0882 17.7349 34.6245 14.8298C36.4207 16.7584 37.3934 17.77 37.7071 18.1548C37.7071 19.1281 37.7071 26.0466 37.7071 27.1608C37.7071 32.1976 33.6001 36.305 28.5626 36.305C22.9059 36.3052 19.1172 31.917 19.1172 27.1609ZM22.3621 50.8298L18.7146 43.5194L22.2371 42.1551L26.7435 47.7177C24.4518 49.345 22.5701 50.682 22.3621 50.8298ZM23.7857 76.3792L27.377 55.1607H29.7047L33.2961 76.3792L28.5409 81.6106L23.7857 76.3792Z" fill="#00D2A0"/>
<path d="M66.2522 58.4998L52.7772 52.9052C52.4396 52.765 52.0602 52.765 51.7227 52.9052L38.2477 58.4998C37.7344 58.713 37.3999 59.214 37.3999 59.7697V66.5708C37.3999 75.9355 43.06 84.3592 51.7303 87.8981C52.0633 88.034 52.4364 88.034 52.7695 87.8981C61.4397 84.3593 67.0999 75.9355 67.0999 66.5708V59.7697C67.0999 59.214 66.7654 58.713 66.2522 58.4998ZM50.7301 71.2055L56.6401 65.2956C57.1771 64.7586 58.0477 64.7586 58.5847 65.2956C59.1217 65.8326 59.1216 66.7032 58.5846 67.2401L51.7024 74.1223C51.1653 74.6594 50.2947 74.6592 49.7579 74.1223L45.9151 70.2796C45.3781 69.7426 45.3781 68.872 45.9151 68.3351C46.4521 67.7981 47.3227 67.7981 47.8597 68.3351L50.7301 71.2055Z" fill="white"/>
<path d="M66.2522 58.4998L52.7772 52.9052C52.4396 52.765 52.0602 52.765 51.7227 52.9052L38.2477 58.4998C37.7344 58.713 37.3999 59.214 37.3999 59.7697V66.5708C37.3999 75.9355 43.06 84.3592 51.7303 87.8981C52.0633 88.034 52.4364 88.034 52.7695 87.8981C61.4397 84.3593 67.0999 75.9355 67.0999 66.5708V59.7697C67.0999 59.214 66.7654 58.713 66.2522 58.4998ZM64.3499 66.5708C64.3499 74.5317 59.6749 81.8603 52.2499 85.1315C45.0233 81.9477 40.1499 74.7475 40.1499 66.5708V60.6877L52.2499 55.6638L64.3499 60.6877V66.5708ZM50.7301 71.2055L56.6401 65.2956C57.1771 64.7586 58.0477 64.7586 58.5847 65.2956C59.1217 65.8326 59.1216 66.7032 58.5846 67.2401L51.7024 74.1223C51.1653 74.6594 50.2947 74.6592 49.7579 74.1223L45.9151 70.2796C45.3781 69.7426 45.3781 68.872 45.9151 68.3351C46.4521 67.7981 47.3227 67.7981 47.8597 68.3351L50.7301 71.2055Z" fill="#00D2A0"/>
</svg>
