<svg width="86" height="86" viewBox="0 0 86 86" fill="none" xmlns="http://www.w3.org/2000/svg">
<g clip-path="url(#clip0)">
<path d="M68.4051 74.9032C69.0877 74.9032 69.5696 74.2346 69.3538 73.587L66.5814 65.2685C65.4592 61.9048 62.5962 59.4218 59.1063 58.7866L50.2546 57.176C50.0124 57.1319 49.8363 56.9209 49.8363 56.6747C49.8363 56.4931 49.9334 56.3258 50.0885 56.2314C51.4536 55.3997 52.6616 54.3386 53.6642 53.1023C53.8619 52.8585 54.1558 52.7097 54.4697 52.7097H56.7718C59.0661 52.7097 60.9331 50.8427 60.9331 48.5484V31.9032C60.9331 21.9605 52.8436 13.871 42.9008 13.871C32.9581 13.871 24.8686 21.9605 24.8686 31.9032V41.6129C24.8686 44.0551 26.4544 46.1329 28.6501 46.8724C29.0321 47.001 29.339 47.3046 29.4353 47.6959C30.322 51.3008 32.6226 54.35 35.7131 56.2314C35.8683 56.3258 35.9654 56.4931 35.9654 56.6747C35.9654 56.9209 35.7893 57.1319 35.5471 57.1759L26.694 58.7866C23.2055 59.4218 20.3411 61.9048 19.2203 65.2685L19.1769 65.3988C18.942 66.1042 18.0468 66.3156 17.521 65.7899L13.941 62.2099C13.4001 61.6689 13.4001 60.7881 13.941 60.2472L18.7128 55.4766C19.1034 55.0861 19.1034 54.4529 18.7129 54.0623L9.84324 45.1927C9.45272 44.8022 8.81955 44.8022 8.42903 45.1927L2.94413 50.6776C1.11039 52.5113 0.100586 54.9498 0.100586 57.5437C0.100586 60.1376 1.11039 62.5747 2.94413 64.4085L21.6907 83.1551C23.5245 84.9888 25.963 86 28.5569 86C31.1507 86 33.5879 84.9888 35.3786 83.1967L41.4725 77.6133C41.8336 77.2824 41.8456 76.7171 41.499 76.3711C40.9567 75.8299 41.34 74.9032 42.1062 74.9032H68.4051ZM58.1589 48.5484C58.1589 49.3141 57.5361 49.9355 56.7718 49.9355C56.2219 49.9355 55.8506 49.3692 56.0282 48.8487C56.1754 48.4173 56.3018 47.9766 56.4065 47.5275C56.4742 47.237 56.7067 47.0101 56.9909 46.9193C57.5359 46.7452 58.1589 47.1084 58.1589 47.6806V48.5484ZM57.9203 42.7304C57.6042 43.4344 56.7718 43.0324 56.7718 42.2607V40.9652C56.7718 40.1934 57.6042 39.7914 57.9203 40.4954C58.0735 40.8365 58.1589 41.2143 58.1589 41.6129C58.1589 42.0115 58.0735 42.3893 57.9203 42.7304ZM29.0299 42.2607C29.0299 43.0324 28.1975 43.4344 27.8814 42.7304C27.7282 42.3893 27.6428 42.0115 27.6428 41.6129C27.6428 41.2143 27.7282 40.8365 27.8814 40.4954C28.1975 39.7914 29.0299 40.1934 29.0299 40.9652V42.2607ZM29.9237 34.6774C29.43 34.6774 29.0299 35.0776 29.0299 35.5712V35.7989C29.0299 36.0714 28.8404 36.3076 28.5835 36.3986C28.1477 36.553 27.6428 36.2548 27.6428 35.7924V31.9032C27.6428 23.4905 34.4881 16.6452 42.9008 16.6452C51.3136 16.6452 58.1589 23.4905 58.1589 31.9032V35.7932C58.1589 36.2553 57.6545 36.5526 57.219 36.3983C56.9618 36.3071 56.7718 36.0709 56.7718 35.798V35.5701C56.7718 35.0771 56.3721 34.6774 55.8791 34.6774H55.3847C51.2831 34.6774 47.4269 33.0795 44.5251 30.1791L43.6079 29.2619C43.2174 28.8714 42.5843 28.8714 42.1937 29.2619L41.2766 30.1791C38.3747 33.0795 34.5186 34.6774 30.417 34.6774H29.9237ZM31.8041 44.3871V38.3265C31.8041 37.8033 32.2079 37.3716 32.727 37.3059C36.2299 36.8631 39.4996 35.417 42.1951 33.1064C42.5996 32.7598 43.2021 32.7597 43.6066 33.1065C46.302 35.4171 49.5716 36.8642 53.0744 37.3062C53.5936 37.3717 53.9976 37.8035 53.9976 38.3268V44.3871C53.9976 46.2044 53.5519 47.9164 52.7731 49.4305C52.61 49.7474 52.2775 49.9355 51.9211 49.9355H43.9008C43.3486 49.9355 42.9008 50.3832 42.9008 50.9355V51.7097C42.9008 52.262 43.3486 52.7097 43.9008 52.7097H47.5666C48.4886 52.7097 48.856 53.781 48.0407 54.2114C46.504 55.0226 44.7565 55.4839 42.9008 55.4839C36.7824 55.4839 31.8041 50.5056 31.8041 44.3871ZM47.0144 57.6335C47.0381 57.6262 47.0621 57.6438 47.0621 57.6686C47.0621 57.6783 47.0583 57.6877 47.0514 57.6946L43.6079 61.138C43.2174 61.5285 42.5843 61.5285 42.1937 61.138L38.7503 57.6946C38.7434 57.6877 38.7396 57.6783 38.7396 57.6686C38.7396 57.6438 38.7636 57.6262 38.7873 57.6335C40.0883 58.0374 41.4688 58.2581 42.9008 58.2581C44.3328 58.2581 45.7134 58.0374 47.0144 57.6335ZM21.8503 66.1451C22.6506 63.7427 24.6966 61.9686 27.1892 61.5136L36.3696 59.8456C36.6924 59.787 37.0234 59.8904 37.2554 60.1224L42.1937 65.0607C42.5843 65.4512 43.2174 65.4512 43.6079 65.0607L48.5449 60.1238C48.7769 59.8918 49.1079 59.7884 49.4307 59.847L58.6097 61.515C61.1023 61.9699 63.1483 63.7427 63.9487 66.1465L65.5054 70.8125C65.7215 71.4601 65.2395 72.129 64.5569 72.129H37.6682C37.403 72.129 37.1486 72.0237 36.9611 71.8361L32.5238 67.3989C32.147 67.0221 31.541 67.0069 31.1459 67.3644L25.8479 72.1568C25.3249 72.6825 24.4108 72.6825 23.8865 72.1568L21.294 69.5642C21.0262 69.2965 20.9327 68.9004 21.0523 68.5412L21.8503 66.1451ZM8.42764 49.1154C8.81816 48.7249 9.45133 48.7249 9.84185 49.1154L14.7889 54.0624C15.1794 54.4529 15.1794 55.0861 14.7889 55.4766L14.6967 55.5688C14.3062 55.9593 13.673 55.9593 13.2825 55.5688L8.33547 50.6218C7.94494 50.2313 7.94494 49.5981 8.33546 49.2076L8.42764 49.1154ZM33.4575 81.1965C32.1481 82.5031 30.4059 83.2258 28.5541 83.2258C26.7023 83.2258 24.9601 82.5031 23.6493 81.1937L4.90271 62.4485C3.5933 61.1391 2.87201 59.3969 2.87201 57.5451C2.87201 55.6919 3.5933 53.9497 4.90271 52.6403L4.95851 52.5845C5.34904 52.194 5.9822 52.194 6.37272 52.5845L11.9769 58.1887C12.0045 58.2163 12.0045 58.261 11.9769 58.2886C10.3554 59.9115 10.3554 62.5511 11.9769 64.174L21.9238 74.1209C22.7103 74.906 23.7547 75.3402 24.8672 75.3402C25.9797 75.3402 27.0241 74.9074 27.7593 74.1695C27.8177 74.1173 27.9066 74.1198 27.962 74.1752L33.515 79.7282C33.9177 80.1309 33.9033 80.7879 33.4835 81.1726L33.4575 81.1965ZM37.0068 77.9427C36.6121 78.304 36.0028 78.2906 35.6245 77.9122L30.6683 72.956C30.2637 72.5515 30.2804 71.8906 30.7048 71.507L31.0516 71.1936C31.4467 70.8364 32.0525 70.8517 32.4292 71.2284L37.3833 76.1825C37.7861 76.5852 37.7716 77.2426 37.3514 77.6272L37.0068 77.9427Z" fill="#1E5DC5"/>
<path d="M81.7393 0H62.32C60.0257 0 58.1587 1.86703 58.1587 4.16129V15.2581C58.1587 17.5523 60.0257 19.4194 62.32 19.4194H64.8389C65.4587 19.4194 65.9292 19.9774 65.8245 20.5883L64.9678 25.585C64.8219 26.4363 65.751 27.0597 66.4834 26.602L77.7329 19.5713C77.8919 19.472 78.0755 19.4194 78.2629 19.4194H81.7393C84.0336 19.4194 85.9006 17.5523 85.9006 15.2581V4.16129C85.9006 1.86703 84.0336 0 81.7393 0ZM83.1264 15.2581C83.1264 16.0224 82.5036 16.6452 81.7393 16.6452H77.4667C77.2793 16.6452 77.0957 16.6978 76.9368 16.7971L70.2636 20.9675C69.5311 21.4252 68.6019 20.8016 68.748 19.9504L69.1145 17.8143C69.2193 17.2033 68.7488 16.6452 68.1289 16.6452H62.32C61.5557 16.6452 60.9329 16.0224 60.9329 15.2581V4.16129C60.9329 3.397 61.5557 2.77419 62.32 2.77419H81.7393C82.5036 2.77419 83.1264 3.397 83.1264 4.16129V15.2581Z" fill="#1E5DC5"/>
<path d="M79.3522 5.54834H64.707C64.1547 5.54834 63.707 5.99606 63.707 6.54834V7.32253C63.707 7.87482 64.1547 8.32253 64.707 8.32253H79.3522C79.9045 8.32253 80.3522 7.87482 80.3522 7.32253V6.54834C80.3522 5.99606 79.9045 5.54834 79.3522 5.54834Z" fill="#1E5DC5"/>
<path d="M73.8038 11.0968H64.707C64.1547 11.0968 63.707 11.5445 63.707 12.0968V12.871C63.707 13.4233 64.1547 13.871 64.707 13.871H73.8038C74.3561 13.871 74.8038 13.4233 74.8038 12.871V12.0968C74.8038 11.5445 74.3561 11.0968 73.8038 11.0968Z" fill="#1E5DC5"/>
<path d="M79.3523 11.0968H78.5781C78.0258 11.0968 77.5781 11.5445 77.5781 12.0968V12.871C77.5781 13.4233 78.0258 13.871 78.5781 13.871H79.3523C79.9046 13.871 80.3523 13.4233 80.3523 12.871V12.0968C80.3523 11.5445 79.9046 11.0968 79.3523 11.0968Z" fill="#1E5DC5"/>
<path d="M42.9008 4.16125C25.6144 4.16125 10.6133 15.566 5.74226 31.7933C5.48376 32.6545 4.29665 32.8349 3.83412 32.0638L2.99246 30.6607C2.70833 30.1871 2.09403 30.0335 1.62042 30.3177L0.956701 30.7159C0.483086 31.0001 0.329539 31.6144 0.613755 32.088L4.46019 38.4972C4.74438 38.9708 5.35866 39.1243 5.83221 38.8401L12.2416 34.9936C12.7152 34.7094 12.8687 34.0952 12.5845 33.6216L12.1862 32.9577C11.902 32.4841 11.2878 32.3305 10.8142 32.6147L9.97109 33.1205C9.2088 33.5779 8.29382 32.8911 8.5629 32.0438C13.2551 17.269 27.044 6.93545 42.9008 6.93545C46.208 6.93545 49.4752 7.38107 52.6278 8.26194C53.1597 8.41056 53.7195 8.11688 53.883 7.58939L54.1121 6.85021C54.2756 6.32272 53.9809 5.76123 53.4493 5.61147C50.0304 4.64819 46.4871 4.16125 42.9008 4.16125Z" fill="#1E5DC5"/>
<path d="M84.7121 31.5705C84.9962 31.0969 84.8427 30.4827 84.3692 30.1985L77.9599 26.3521C77.4863 26.0679 76.8719 26.2214 76.5878 26.6951L72.7424 33.1056C72.4583 33.5791 72.6119 34.1933 73.0854 34.4775L73.7494 34.8758C74.223 35.16 74.8372 35.0064 75.1214 34.5328L75.9267 33.1903C76.3645 32.4607 77.4428 32.5809 77.6694 33.401C78.5279 36.5083 78.9652 39.7216 78.9652 43C78.9652 50.9147 76.3346 58.6596 71.5404 64.9213C71.2047 65.3598 71.269 65.9888 71.6979 66.3367L72.299 66.8245C72.7279 67.1724 73.3588 67.1076 73.6954 66.6698C78.8899 59.9151 81.7394 51.5487 81.7394 43C81.7394 39.6751 81.3195 36.4116 80.4964 33.2461C80.2625 32.3464 81.2518 31.5638 82.0489 32.042L82.9417 32.5776C83.4153 32.8616 84.0295 32.7081 84.3136 32.2345L84.7121 31.5705Z" fill="#1E5DC5"/>
</g>
<defs>
<clipPath id="clip0">
<rect width="86" height="86" fill="white"/>
</clipPath>
</defs>
</svg>
