<svg width="70" height="70" viewBox="0 0 70 70" fill="none" xmlns="http://www.w3.org/2000/svg">
<g clip-path="url(#clip0)">
<path d="M20.5692 42.6567C21.5913 42.141 22.8179 42.5262 23.3619 43.5335L27.2228 50.6826C27.5203 51.2334 28.1539 51.5115 28.7608 51.3584C29.3677 51.205 29.7929 50.6589 29.7929 50.0329V39.5942C29.7928 38.8393 29.1807 38.2272 28.4256 38.2272C27.6705 38.2272 27.0584 38.8394 27.0584 39.5944V44.6243L25.7678 42.2344C24.5152 39.9152 21.6904 39.0281 19.3375 40.2156C17.3238 41.2316 16.2867 43.4724 16.8157 45.665L19.3186 56.0393C19.9036 58.4645 20.9467 60.7154 22.4186 62.7297L27.3219 69.4394C27.5896 69.8059 28.0053 70.0001 28.4268 70.0001C28.7067 70.0001 28.9892 69.9144 29.2324 69.7367C29.842 69.2911 29.9752 68.4357 29.5296 67.826L24.6263 61.1163C23.3682 59.3947 22.4768 57.4709 21.9768 55.3981L19.4739 45.0236C19.2441 44.0712 19.6946 43.0981 20.5692 42.6567Z" fill="#00D2A0"/>
<path d="M51.4373 36.8293C50.6305 36.8293 49.871 37.0359 49.2088 37.3986C48.5379 35.6511 46.8432 34.4068 44.8623 34.4068C44.008 34.4068 43.2073 34.6392 42.5184 35.0425C41.782 33.4404 40.1632 32.3245 38.2875 32.3245C37.603 32.3245 36.9531 32.4742 36.3673 32.7407V26.204C36.3673 23.6375 34.2793 21.5494 31.7127 21.5494C29.1461 21.5494 27.0581 23.6374 27.0581 26.204V28.5739C27.0581 29.3289 27.6702 29.9411 28.4253 29.9411C29.1804 29.9411 29.7925 29.3289 29.7925 28.5739V26.2042C29.7925 25.1454 30.6539 24.284 31.7127 24.284C32.7715 24.284 33.6329 25.1454 33.6329 26.2042V45.4962C33.6329 46.2512 34.245 46.8634 35.0001 46.8634C35.7552 46.8634 36.3673 46.2512 36.3673 45.4962V36.979C36.3673 35.9203 37.2286 35.0588 38.2875 35.0588C39.3464 35.0588 40.2077 35.9203 40.2077 36.979V45.4962C40.2077 46.2512 40.8198 46.8634 41.5749 46.8634C42.33 46.8634 42.9421 46.2512 42.9421 45.4962V39.0614C42.9421 38.0025 43.8034 37.141 44.8623 37.141C45.9212 37.141 46.7825 38.0025 46.7825 39.0614V45.4962C46.7825 46.2512 47.3946 46.8634 48.1497 46.8634C48.9048 46.8634 49.5169 46.2512 49.5169 45.4962V41.4836C49.5169 40.4249 50.3784 39.5634 51.4371 39.5634C52.4959 39.5634 53.3574 40.4249 53.3574 41.4836V53.0198C53.3574 56.0938 52.8909 59.1399 51.971 62.0731L50.0425 68.223C49.8166 68.9435 50.2175 69.7108 50.938 69.9366C51.0742 69.9794 51.2118 69.9997 51.3475 69.9997C51.9291 69.9995 52.4684 69.6255 52.6516 69.0411L54.5802 62.8912C55.5831 59.6928 56.0917 56.3715 56.0917 53.0198V41.4836C56.0919 38.9174 54.0039 36.8293 51.4373 36.8293Z" fill="#00D2A0"/>
<path d="M69.8852 7.25007C69.6123 6.41075 68.9001 5.81069 68.0266 5.68396L63.8391 5.07679L61.9653 1.28256C61.5747 0.491368 60.7839 0 59.9017 0C59.9015 0 59.9013 0 59.9011 0C59.0185 0.000136719 58.2277 0.492052 57.8374 1.28365L55.9657 5.0787L51.7784 5.68833C50.905 5.81548 50.1931 6.41595 49.9208 7.25554C49.6483 8.095 49.8718 8.99898 50.5039 9.61476L53.5348 12.5676L52.8206 16.7384C52.6717 17.6083 53.0228 18.4709 53.7369 18.9893C54.1402 19.2823 54.612 19.4309 55.087 19.4309C55.453 19.4309 55.8209 19.3426 56.1608 19.1639L59.9056 17.1938L63.6516 19.162C64.4328 19.5727 65.3617 19.5052 66.0755 18.986C66.7893 18.467 67.14 17.6045 66.9904 16.7345L66.274 12.5642L69.3033 9.60984C69.9351 8.99351 70.1581 8.08925 69.8852 7.25007ZM64.2022 10.7654C63.6595 11.2944 63.4124 12.0562 63.5407 12.8029L64.1472 16.3334L60.9762 14.6674C60.3053 14.3146 59.5044 14.315 58.8338 14.6678L55.6635 16.3356L56.2682 12.8046C56.3959 12.0578 56.1483 11.2964 55.6056 10.7676L53.0396 8.26781L56.5847 7.75183C57.3344 7.64259 57.9821 7.17173 58.3172 6.4921L59.9018 3.27948L61.488 6.49115C61.8235 7.17064 62.4715 7.64109 63.2215 7.75005L66.7666 8.26425L64.2022 10.7654Z" fill="#00D2A0"/>
<path d="M44.9818 7.25007C44.709 6.41075 43.9969 5.81056 43.1234 5.68396L38.9359 5.07679L37.0621 1.28256C36.6714 0.491368 35.8807 0 34.9984 0C34.9982 0 34.9979 0 34.9977 0C34.1152 0.000136719 33.3244 0.492052 32.934 1.28365L31.0624 5.0787L26.8751 5.68833C26.0017 5.81548 25.2898 6.41595 25.0175 7.25554C24.745 8.095 24.9685 8.99898 25.6006 9.61476L28.6314 12.5675L27.9171 16.7382C27.7682 17.6082 28.1193 18.4707 28.8334 18.9892C29.2367 19.2822 29.7086 19.4308 30.1835 19.4308C30.5495 19.4308 30.9174 19.3425 31.2573 19.1638L35.0023 17.1938L38.7483 19.1619C39.5295 19.5726 40.4584 19.505 41.1722 18.9859C41.886 18.4669 42.2367 17.6044 42.0871 16.7344L41.3707 12.5641L44.4 9.60971C45.0317 8.99351 45.2547 8.08939 44.9818 7.25007ZM39.299 10.7654C38.7565 11.2942 38.5093 12.0559 38.6375 12.8029L39.244 16.3334L36.073 14.6674C35.4019 14.3148 34.6009 14.3149 33.9306 14.6678L30.7602 16.3356L31.3649 12.8046C31.4926 12.0577 31.245 11.2963 30.7022 10.7676L28.1364 8.26781L31.6814 7.75183C32.431 7.64259 33.0788 7.17173 33.4141 6.4921L34.9986 3.27934L36.5848 6.49115C36.9202 7.1705 37.5681 7.64109 38.3183 7.75005L41.8634 8.26425L39.299 10.7654Z" fill="#00D2A0"/>
<path d="M20.0781 7.25007C19.8052 6.41075 19.093 5.81069 18.2195 5.68396L14.032 5.07679L12.1584 1.28256C11.7676 0.491368 10.977 0 10.0946 0C10.0945 0 10.0942 0 10.0939 0C9.2114 0.000136719 8.42062 0.492052 8.03028 1.28365L6.1586 5.0787L1.97131 5.68833C1.09795 5.81548 0.386188 6.41595 0.113707 7.2554C-0.158774 8.09486 0.0644884 8.99884 0.696677 9.61476L3.7276 12.5676L3.01338 16.7384C2.86449 17.6083 3.21559 18.4709 3.92967 18.9894C4.33313 19.2823 4.80481 19.4311 5.27991 19.4309C5.64591 19.4309 6.01382 19.3426 6.3537 19.1639L10.0987 17.1939L13.8447 19.162C14.626 19.5724 15.5548 19.505 16.2686 18.9862C16.9824 18.467 17.3329 17.6042 17.1835 16.7344L16.4671 12.5641L19.4964 9.60971C20.128 8.99351 20.351 8.08939 20.0781 7.25007ZM14.3952 10.7653C13.8526 11.2941 13.6053 12.0559 13.7337 12.8029L14.3401 16.3334L11.1692 14.6674C10.4983 14.3148 9.6973 14.3149 9.02683 14.6678L5.85632 16.3357L6.46089 12.805C6.58886 12.0582 6.34126 11.2967 5.79835 10.7677L3.23268 8.26781L6.77766 7.75183C7.5273 7.64259 8.17507 7.17173 8.51017 6.4921L10.0947 3.27934L11.681 6.49115C12.0163 7.1705 12.6642 7.64109 13.4144 7.75005L16.9597 8.26425L14.3952 10.7653Z" fill="#00D2A0"/>
<path d="M29.3919 33.2404C29.1376 32.986 28.785 32.8398 28.4253 32.8398C28.0657 32.8398 27.713 32.986 27.4587 33.2404C27.2044 33.4949 27.0581 33.8473 27.0581 34.207C27.0581 34.5666 27.2044 34.9193 27.4587 35.1735C27.713 35.4278 28.0657 35.5742 28.4253 35.5742C28.7849 35.5742 29.1376 35.4279 29.3919 35.1735C29.6462 34.9193 29.7925 34.5666 29.7925 34.207C29.7925 33.8472 29.6462 33.4946 29.3919 33.2404Z" fill="#00D2A0"/>
</g>
<defs>
<clipPath id="clip0">
<rect width="70" height="70" fill="white"/>
</clipPath>
</defs>
</svg>
