<svg width="70" height="70" viewBox="0 0 70 70" fill="none" xmlns="http://www.w3.org/2000/svg">
<g clip-path="url(#clip0)">
<path d="M66.8815 6.69922H31.5034C30.9373 6.69922 30.478 7.15851 30.478 7.72461C30.478 8.29124 30.9373 8.75 31.5034 8.75H66.8821C67.4706 8.75 67.9496 9.22905 67.9496 9.81812V41.037C67.9496 41.6031 68.4089 42.0624 68.975 42.0624C69.5417 42.0624 70.0004 41.6031 70.0004 41.037V9.81812C70.0004 8.09845 68.6017 6.69922 66.8815 6.69922Z" fill="#1E5DC5"/>
<path d="M68.9745 44.4768C68.4078 44.4768 67.9491 44.9355 67.9491 45.5022V47.5294H2.05078V9.81811C2.05078 9.22904 2.52983 8.75 3.11836 8.75H18.2199C18.786 8.75 19.2453 8.29124 19.2453 7.72461C19.2453 7.15851 18.786 6.69922 18.2199 6.69922H3.11836C1.39869 6.69922 0 8.09845 0 9.81811V53.8495C0 55.1846 1.08627 56.2709 2.42141 56.2709H27.2711V61.2397H23.0371C22.471 61.2397 22.0117 61.699 22.0117 62.2651C22.0117 62.8318 22.471 63.2905 23.0371 63.2905H46.9628C47.5294 63.2905 47.9882 62.8318 47.9882 62.2651C47.9882 61.699 47.5294 61.2397 46.9628 61.2397H42.7288V56.2709H67.5784C68.9136 56.2709 69.9999 55.1846 69.9999 53.8495V45.5022C69.9999 44.9355 69.5411 44.4768 68.9745 44.4768ZM40.678 61.2397H29.3218V56.2709H40.678V61.2397ZM67.5784 54.2201H2.42141C2.21687 54.2201 2.05078 54.054 2.05078 53.8495V49.5802H67.9491V53.8495C67.9491 54.054 67.783 54.2201 67.5784 54.2201Z" fill="#1E5DC5"/>
<path d="M22.6851 8.75H27.0376C27.6037 8.75 28.063 8.29124 28.063 7.72461C28.063 7.15851 27.6037 6.69922 27.0376 6.69922H22.6851C22.119 6.69922 21.6597 7.15851 21.6597 7.72461C21.6597 8.29124 22.119 8.75 22.6851 8.75Z" fill="#1E5DC5"/>
<path d="M6.34033 14.4441C5.77423 14.4441 5.31494 14.9028 5.31494 15.4695V42.6824C5.31494 43.2485 5.77423 43.7078 6.34033 43.7078H14.3256C14.8917 43.7078 15.351 43.2485 15.351 42.6824V15.4695C15.351 14.9028 14.8917 14.4441 14.3256 14.4441H6.34033ZM13.3002 16.4949V17.7328H7.36572V16.4949H13.3002ZM7.36572 41.657V19.7836H13.3002V41.657H7.36572Z" fill="#1E5DC5"/>
<path d="M56.5586 25.5728H64.5438C65.1105 25.5728 65.5692 25.114 65.5692 24.5474V15.4695C65.5692 14.9028 65.1105 14.4441 64.5438 14.4441H56.5586C55.9925 14.4441 55.5332 14.9028 55.5332 15.4695V24.5474C55.5332 25.114 55.9925 25.5728 56.5586 25.5728ZM57.584 23.522V19.7831H63.5184V23.522H57.584ZM63.5184 16.4949V17.7328H57.584V16.4949H63.5184Z" fill="#1E5DC5"/>
<path d="M55.5332 39.0839C55.5332 39.6505 55.9925 40.1093 56.5586 40.1093H64.5438C65.1105 40.1093 65.5692 39.6505 65.5692 39.0839V30.006C65.5692 29.4393 65.1105 28.9806 64.5438 28.9806H56.5586C55.9925 28.9806 55.5332 29.4393 55.5332 30.006V39.0839ZM57.584 38.0585V34.3196H63.5184V38.0585H57.584ZM63.5184 31.0314V32.2688H57.584V31.0314H63.5184Z" fill="#1E5DC5"/>
<path d="M20.0444 34.1284C20.0444 35.777 21.3865 37.1186 23.0352 37.1186C23.786 37.1186 24.4723 36.8403 24.9978 36.3816L32.0452 40.2861C32.0217 40.4372 32.0089 40.5926 32.0089 40.7502C32.0089 42.3993 33.3505 43.7409 34.9996 43.7409C36.6483 43.7409 37.9898 42.3993 37.9898 40.7502C37.9898 40.5926 37.9776 40.4372 37.9541 40.2861L45.0009 36.3816C45.5265 36.8398 46.2133 37.1186 46.9636 37.1186C48.6128 37.1186 49.9543 35.777 49.9543 34.1279C49.9543 32.8392 49.1346 31.7379 47.989 31.3187V24.9672C49.1346 24.5474 49.9543 23.4467 49.9543 22.1575C49.9543 20.5083 48.6128 19.1668 46.9636 19.1668C46.2149 19.1668 45.5302 19.4439 45.0052 19.9L37.9535 15.9934C37.9776 15.8423 37.9898 15.6874 37.9898 15.5293C37.9898 13.8801 36.6483 12.5386 34.9991 12.5386C33.3505 12.5386 32.0089 13.8801 32.0089 15.5293C32.0089 15.6868 32.0212 15.8423 32.0452 15.9934L24.9935 19.9C24.4686 19.4439 23.7839 19.1668 23.0352 19.1668C21.386 19.1668 20.0444 20.5083 20.0444 22.1575C20.0444 23.4462 20.8642 24.5474 22.0098 24.9666V31.3187C20.8642 31.7379 20.0444 32.8392 20.0444 34.1284ZM34.9996 18.52C35.7484 18.52 36.4331 18.2428 36.958 17.7862L44.0097 21.6934C43.9862 21.8445 43.9734 21.9994 43.9734 22.1575C43.9734 22.3156 43.9862 22.471 44.0097 22.6221L36.958 26.5287C36.4331 26.0727 35.7484 25.7955 34.9996 25.7955C34.2509 25.7955 33.5662 26.0727 33.0413 26.5287L25.9896 22.6221C26.0136 22.471 26.0259 22.3156 26.0259 22.1575C26.0259 21.9994 26.0131 21.8445 25.9896 21.6934L33.0413 17.7868C33.5662 18.2428 34.2509 18.52 34.9996 18.52ZM43.9734 34.1284C43.9734 34.2843 43.9857 34.4376 44.0087 34.5871L36.958 38.4932C36.6857 38.2561 36.3706 38.0671 36.025 37.941V31.5954C37.1706 31.1761 37.9904 30.0749 37.9904 28.7857C37.9904 28.6276 37.9776 28.4727 37.9541 28.3216L45.0058 24.4149C45.2781 24.6515 45.5932 24.8406 45.9388 24.9672V31.3187C44.7932 31.7379 43.9734 32.8392 43.9734 34.1284ZM35.9396 28.7857C35.9396 29.3042 35.5177 29.7256 34.9996 29.7256C34.4816 29.7256 34.0597 29.3042 34.0597 28.7857C34.0597 28.2676 34.4816 27.8463 34.9996 27.8463C35.5177 27.8463 35.9396 28.2676 35.9396 28.7857ZM24.9935 24.4149L32.0452 28.3216C32.0217 28.4733 32.0089 28.6281 32.0089 28.7862C32.0089 30.0749 32.8287 31.1761 33.9743 31.5954V37.941C33.6287 38.0676 33.3136 38.2567 33.0413 38.4932L25.9906 34.5871C26.0136 34.4376 26.0259 34.2843 26.0259 34.1284C26.0259 32.8392 25.2061 31.7379 24.0605 31.3187V24.9672C24.4061 24.8406 24.7212 24.6515 24.9935 24.4149ZM23.0352 35.0678C22.5171 35.0678 22.0952 34.6464 22.0952 34.1284C22.0952 33.6098 22.5171 33.1884 23.0352 33.1884C23.5537 33.1884 23.9751 33.6098 23.9751 34.1284C23.9751 34.6464 23.5537 35.0678 23.0352 35.0678ZM34.9996 41.6901C34.4816 41.6901 34.0597 41.2682 34.0597 40.7502C34.0597 40.2321 34.4816 39.8102 34.9996 39.8102C35.5177 39.8102 35.9396 40.2321 35.9396 40.7502C35.9396 41.2682 35.5177 41.6901 34.9996 41.6901ZM46.9641 35.0678C46.4461 35.0678 46.0242 34.6464 46.0242 34.1284C46.0242 33.6098 46.4461 33.1884 46.9641 33.1884C47.4822 33.1884 47.9041 33.6098 47.9041 34.1284C47.9041 34.6464 47.4822 35.0678 46.9641 35.0678ZM46.9641 21.2175C47.4822 21.2175 47.9041 21.6395 47.9041 22.1575C47.9041 22.6755 47.4822 23.0974 46.9641 23.0974C46.4461 23.0974 46.0242 22.6755 46.0242 22.1575C46.0242 21.6395 46.4461 21.2175 46.9641 21.2175ZM34.9996 14.5894C35.5177 14.5894 35.9396 15.0113 35.9396 15.5293C35.9396 16.0473 35.5177 16.4692 34.9996 16.4692C34.4816 16.4692 34.0597 16.0473 34.0597 15.5293C34.0597 15.0113 34.4816 14.5894 34.9996 14.5894ZM23.0352 21.2175C23.5537 21.2175 23.9751 21.6395 23.9751 22.1575C23.9751 22.6755 23.5537 23.0974 23.0352 23.0974C22.5171 23.0974 22.0952 22.6755 22.0952 22.1575C22.0952 21.6395 22.5171 21.2175 23.0352 21.2175Z" fill="#1E5DC5"/>
</g>
<defs>
<clipPath id="clip0">
<rect width="70" height="70" fill="white"/>
</clipPath>
</defs>
</svg>
