<svg width="34" height="34" viewBox="0 0 34 34" fill="none" xmlns="http://www.w3.org/2000/svg">
<path d="M28.5898 11.1211C28.332 10.0898 27.5156 9.27344 26.5273 9.01562C24.6797 8.5 17.375 8.5 17.375 8.5C17.375 8.5 10.0273 8.5 8.17969 9.01562C7.19141 9.27344 6.375 10.0898 6.11719 11.1211C5.60156 12.9258 5.60156 16.793 5.60156 16.793C5.60156 16.793 5.60156 20.6172 6.11719 22.4648C6.375 23.4961 7.19141 24.2695 8.17969 24.5273C10.0273 25 17.375 25 17.375 25C17.375 25 24.6797 25 26.5273 24.5273C27.5156 24.2695 28.332 23.4961 28.5898 22.4648C29.1055 20.6172 29.1055 16.793 29.1055 16.793C29.1055 16.793 29.1055 12.9258 28.5898 11.1211ZM14.9688 20.2734V13.3125L21.0703 16.793L14.9688 20.2734Z" fill="#828282"/>
</svg>
