<svg width="128" height="128" viewBox="0 0 128 128" fill="none" xmlns="http://www.w3.org/2000/svg">
<path d="M119.661 0H75.0885C70.4908 0 66.75 3.74075 66.75 8.3385V41.411C66.75 46.0087 70.4908 49.7495 75.0885 49.7495H119.661C124.259 49.7495 128 46.0087 128 41.411V8.3385C128 3.74075 124.259 0 119.661 0V0ZM124.25 41.411C124.25 43.9412 122.191 45.9995 119.661 45.9995H75.0885C72.5583 45.9995 70.5 43.9412 70.5 41.411V8.3385C70.5 5.80825 72.5585 3.75 75.0885 3.75H119.661C122.191 3.75 124.25 5.80825 124.25 8.3385V41.411Z" fill="#2780EB"/>
<path d="M108.479 102.637C108.089 101.29 107.198 100.176 105.97 99.4997C105.608 99.3002 105.228 99.1518 104.84 99.0433C106.858 95.284 107.36 90.8523 106.147 86.6673L104.637 81.454C104.349 80.4595 103.309 79.8878 102.314 80.1748C101.319 80.463 100.747 81.5027 101.035 82.4975L102.546 87.7107C103.726 91.7842 102.806 96.1615 100.083 99.4205C100.022 99.4943 99.969 99.572 99.9208 99.6517L66.8285 109.24C66.7937 109.228 66.7597 109.216 66.724 109.206C59.7602 107.365 53.3297 101.549 53.2665 101.491C53.2202 101.449 53.172 101.409 53.1215 101.371C50.3067 99.2722 48.276 96.387 47.2485 93.0277L44.1287 82.8262C43.922 82.15 44.1238 81.4053 44.643 80.929C45.4688 80.1713 46.9375 78.8728 49.0207 77.0585L51.9665 87.2253C52.2515 88.229 53.3215 88.7928 54.2892 88.5045C55.284 88.2163 55.8565 87.1765 55.5682 86.1817L51.8068 73.1995C51.8068 73.1993 51.8067 73.199 51.8065 73.1988L43.7897 45.5305C43.4787 44.4577 43.6045 43.3283 44.1432 42.3498C44.682 41.3713 45.5698 40.6612 46.6425 40.3505C47.7153 40.0397 48.8452 40.1653 49.8232 40.7038C50.8017 41.2425 51.5118 42.1302 51.8228 43.203L57.678 63.4108L60.0947 71.7517C60.3797 72.7555 61.4497 73.3192 62.4175 73.031C63.4122 72.7427 63.9847 71.703 63.6965 70.7083L61.2815 62.3732C61.2815 62.3732 61.2815 62.3733 61.2815 62.373C60.6493 60.164 61.9305 57.8467 64.1375 57.2072C65.2102 56.8962 66.3398 57.0218 67.318 57.5605C68.2963 58.0993 69.0063 58.9865 69.317 60.0592L69.919 62.1367L72.0397 69.4565C72.3247 70.4602 73.3948 71.024 74.3625 70.7357C75.3573 70.4475 75.9298 69.4078 75.6415 68.413L73.5328 61.135C72.9633 58.9312 74.2282 56.71 76.4157 56.0762C77.4885 55.7652 78.6183 55.8908 79.5963 56.4295C80.5745 56.9683 81.2845 57.8558 81.5955 58.9285L82.4825 61.9902C82.4835 61.9942 82.4848 61.998 82.486 62.002L84.303 68.2732C84.588 69.277 85.658 69.8407 86.6257 69.5525C87.6205 69.2642 88.193 68.2245 87.9047 67.2298L86.0878 60.9585L86.0857 60.951C85.449 58.7388 86.7283 56.4197 88.94 55.779C91.155 55.1367 93.4783 56.417 94.1198 58.6312L98.5997 74.0935C98.888 75.0882 99.9275 75.6605 100.923 75.3727C101.917 75.0845 102.49 74.0448 102.201 73.05L97.7215 57.5877C96.5045 53.3875 92.0972 50.9607 87.8962 52.177C86.1612 52.68 84.7287 53.727 83.7305 55.079C83.096 54.3007 82.3112 53.644 81.405 53.145C79.5492 52.123 77.4065 51.885 75.3717 52.4743C73.4937 53.0185 71.9742 54.1792 70.973 55.6745C70.4365 55.1272 69.8168 54.6558 69.1263 54.2755C67.2708 53.2535 65.1277 53.0157 63.093 53.605C61.6212 54.0315 60.3667 54.851 59.4105 55.9173L57.2658 48.5155C59.7105 47.0117 61.2495 44.3177 61.2495 41.41V8.3385C61.25 3.74075 57.5092 0 52.9115 0H23.669C21.19 0.07675 21.1918 3.674 23.669 3.75H52.9115C55.4415 3.75 57.5 5.80825 57.5 8.3385V41.411C57.5 42.6452 56.996 43.8103 56.1485 44.659L55.4245 42.1603C54.835 40.1253 53.488 38.4418 51.6323 37.4198C49.7765 36.3975 47.6335 36.1598 45.5988 36.749C43.5638 37.3385 41.8802 38.6855 40.8582 40.5412C39.932 42.2232 39.652 44.1405 40.0462 45.9997H8.3385C5.80825 45.9997 3.75 43.9415 3.75 41.4113V8.3385C3.75 5.80825 5.8085 3.75 8.3385 3.75H14.8395C17.3185 3.67325 17.3168 0.076 14.8395 0H8.3385C3.74075 0 0 3.74075 0 8.3385V41.411C0 46.0087 3.74075 49.7495 8.3385 49.7495H41.1077L47.1247 70.516V70.5165L47.8703 73.0898C45.0573 75.5303 43.1205 77.2363 42.107 78.166C40.5292 79.6133 39.915 81.8732 40.542 83.923L43.6618 94.1245C44.9153 98.2232 47.3848 101.748 50.8063 104.323C51.5103 104.955 56.686 109.488 63.03 111.938C63.0292 111.939 63.0285 111.94 63.028 111.941C62.3517 113.169 62.1943 114.587 62.5843 115.934L64.9818 124.21C65.372 125.556 66.2633 126.67 67.4915 127.346C68.7223 128.025 70.1455 128.179 71.4843 127.79L107.296 117.414C110.076 116.609 111.682 113.692 110.877 110.912L108.479 102.637ZM106.253 113.812L70.4413 124.188C70.0563 124.3 69.6518 124.255 69.301 124.062C68.9503 123.869 68.6958 123.551 68.5843 123.166L66.1868 114.891C66.0753 114.506 66.1202 114.101 66.3135 113.751C66.5067 113.4 66.8248 113.145 67.2095 113.034L103.021 102.658C103.404 102.547 103.81 102.591 104.161 102.785C104.512 102.978 104.767 103.296 104.878 103.681L107.276 111.955C107.506 112.749 107.047 113.582 106.253 113.812V113.812Z" fill="#2780EB"/>
<path fill-rule="evenodd" clip-rule="evenodd" d="M18.625 17C18.625 15.9645 19.4645 15.125 20.5 15.125H24.375C27.1364 15.125 29.375 17.3636 29.375 20.125C29.375 22.8864 27.1364 25.125 24.375 25.125H20.5C19.4645 25.125 18.625 24.2855 18.625 23.25C18.625 22.2145 19.4645 21.375 20.5 21.375H24.375C25.0654 21.375 25.625 20.8154 25.625 20.125C25.625 19.4346 25.0654 18.875 24.375 18.875H20.5C19.4645 18.875 18.625 18.0355 18.625 17Z" fill="#2780EB"/>
<path fill-rule="evenodd" clip-rule="evenodd" d="M18.625 23.25C18.625 22.2145 19.4645 21.375 20.5 21.375H25.125C28.3006 21.375 30.875 23.9494 30.875 27.125C30.875 30.3006 28.3006 32.875 25.125 32.875H20.5C19.4645 32.875 18.625 32.0355 18.625 31C18.625 29.9645 19.4645 29.125 20.5 29.125H25.125C26.2296 29.125 27.125 28.2296 27.125 27.125C27.125 26.0204 26.2296 25.125 25.125 25.125H20.5C19.4645 25.125 18.625 24.2855 18.625 23.25Z" fill="#2780EB"/>
<path fill-rule="evenodd" clip-rule="evenodd" d="M33.375 17C33.375 15.9645 34.2145 15.125 35.25 15.125H39.875C43.0506 15.125 45.625 17.6994 45.625 20.875V27.125C45.625 30.3006 43.0506 32.875 39.875 32.875H35.25C34.2145 32.875 33.375 32.0355 33.375 31V17ZM37.125 18.875V29.125H39.875C40.9796 29.125 41.875 28.2296 41.875 27.125V20.875C41.875 19.7704 40.9796 18.875 39.875 18.875H37.125Z" fill="#2780EB"/>
<path fill-rule="evenodd" clip-rule="evenodd" d="M74.375 20.1251C74.375 17.3636 76.6136 15.1251 79.375 15.1251H83.25C84.2855 15.1251 85.125 15.9645 85.125 17.0001C85.125 18.0356 84.2855 18.8751 83.25 18.8751H79.375C78.6846 18.8751 78.125 19.4347 78.125 20.1251C78.125 20.8154 78.6846 21.3751 79.375 21.3751H80.875C84.0506 21.3751 86.625 23.9494 86.625 27.1251C86.625 30.3007 84.0506 32.8751 80.875 32.8751H76.25C75.2145 32.8751 74.375 32.0356 74.375 31.0001C74.375 29.9645 75.2145 29.1251 76.25 29.1251H80.875C81.9796 29.1251 82.875 28.2296 82.875 27.1251C82.875 26.0205 81.9796 25.1251 80.875 25.1251H79.375C76.6136 25.1251 74.375 22.8865 74.375 20.1251Z" fill="#2780EB"/>
<path fill-rule="evenodd" clip-rule="evenodd" d="M90.2825 15.2678C90.9831 14.9776 91.7896 15.138 92.3258 15.6742L97.25 20.5984L102.174 15.6742C102.71 15.138 103.517 14.9776 104.218 15.2678C104.918 15.558 105.375 16.2417 105.375 17.0001V31.0001C105.375 32.0356 104.536 32.8751 103.5 32.8751C102.464 32.8751 101.625 32.0356 101.625 31.0001V21.5267L98.5758 24.5759C97.8436 25.3081 96.6564 25.3081 95.9242 24.5759L92.875 21.5267V31.0001C92.875 32.0356 92.0355 32.8751 91 32.8751C89.9645 32.8751 89.125 32.0356 89.125 31.0001V17.0001C89.125 16.2417 89.5818 15.558 90.2825 15.2678Z" fill="#2780EB"/>
<path fill-rule="evenodd" clip-rule="evenodd" d="M108.875 17.0001C108.875 15.9645 109.714 15.1251 110.75 15.1251H119.25C120.286 15.1251 121.125 15.9645 121.125 17.0001C121.125 18.0356 120.286 18.8751 119.25 18.8751H112.625V21.3751H117C118.036 21.3751 118.875 22.2145 118.875 23.2501C118.875 24.2856 118.036 25.1251 117 25.1251H112.625V31.0001C112.625 32.0356 111.786 32.8751 110.75 32.8751C109.714 32.8751 108.875 32.0356 108.875 31.0001V17.0001Z" fill="#2780EB"/>
</svg>
