<svg width="128" height="128" viewBox="0 0 128 128" fill="none" xmlns="http://www.w3.org/2000/svg">
<path d="M50.97 43.7141L60.97 49.7141C61.2811 49.901 61.6371 49.9997 62 49.9997C62.3629 49.9997 62.7189 49.901 63.03 49.7141L73.03 43.7141C73.3258 43.5364 73.5706 43.2851 73.7406 42.9848C73.9106 42.6844 73.9999 42.3452 74 42.0001V30.0001C73.9999 29.655 73.9106 29.3158 73.7406 29.0154C73.5706 28.7151 73.3258 28.4638 73.03 28.2861L63.03 22.2861C62.7189 22.0992 62.3629 22.0005 62 22.0005C61.6371 22.0005 61.2811 22.0992 60.97 22.2861L50.97 28.2861C50.6742 28.4638 50.4294 28.7151 50.2594 29.0154C50.0894 29.3158 50.0001 29.655 50 30.0001V42.0001C50.0001 42.3452 50.0894 42.6844 50.2594 42.9848C50.4294 43.2851 50.6742 43.5364 50.97 43.7141V43.7141ZM70 40.8681L64 44.4681V37.1321L70 33.5321V40.8681ZM62 26.3321L68.112 30.0001L62 33.6681L55.888 30.0001L62 26.3321ZM54 33.5321L60 37.1321V44.4681L54 40.8681V33.5321Z" fill="#2780EB"/>
<path d="M54 54H70V58H54V54Z" fill="#2780EB"/>
<path d="M48 62H76V66H48V62Z" fill="#2780EB"/>
<path d="M120.528 88.366C120.101 84.7464 118.654 81.3229 116.354 78.4957C114.054 75.6684 110.997 73.5542 107.54 72.4L102.828 70.83L102.06 69.87C101.095 68.659 99.8687 67.6818 98.4729 67.0117C97.0771 66.3415 95.5479 65.9956 93.9996 66C93.3606 66.0046 92.7265 66.112 92.1216 66.318L88.8296 60.834C88.3239 59.9988 87.6167 59.3037 86.7729 58.8125C85.9291 58.3212 84.9756 58.0494 83.9996 58.022V55.756C85.0215 55.5546 86.0122 55.2183 86.9456 54.756L90.8436 52.806C91.7215 52.3696 92.4717 51.7136 93.0215 50.9018C93.5712 50.09 93.9017 49.1498 93.981 48.1726C94.0603 47.1954 93.8856 46.2142 93.474 45.3244C93.0623 44.4346 92.4277 43.6662 91.6316 43.094L92.4936 42.748C93.5155 42.3395 94.3937 41.6376 95.0173 40.7308C95.641 39.824 95.9823 38.7528 95.9981 37.6523C96.0139 36.5519 95.7036 35.4713 95.1063 34.547C94.509 33.6226 93.6514 32.8957 92.6416 32.458C93.3824 31.4979 93.8395 30.3495 93.9611 29.1429C94.0827 27.9363 93.8639 26.7197 93.3295 25.6311C92.7951 24.5425 91.9664 23.6253 90.9374 22.9836C89.9084 22.3418 88.7203 22.0011 87.5076 22C86.3426 22.0003 85.1821 22.1427 84.0516 22.424L83.9996 22.438V20.702L90.4616 12.622C91.4565 11.3789 91.9989 9.83424 91.9996 8.24199C91.9997 7.00737 91.6336 5.80045 90.9478 4.77387C90.2619 3.74729 89.287 2.94717 88.1463 2.47469C87.0057 2.0022 85.7506 1.87859 84.5397 2.11948C83.3288 2.36037 82.2165 2.95494 81.3436 3.82799L81.1996 3.96999C79.7606 2.70752 77.9138 2.00785 75.9996 1.99999H47.9996C45.8778 1.99999 43.843 2.84285 42.3427 4.34314C40.8424 5.84343 39.9996 7.87826 39.9996 9.99999V14.23C38.6454 13.8207 37.1845 13.9604 35.9324 14.619C34.6803 15.2776 33.7375 16.4022 33.3076 17.75L25.3696 41.572C24.4612 44.289 23.9986 47.1351 23.9996 50V72.036C23.6777 72.0286 23.3589 72.1007 23.0715 72.2458C22.784 72.3909 22.5368 72.6046 22.3516 72.868L0.351562 104.868L3.64756 107.132L15.1856 90.35L41.7676 106.964L38.0396 125.6L41.9596 126.384L45.8976 106.702L53.7356 93C53.9897 92.5553 54.0635 92.0301 53.9418 91.5326C53.8201 91.0351 53.5122 90.6032 53.0816 90.326L52.6956 90.076L59.5356 82H69.9996V90C69.9986 92.8648 70.4612 95.711 71.3696 98.428L74.7276 108.508C76.0373 112.45 78.5219 115.896 81.8476 118.384L88.4216 123.316L90.2096 126.894L93.7896 125.106L91.7896 121.106C91.6476 120.827 91.4421 120.585 91.1896 120.4L84.2356 115.184C81.5635 113.181 79.5665 110.41 78.5116 107.242L75.1516 97.162C74.3844 94.8523 73.9954 92.4338 73.9996 90V79.37C74.0002 79.0362 74.1226 78.7142 74.3439 78.4643C74.5652 78.2145 74.87 78.054 75.2012 78.013C75.5325 77.972 75.8673 78.0533 76.1428 78.2417C76.4183 78.43 76.6156 78.7125 76.6976 79.036L77.0976 80.604C77.6989 83.0233 78.0018 85.5071 77.9996 88V92C77.9996 92.3105 78.0719 92.6167 78.2107 92.8944C78.3496 93.1721 78.5512 93.4137 78.7996 93.6L86.7996 99.6C87.0967 99.8228 87.45 99.9586 87.82 99.9919C88.1899 100.025 88.5618 99.955 88.894 99.7888C89.2262 99.6227 89.5056 99.3674 89.7009 99.0515C89.8961 98.7355 89.9996 98.3714 89.9996 98V88C90.0019 85.0821 89.3885 82.1966 88.1996 79.532L82.7036 67.172C82.2372 66.1204 81.9973 64.9824 81.9996 63.832C81.9992 63.4315 82.1302 63.0419 82.3725 62.723C82.6148 62.4042 82.955 62.1736 83.341 62.0666C83.7269 61.9597 84.1373 61.9823 84.5091 62.1311C84.881 62.2798 85.1938 62.5464 85.3996 62.89L96.2856 81.03L99.7136 78.97L94.3556 70.04C95.2405 70.0825 96.1064 70.3123 96.8959 70.7143C97.6854 71.1163 98.3806 71.6813 98.9356 72.372L104.438 79.25L107.562 76.75L107.55 76.734C109.983 77.7792 112.096 79.4488 113.677 81.5736C115.257 83.6984 116.248 86.203 116.55 88.834L120.01 118.234C120.038 118.464 120.106 118.687 120.21 118.894L124.21 126.894L127.79 125.106L123.946 117.418L120.528 88.366ZM91.9996 37.578C92.0009 37.8933 91.9071 38.2016 91.7305 38.4628C91.5539 38.7239 91.3026 38.9258 91.0096 39.042L85.5056 41.242C84.2567 41.7433 82.9233 42.0006 81.5776 42C81.2112 41.9998 80.8563 41.8721 80.5737 41.6388C80.2912 41.4055 80.0987 41.0812 80.0291 40.7215C79.9596 40.3617 80.0174 39.989 80.1926 39.6672C80.3679 39.3455 80.6496 39.0947 80.9896 38.958L86.4936 36.758C87.7425 36.2567 89.0758 35.9994 90.4216 36C90.8399 36.0005 91.241 36.1669 91.5368 36.4628C91.8326 36.7586 91.999 37.1596 91.9996 37.578V37.578ZM84.1716 6.65599C84.4851 6.34218 84.8847 6.12843 85.3198 6.04181C85.7549 5.95519 86.2059 5.99959 86.6157 6.1694C87.0256 6.3392 87.3758 6.62677 87.6221 6.99571C87.8685 7.36465 87.9998 7.79837 87.9996 8.24199C87.999 8.92596 87.7663 9.5895 87.3396 10.124L83.9996 14.298V9.99999C83.9903 9.08554 83.8232 8.17956 83.5056 7.32199L84.1716 6.65599ZM81.8876 27.09L85.0196 26.306C85.8333 26.1027 86.6688 25.9999 87.5076 26C88.1157 26.0007 88.7025 26.2237 89.1576 26.627C89.6127 27.0303 89.9046 27.5861 89.9784 28.1897C90.0522 28.7933 89.9027 29.4031 89.5581 29.9041C89.2135 30.4052 88.6976 30.7629 88.1076 30.91L84.9756 31.694C84.1632 31.897 83.3289 31.9997 82.4916 32C81.8835 31.9993 81.2966 31.7763 80.8415 31.373C80.3864 30.9697 80.0945 30.4139 80.0207 29.8103C79.947 29.2067 80.0965 28.5969 80.441 28.0959C80.7856 27.5948 81.3015 27.2371 81.8916 27.09H81.8876ZM67.4396 5.99999L66.4396 9.99999H57.5616L56.5616 5.99999H67.4396ZM43.2956 103.2L17.4536 87.05L24.5476 76.73L49.3216 92.656L43.2956 103.2ZM49.2956 87.886L27.9996 74.2V50C27.9986 47.5657 28.391 45.1472 29.1616 42.838L37.1016 19.016C37.2142 18.6819 37.4419 18.3986 37.7439 18.2167C38.0459 18.0348 38.4028 17.9661 38.7508 18.0228C39.0988 18.0795 39.4153 18.2579 39.644 18.5262C39.8728 18.7946 39.9987 19.1354 39.9996 19.488V31.756L38.0596 39.514C37.9796 39.8331 37.9796 40.1669 38.0596 40.486L39.9996 48.244V74C39.9996 76.1217 40.8424 78.1566 42.3427 79.6568C43.843 81.1571 45.8778 82 47.9996 82H54.2916L49.2956 87.886ZM79.9996 59.47C79.3743 60.0123 78.8723 60.6821 78.5273 61.4345C78.1823 62.1868 78.0024 63.0043 77.9996 63.832C77.9981 65.5415 78.3566 67.2321 79.0516 68.794L79.9996 70.926V74C79.9956 74.6797 79.8173 75.347 79.4816 75.938C78.8545 75.1805 78.0305 74.6108 77.1003 74.2917C76.1701 73.9727 75.1699 73.9168 74.2099 74.13C73.2499 74.3433 72.3675 74.8175 71.6598 75.5004C70.9522 76.1832 70.4469 77.0482 70.1996 78H47.9996C46.9387 78 45.9213 77.5786 45.1711 76.8284C44.421 76.0783 43.9996 75.0609 43.9996 74V9.99999C43.9996 8.93913 44.421 7.92171 45.1711 7.17157C45.9213 6.42142 46.9387 5.99999 47.9996 5.99999H52.4396L54.0616 12.486C54.1698 12.9182 54.4193 13.3018 54.7704 13.5761C55.1214 13.8503 55.554 13.9995 55.9996 14H67.9996C68.4454 14 68.8785 13.851 69.23 13.5767C69.5815 13.3024 69.8312 12.9185 69.9396 12.486L71.5616 5.99999H75.9996C77.0604 5.99999 78.0778 6.42142 78.828 7.17157C79.5781 7.92171 79.9996 8.93913 79.9996 9.99999V23.522C78.8581 23.9915 77.8752 24.7783 77.167 25.7891C76.4589 26.8 76.0552 27.9926 76.0039 29.2258C75.9525 30.4589 76.2556 31.681 76.8773 32.7472C77.4989 33.8134 78.4131 34.6792 79.5116 35.242C78.5249 35.6336 77.6711 36.2997 77.0513 37.1616C76.4315 38.0234 76.0716 39.0448 76.0144 40.1048C75.9571 41.1648 76.2049 42.2191 76.7283 43.1426C77.2517 44.0662 78.0288 44.8204 78.9676 45.316C77.9847 45.8471 77.1809 46.6569 76.6572 47.6436C76.1334 48.6304 75.9132 49.75 76.0242 50.8616C76.1351 51.9732 76.5723 53.0271 77.2807 53.8909C77.9891 54.7547 78.9372 55.3897 80.0056 55.716L79.9996 59.47ZM83.0396 77.768L84.5456 81.168C85.5067 83.3173 86.0022 85.6456 85.9996 88V94L81.9996 91V88C81.9942 85.3583 81.6869 82.7259 81.0836 80.154C81.8854 79.4943 82.5499 78.6836 83.0396 77.768ZM81.7076 52C81.3228 51.9997 80.9495 51.8696 80.648 51.6306C80.3464 51.3917 80.1344 51.058 80.0462 50.6835C79.9581 50.309 79.9989 49.9157 80.1621 49.5673C80.3253 49.219 80.6014 48.9359 80.9456 48.764L84.8436 46.814C85.9147 46.2803 87.0948 46.0017 88.2916 46C88.6763 46.0003 89.0496 46.1304 89.3512 46.3694C89.6527 46.6083 89.8647 46.942 89.9529 47.3165C90.0411 47.691 90.0002 48.0843 89.837 48.4326C89.6738 48.781 89.3977 49.0641 89.0536 49.236L85.1556 51.186C84.0844 51.7197 82.9043 51.9983 81.7076 52Z" fill="#2780EB"/>
</svg>
