<svg width="128" height="128" viewBox="0 0 128 128" fill="none" xmlns="http://www.w3.org/2000/svg">
<g clip-path="url(#clip0_119357_172396)">
<path d="M113.111 48.9185H69.7246C68.6891 48.9185 67.8496 49.7577 67.8496 50.7935C67.8496 51.8292 68.6891 52.6685 69.7246 52.6685H113.111C114.147 52.6685 114.986 51.8292 114.986 50.7935C114.986 49.7577 114.147 48.9185 113.111 48.9185Z" fill="#2780EB"/>
<path d="M113.111 60.0002H69.7246C68.6891 60.0002 67.8496 60.8395 67.8496 61.8752C67.8496 62.911 68.6891 63.7502 69.7246 63.7502H113.111C114.147 63.7502 114.986 62.911 114.986 61.8752C114.986 60.8395 114.147 60.0002 113.111 60.0002Z" fill="#2780EB"/>
<path d="M113.111 71.0818H69.7246C68.6891 71.0818 67.8496 71.921 67.8496 72.9568C67.8496 73.9925 68.6891 74.8318 69.7246 74.8318H113.111C114.147 74.8318 114.986 73.9925 114.986 72.9568C114.986 71.921 114.147 71.0818 113.111 71.0818Z" fill="#2780EB"/>
<path d="M91.9562 20.8934L95.8877 17.7151V28.9616C95.8877 29.9974 96.7272 30.8366 97.7627 30.8366C98.7982 30.8366 99.6377 29.9974 99.6377 28.9616V17.7154L103.569 20.8934C104.374 21.5444 105.555 21.4194 106.206 20.6139C106.857 19.8084 106.732 18.6281 105.926 17.9769C101.914 14.7336 102.993 15.6059 98.9412 12.3304C98.9405 12.3299 98.94 12.3294 98.9392 12.3289C98.294 11.8081 97.3807 11.7741 96.6997 12.2439C96.5407 12.3534 96.6682 12.2686 89.5987 17.9769C88.7934 18.6279 88.6682 19.8086 89.3192 20.6139C89.9722 21.4216 91.153 21.5424 91.9562 20.8934V20.8934Z" fill="#2780EB"/>
<path d="M126.12 39.5334C125.085 39.5334 124.245 40.3726 124.245 41.4084V87.3322H3.75586V23.0269C3.75586 20.2631 6.00436 18.0146 8.76811 18.0146H63.4506C64.4861 18.0146 65.3256 17.1754 65.3256 16.1396C65.3256 15.1039 64.4861 14.2646 63.4506 14.2646H8.76811C3.93661 14.2646 0.00585938 18.1954 0.00585938 23.0269V96.0424C0.00585938 100.874 3.93661 104.805 8.76811 104.805H51.4736C50.7724 108.213 49.3291 111.422 47.2334 114.216H39.7431C35.9426 114.216 32.8509 117.307 32.8509 121.108C32.8509 124.908 35.9426 128 39.7431 128H88.2581C92.0586 128 95.1504 124.908 95.1504 121.108C95.1504 117.307 92.0584 114.216 88.2581 114.216H80.7679C78.6721 111.422 77.2289 108.213 76.5276 104.805H119.233C124.065 104.805 127.995 100.874 127.995 96.0424V41.4084C127.995 40.3726 127.156 39.5334 126.12 39.5334V39.5334ZM91.4006 121.108C91.4006 122.841 89.9909 124.25 88.2584 124.25H39.7431C38.0104 124.25 36.6009 122.84 36.6009 121.108C36.6009 119.375 38.0106 117.966 39.7431 117.966H88.2581C89.9909 117.965 91.4006 119.375 91.4006 121.108V121.108ZM76.2479 114.215H51.7536C53.5021 111.328 54.7019 108.143 55.2914 104.804H72.7101C73.2996 108.143 74.4994 111.328 76.2479 114.215ZM119.233 101.055C117.499 101.055 9.20711 101.055 8.76811 101.055C6.00436 101.055 3.75586 98.8062 3.75586 96.0424V91.0822H124.245V96.0424C124.245 98.8062 121.997 101.055 119.233 101.055V101.055Z" fill="#2780EB"/>
<path d="M52.8774 43.5678L36.5066 34.1161C35.0424 33.2703 33.2234 33.2708 31.7591 34.1161L15.3884 43.5678C13.9256 44.4123 13.0146 45.9876 13.0146 47.6793V66.5826C13.0146 68.2733 13.9241 69.8486 15.3884 70.6941L31.7591 80.1456C33.2229 80.9908 35.0421 80.9911 36.5066 80.1456L52.8774 70.6941C54.3416 69.8486 55.2512 68.2731 55.2512 66.5826V47.6793C55.2512 45.9908 54.3429 44.4138 52.8774 43.5678V43.5678ZM17.2634 67.4466C16.9559 67.2688 16.7646 66.9378 16.7646 66.5826V49.2683L32.2579 58.2133V76.1033L17.2634 67.4466ZM51.0024 67.4466L36.0079 76.1036V58.2136L40.4614 55.6423C41.3581 55.1246 41.6654 53.9778 41.1476 53.0811C40.6299 52.1841 39.4831 51.8773 38.5864 52.3948L34.1329 54.9661L18.6394 46.0211L33.6341 37.3638C33.9416 37.1861 34.3241 37.1861 34.6316 37.3638L49.6262 46.0211L46.1791 48.0111C45.2824 48.5288 44.9751 49.6756 45.4929 50.5723C46.0121 51.4718 47.1596 51.7748 48.0541 51.2586L51.5012 49.2686V66.5828C51.5012 66.9378 51.3099 67.2688 51.0024 67.4466V67.4466Z" fill="#2780EB"/>
<path d="M83.4393 40.2467H115.439C119.101 40.2467 122.402 38.7905 124.639 36.3355C129.004 31.5445 129.11 24.3475 124.886 19.5947C123.124 17.6112 120.831 16.266 118.256 15.7037C117.703 15.583 117.281 15.1875 117.128 14.646C114.694 6.02275 106.73 0 97.7603 0C91.2383 0 85.0931 3.1835 81.3216 8.51575C81.0901 8.84325 80.7353 9.066 80.3223 9.143C72.8226 10.5432 67.4428 17.1038 67.5303 24.7428C67.6283 33.2917 74.7651 40.2467 83.4393 40.2467V40.2467ZM81.0106 12.8295C82.3876 12.5725 83.5856 11.8095 84.3833 10.6812C87.4531 6.341 92.4538 3.75 97.7603 3.75C105.059 3.75 111.539 8.6495 113.519 15.6648C114.047 17.5338 115.555 18.9523 117.456 19.3675C119.251 19.7595 120.851 20.6995 122.083 22.0858V22.086C125.029 25.401 124.936 30.4412 121.867 33.8102C120.373 35.4495 118.097 36.4967 115.439 36.4967H83.4393C76.8091 36.4967 71.3546 31.2048 71.2801 24.6998C71.2136 18.8868 75.3058 13.8945 81.0106 12.8295V12.8295Z" fill="#2780EB"/>
</g>
<defs>
<clipPath id="clip0_119357_172396">
<rect width="128" height="128" fill="white"/>
</clipPath>
</defs>
</svg>
